<svg width="304" height="47" viewBox="0 0 304 47" fill="none" xmlns="http://www.w3.org/2000/svg">
<g opacity="0.7">
<g clip-path="url(#clip0_187_130)">
<path d="M28.0001 1.66675V3.75008M28.0001 1.66675C23.3977 1.66675 19.6667 5.39771 19.6667 10.0001M28.0001 1.66675C32.6025 1.66675 36.3334 5.39771 36.3334 10.0001M28.0001 16.2501V18.3334M28.0001 18.3334C32.6025 18.3334 36.3334 14.6025 36.3334 10.0001M28.0001 18.3334C23.3977 18.3334 19.6667 14.6025 19.6667 10.0001M21.7501 10.0001H19.6667M36.3334 10.0001H34.2501M33.8988 15.8988L32.4207 14.4207M22.1014 15.8988L23.581 14.4192M22.1014 4.16675L23.5485 5.61379M33.8988 4.16675L29.25 8.75008M29.6667 10.0001C29.6667 10.9206 28.9206 11.6667 28.0001 11.6667C27.0796 11.6667 26.3334 10.9206 26.3334 10.0001C26.3334 9.07961 27.0796 8.33342 28.0001 8.33342C28.9206 8.33342 29.6667 9.07961 29.6667 10.0001Z" stroke="black" stroke-width="1.5" stroke-linecap="round" stroke-linejoin="round"/>
</g>
<path d="M8.644 38.872V37.668L13.348 30.92H15.28V37.486H16.582V38.872H15.28V41H13.712V38.872H8.644ZM13.782 32.544L10.478 37.486H13.782V32.544ZM19.8645 39.082L18.1705 42.946H17.1345L18.1285 39.082H19.8645ZM21.049 35.764C21.049 34.1493 21.3197 32.8893 21.861 31.984C22.4117 31.0693 23.3543 30.612 24.689 30.612C26.0237 30.612 26.9617 31.0693 27.503 31.984C28.0537 32.8893 28.329 34.1493 28.329 35.764C28.329 37.3973 28.0537 38.676 27.503 39.6C26.9617 40.5147 26.0237 40.972 24.689 40.972C23.3543 40.972 22.4117 40.5147 21.861 39.6C21.3197 38.676 21.049 37.3973 21.049 35.764ZM26.761 35.764C26.761 35.008 26.7097 34.3687 26.607 33.846C26.5137 33.3233 26.3177 32.8987 26.019 32.572C25.7203 32.236 25.277 32.068 24.689 32.068C24.101 32.068 23.6577 32.236 23.359 32.572C23.0603 32.8987 22.8597 33.3233 22.757 33.846C22.6637 34.3687 22.617 35.008 22.617 35.764C22.617 36.548 22.6637 37.206 22.757 37.738C22.8503 38.27 23.0463 38.6993 23.345 39.026C23.653 39.3527 24.101 39.516 24.689 39.516C25.277 39.516 25.7203 39.3527 26.019 39.026C26.327 38.6993 26.5277 38.27 26.621 37.738C26.7143 37.206 26.761 36.548 26.761 35.764ZM30.0177 35.764C30.0177 34.1493 30.2884 32.8893 30.8297 31.984C31.3804 31.0693 32.3231 30.612 33.6577 30.612C34.9924 30.612 35.9304 31.0693 36.4717 31.984C37.0224 32.8893 37.2977 34.1493 37.2977 35.764C37.2977 37.3973 37.0224 38.676 36.4717 39.6C35.9304 40.5147 34.9924 40.972 33.6577 40.972C32.3231 40.972 31.3804 40.5147 30.8297 39.6C30.2884 38.676 30.0177 37.3973 30.0177 35.764ZM35.7297 35.764C35.7297 35.008 35.6784 34.3687 35.5757 33.846C35.4824 33.3233 35.2864 32.8987 34.9877 32.572C34.6891 32.236 34.2457 32.068 33.6577 32.068C33.0697 32.068 32.6264 32.236 32.3277 32.572C32.0291 32.8987 31.8284 33.3233 31.7257 33.846C31.6324 34.3687 31.5857 35.008 31.5857 35.764C31.5857 36.548 31.6324 37.206 31.7257 37.738C31.8191 38.27 32.0151 38.6993 32.3137 39.026C32.6217 39.3527 33.0697 39.516 33.6577 39.516C34.2457 39.516 34.6891 39.3527 34.9877 39.026C35.2957 38.6993 35.4964 38.27 35.5897 37.738C35.6831 37.206 35.7297 36.548 35.7297 35.764ZM38.9865 35.764C38.9865 34.1493 39.2572 32.8893 39.7985 31.984C40.3492 31.0693 41.2918 30.612 42.6265 30.612C43.9612 30.612 44.8992 31.0693 45.4405 31.984C45.9912 32.8893 46.2665 34.1493 46.2665 35.764C46.2665 37.3973 45.9912 38.676 45.4405 39.6C44.8992 40.5147 43.9612 40.972 42.6265 40.972C41.2918 40.972 40.3492 40.5147 39.7985 39.6C39.2572 38.676 38.9865 37.3973 38.9865 35.764ZM44.6985 35.764C44.6985 35.008 44.6472 34.3687 44.5445 33.846C44.4512 33.3233 44.2552 32.8987 43.9565 32.572C43.6578 32.236 43.2145 32.068 42.6265 32.068C42.0385 32.068 41.5952 32.236 41.2965 32.572C40.9978 32.8987 40.7972 33.3233 40.6945 33.846C40.6012 34.3687 40.5545 35.008 40.5545 35.764C40.5545 36.548 40.6012 37.206 40.6945 37.738C40.7878 38.27 40.9838 38.6993 41.2825 39.026C41.5905 39.3527 42.0385 39.516 42.6265 39.516C43.2145 39.516 43.6578 39.3527 43.9565 39.026C44.2645 38.6993 44.4652 38.27 44.5585 37.738C44.6518 37.206 44.6985 36.548 44.6985 35.764Z" fill="black"/>
<ellipse cx="103.167" cy="4.99992" rx="1.66667" ry="1.66667" stroke="#0F0F0F" stroke-width="1.5" stroke-linecap="round" stroke-linejoin="round"/>
<ellipse cx="109" cy="4.99992" rx="1.66667" ry="1.66667" stroke="#0F0F0F" stroke-width="1.5" stroke-linecap="round" stroke-linejoin="round"/>
<ellipse cx="114.833" cy="4.99992" rx="1.66667" ry="1.66667" stroke="#0F0F0F" stroke-width="1.5" stroke-linecap="round" stroke-linejoin="round"/>
<ellipse cx="103.167" cy="14.9999" rx="1.66667" ry="1.66667" stroke="#0F0F0F" stroke-width="1.5" stroke-linecap="round" stroke-linejoin="round"/>
<ellipse cx="109" cy="14.9999" rx="1.66667" ry="1.66667" stroke="#0F0F0F" stroke-width="1.5" stroke-linecap="round" stroke-linejoin="round"/>
<path d="M103.167 6.66675V13.3334" stroke="#0F0F0F" stroke-width="1.5" stroke-linecap="round" stroke-linejoin="round"/>
<path d="M109 6.66675V13.3334" stroke="#0F0F0F" stroke-width="1.5" stroke-linecap="round" stroke-linejoin="round"/>
<path d="M114.833 6.66675V8.33341C114.833 9.25389 114.087 10.0001 113.167 10.0001H103.167" stroke="#0F0F0F" stroke-width="1.5" stroke-linecap="round" stroke-linejoin="round"/>
<path d="M99.416 39.012H95.342L94.642 41H92.976L96.462 31.256H98.31L101.796 41H100.116L99.416 39.012ZM98.968 37.71L97.386 33.188L95.79 37.71H98.968ZM110.298 33.286V41H108.702V40.09C108.45 40.4073 108.118 40.6593 107.708 40.846C107.306 41.0233 106.877 41.112 106.42 41.112C105.813 41.112 105.267 40.986 104.782 40.734C104.306 40.482 103.928 40.1087 103.648 39.614C103.377 39.1193 103.242 38.522 103.242 37.822V33.286H104.824V37.584C104.824 38.2747 104.996 38.8067 105.342 39.18C105.687 39.544 106.158 39.726 106.756 39.726C107.353 39.726 107.824 39.544 108.17 39.18C108.524 38.8067 108.702 38.2747 108.702 37.584V33.286H110.298ZM114.266 34.588V38.858C114.266 39.1473 114.331 39.3573 114.462 39.488C114.602 39.6093 114.835 39.67 115.162 39.67H116.142V41H114.882C114.163 41 113.612 40.832 113.23 40.496C112.847 40.16 112.656 39.614 112.656 38.858V34.588H111.746V33.286H112.656V31.368H114.266V33.286H116.142V34.588H114.266ZM120.959 41.126C120.231 41.126 119.573 40.9627 118.985 40.636C118.397 40.3 117.935 39.8333 117.599 39.236C117.263 38.6293 117.095 37.9293 117.095 37.136C117.095 36.352 117.267 35.6567 117.613 35.05C117.958 34.4433 118.429 33.9767 119.027 33.65C119.624 33.3233 120.291 33.16 121.029 33.16C121.766 33.16 122.433 33.3233 123.031 33.65C123.628 33.9767 124.099 34.4433 124.445 35.05C124.79 35.6567 124.963 36.352 124.963 37.136C124.963 37.92 124.785 38.6153 124.431 39.222C124.076 39.8287 123.591 40.3 122.975 40.636C122.368 40.9627 121.696 41.126 120.959 41.126ZM120.959 39.74C121.369 39.74 121.752 39.642 122.107 39.446C122.471 39.25 122.765 38.956 122.989 38.564C123.213 38.172 123.325 37.696 123.325 37.136C123.325 36.576 123.217 36.1047 123.003 35.722C122.788 35.33 122.503 35.036 122.149 34.84C121.794 34.644 121.411 34.546 121.001 34.546C120.59 34.546 120.207 34.644 119.853 34.84C119.507 35.036 119.232 35.33 119.027 35.722C118.821 36.1047 118.719 36.576 118.719 37.136C118.719 37.9667 118.929 38.6107 119.349 39.068C119.778 39.516 120.315 39.74 120.959 39.74Z" fill="black"/>
<path d="M200.833 17.5V15.8333C200.833 14.2801 199.771 12.9751 198.333 12.605M195.417 2.7423C196.638 3.23679 197.5 4.43443 197.5 5.83333C197.5 7.23224 196.638 8.42988 195.417 8.92437M196.667 17.5C196.667 15.9469 196.667 15.1703 196.413 14.5577C196.075 13.741 195.426 13.092 194.609 12.7537C193.996 12.5 193.22 12.5 191.667 12.5H189.167C187.613 12.5 186.837 12.5 186.224 12.7537C185.408 13.092 184.759 13.741 184.42 14.5577C184.167 15.1703 184.167 15.9469 184.167 17.5M193.75 5.83333C193.75 7.67428 192.258 9.16667 190.417 9.16667C188.576 9.16667 187.083 7.67428 187.083 5.83333C187.083 3.99238 188.576 2.5 190.417 2.5C192.258 2.5 193.75 3.99238 193.75 5.83333Z" stroke="black" stroke-width="1.5" stroke-linecap="round" stroke-linejoin="round"/>
<path d="M162.644 38.872V37.668L167.348 30.92H169.28V37.486H170.582V38.872H169.28V41H167.712V38.872H162.644ZM167.782 32.544L164.478 37.486H167.782V32.544ZM182.555 34.168C182.555 34.6627 182.439 35.1293 182.205 35.568C181.972 36.0067 181.599 36.366 181.085 36.646C180.572 36.9167 179.914 37.052 179.111 37.052H177.347V41H175.751V31.27H179.111C179.858 31.27 180.488 31.4007 181.001 31.662C181.524 31.914 181.911 32.2593 182.163 32.698C182.425 33.1367 182.555 33.6267 182.555 34.168ZM179.111 35.75C179.718 35.75 180.171 35.6147 180.469 35.344C180.768 35.064 180.917 34.672 180.917 34.168C180.917 33.104 180.315 32.572 179.111 32.572H177.347V35.75H179.111ZM191.147 36.954C191.147 37.2433 191.129 37.5047 191.091 37.738H185.197C185.244 38.354 185.473 38.8487 185.883 39.222C186.294 39.5953 186.798 39.782 187.395 39.782C188.254 39.782 188.861 39.4227 189.215 38.704H190.937C190.704 39.4133 190.279 39.9967 189.663 40.454C189.057 40.902 188.301 41.126 187.395 41.126C186.658 41.126 185.995 40.9627 185.407 40.636C184.829 40.3 184.371 39.8333 184.035 39.236C183.709 38.6293 183.545 37.9293 183.545 37.136C183.545 36.3427 183.704 35.6473 184.021 35.05C184.348 34.4433 184.801 33.9767 185.379 33.65C185.967 33.3233 186.639 33.16 187.395 33.16C188.123 33.16 188.772 33.3187 189.341 33.636C189.911 33.9533 190.354 34.4013 190.671 34.98C190.989 35.5493 191.147 36.2073 191.147 36.954ZM189.481 36.45C189.472 35.862 189.262 35.3907 188.851 35.036C188.441 34.6813 187.932 34.504 187.325 34.504C186.775 34.504 186.303 34.6813 185.911 35.036C185.519 35.3813 185.286 35.8527 185.211 36.45H189.481ZM194.314 34.406C194.547 34.014 194.855 33.7107 195.238 33.496C195.63 33.272 196.092 33.16 196.624 33.16V34.812H196.218C195.593 34.812 195.117 34.9707 194.79 35.288C194.473 35.6053 194.314 36.156 194.314 36.94V41H192.718V33.286H194.314V34.406ZM200.891 41.126C200.284 41.126 199.738 41.0187 199.253 40.804C198.777 40.58 198.399 40.2813 198.119 39.908C197.839 39.5253 197.69 39.1007 197.671 38.634H199.323C199.351 38.9607 199.505 39.236 199.785 39.46C200.074 39.6747 200.434 39.782 200.863 39.782C201.311 39.782 201.656 39.698 201.899 39.53C202.151 39.3527 202.277 39.1287 202.277 38.858C202.277 38.5687 202.137 38.354 201.857 38.214C201.586 38.074 201.152 37.92 200.555 37.752C199.976 37.5933 199.505 37.4393 199.141 37.29C198.777 37.1407 198.46 36.912 198.189 36.604C197.928 36.296 197.797 35.89 197.797 35.386C197.797 34.9753 197.918 34.602 198.161 34.266C198.404 33.9207 198.749 33.65 199.197 33.454C199.654 33.258 200.177 33.16 200.765 33.16C201.642 33.16 202.347 33.384 202.879 33.832C203.42 34.2707 203.71 34.8727 203.747 35.638H202.151C202.123 35.2927 201.983 35.0173 201.731 34.812C201.479 34.6067 201.138 34.504 200.709 34.504C200.289 34.504 199.967 34.5833 199.743 34.742C199.519 34.9007 199.407 35.1107 199.407 35.372C199.407 35.5773 199.482 35.75 199.631 35.89C199.78 36.03 199.962 36.142 200.177 36.226C200.392 36.3007 200.709 36.3987 201.129 36.52C201.689 36.6693 202.146 36.8233 202.501 36.982C202.865 37.1313 203.178 37.3553 203.439 37.654C203.7 37.9527 203.836 38.3493 203.845 38.844C203.845 39.2827 203.724 39.6747 203.481 40.02C203.238 40.3653 202.893 40.636 202.445 40.832C202.006 41.028 201.488 41.126 200.891 41.126ZM208.916 41.126C208.188 41.126 207.53 40.9627 206.942 40.636C206.354 40.3 205.892 39.8333 205.556 39.236C205.22 38.6293 205.052 37.9293 205.052 37.136C205.052 36.352 205.224 35.6567 205.57 35.05C205.915 34.4433 206.386 33.9767 206.984 33.65C207.581 33.3233 208.248 33.16 208.986 33.16C209.723 33.16 210.39 33.3233 210.988 33.65C211.585 33.9767 212.056 34.4433 212.402 35.05C212.747 35.6567 212.92 36.352 212.92 37.136C212.92 37.92 212.742 38.6153 212.388 39.222C212.033 39.8287 211.548 40.3 210.932 40.636C210.325 40.9627 209.653 41.126 208.916 41.126ZM208.916 39.74C209.326 39.74 209.709 39.642 210.064 39.446C210.428 39.25 210.722 38.956 210.946 38.564C211.17 38.172 211.282 37.696 211.282 37.136C211.282 36.576 211.174 36.1047 210.96 35.722C210.745 35.33 210.46 35.036 210.106 34.84C209.751 34.644 209.368 34.546 208.958 34.546C208.547 34.546 208.164 34.644 207.81 34.84C207.464 35.036 207.189 35.33 206.984 35.722C206.778 36.1047 206.676 36.576 206.676 37.136C206.676 37.9667 206.886 38.6107 207.306 39.068C207.735 39.516 208.272 39.74 208.916 39.74ZM218.389 33.16C218.996 33.16 219.537 33.286 220.013 33.538C220.499 33.79 220.877 34.1633 221.147 34.658C221.418 35.1527 221.553 35.75 221.553 36.45V41H219.971V36.688C219.971 35.9973 219.799 35.47 219.453 35.106C219.108 34.7327 218.637 34.546 218.039 34.546C217.442 34.546 216.966 34.7327 216.611 35.106C216.266 35.47 216.093 35.9973 216.093 36.688V41H214.497V33.286H216.093V34.168C216.355 33.8507 216.686 33.6033 217.087 33.426C217.498 33.2487 217.932 33.16 218.389 33.16Z" fill="black"/>
<path d="M277.667 9.16667H278.5C279.42 9.16667 280.167 9.91286 280.167 10.8333V13.3333C280.167 14.0237 280.726 14.5833 281.417 14.5833C282.107 14.5833 282.667 14.0237 282.667 13.3333V7.5L280.167 5" stroke="#0F0F0F" stroke-width="1.75" stroke-linecap="round" stroke-linejoin="round"/>
<path d="M269.333 16.6666V4.99992C269.333 4.07944 270.08 3.33325 271 3.33325H276C276.921 3.33325 277.667 4.07944 277.667 4.99992V16.6666" stroke="#0F0F0F" stroke-width="1.75" stroke-linecap="round" stroke-linejoin="round"/>
<path d="M268.5 16.6667H278.5" stroke="#0F0F0F" stroke-width="1.75" stroke-linecap="round" stroke-linejoin="round"/>
<path d="M281 5.83325V6.66659C281 7.12682 281.373 7.49992 281.833 7.49992H282.667" stroke="#0F0F0F" stroke-width="1.75" stroke-linecap="round" stroke-linejoin="round"/>
<path d="M269.333 9.16667H277.667" stroke="#0F0F0F" stroke-width="1.75" stroke-linecap="round" stroke-linejoin="round"/>
<path d="M253.146 32.558V35.414H256.506V36.716H253.146V39.698H256.926V41H251.55V31.256H256.926V32.558H253.146ZM260.488 30.64V41H258.892V30.64H260.488ZM269.653 36.954C269.653 37.2433 269.635 37.5047 269.597 37.738H263.703C263.75 38.354 263.979 38.8487 264.389 39.222C264.8 39.5953 265.304 39.782 265.901 39.782C266.76 39.782 267.367 39.4227 267.721 38.704H269.443C269.21 39.4133 268.785 39.9967 268.169 40.454C267.563 40.902 266.807 41.126 265.901 41.126C265.164 41.126 264.501 40.9627 263.913 40.636C263.335 40.3 262.877 39.8333 262.541 39.236C262.215 38.6293 262.051 37.9293 262.051 37.136C262.051 36.3427 262.21 35.6473 262.527 35.05C262.854 34.4433 263.307 33.9767 263.885 33.65C264.473 33.3233 265.145 33.16 265.901 33.16C266.629 33.16 267.278 33.3187 267.847 33.636C268.417 33.9533 268.86 34.4013 269.177 34.98C269.495 35.5493 269.653 36.2073 269.653 36.954ZM267.987 36.45C267.978 35.862 267.768 35.3907 267.357 35.036C266.947 34.6813 266.438 34.504 265.831 34.504C265.281 34.504 264.809 34.6813 264.417 35.036C264.025 35.3813 263.792 35.8527 263.717 36.45H267.987ZM270.692 37.136C270.692 36.3427 270.85 35.6473 271.168 35.05C271.494 34.4433 271.942 33.9767 272.512 33.65C273.081 33.3233 273.734 33.16 274.472 33.16C275.405 33.16 276.175 33.384 276.782 33.832C277.398 34.2707 277.813 34.9007 278.028 35.722H276.306C276.166 35.3393 275.942 35.0407 275.634 34.826C275.326 34.6113 274.938 34.504 274.472 34.504C273.818 34.504 273.296 34.7373 272.904 35.204C272.521 35.6613 272.33 36.3053 272.33 37.136C272.33 37.9667 272.521 38.6153 272.904 39.082C273.296 39.5487 273.818 39.782 274.472 39.782C275.396 39.782 276.007 39.376 276.306 38.564H278.028C277.804 39.348 277.384 39.9733 276.768 40.44C276.152 40.8973 275.386 41.126 274.472 41.126C273.734 41.126 273.081 40.9627 272.512 40.636C271.942 40.3 271.494 39.8333 271.168 39.236C270.85 38.6293 270.692 37.9293 270.692 37.136ZM281.48 34.588V38.858C281.48 39.1473 281.546 39.3573 281.676 39.488C281.816 39.6093 282.05 39.67 282.376 39.67H283.356V41H282.096C281.378 41 280.827 40.832 280.444 40.496C280.062 40.16 279.87 39.614 279.87 38.858V34.588H278.96V33.286H279.87V31.368H281.48V33.286H283.356V34.588H281.48ZM286.423 34.406C286.657 34.014 286.965 33.7107 287.347 33.496C287.739 33.272 288.201 33.16 288.733 33.16V34.812H288.327C287.702 34.812 287.226 34.9707 286.899 35.288C286.582 35.6053 286.423 36.156 286.423 36.94V41H284.827V33.286H286.423V34.406ZM291.012 32.264C290.723 32.264 290.48 32.166 290.284 31.97C290.088 31.774 289.99 31.5313 289.99 31.242C289.99 30.9527 290.088 30.71 290.284 30.514C290.48 30.318 290.723 30.22 291.012 30.22C291.292 30.22 291.53 30.318 291.726 30.514C291.922 30.71 292.02 30.9527 292.02 31.242C292.02 31.5313 291.922 31.774 291.726 31.97C291.53 32.166 291.292 32.264 291.012 32.264ZM291.796 33.286V41H290.2V33.286H291.796ZM293.36 37.136C293.36 36.3427 293.518 35.6473 293.836 35.05C294.162 34.4433 294.61 33.9767 295.18 33.65C295.749 33.3233 296.402 33.16 297.14 33.16C298.073 33.16 298.843 33.384 299.45 33.832C300.066 34.2707 300.481 34.9007 300.696 35.722H298.974C298.834 35.3393 298.61 35.0407 298.302 34.826C297.994 34.6113 297.606 34.504 297.14 34.504C296.486 34.504 295.964 34.7373 295.572 35.204C295.189 35.6613 294.998 36.3053 294.998 37.136C294.998 37.9667 295.189 38.6153 295.572 39.082C295.964 39.5487 296.486 39.782 297.14 39.782C298.064 39.782 298.675 39.376 298.974 38.564H300.696C300.472 39.348 300.052 39.9733 299.436 40.44C298.82 40.8973 298.054 41.126 297.14 41.126C296.402 41.126 295.749 40.9627 295.18 40.636C294.61 40.3 294.162 39.8333 293.836 39.236C293.518 38.6293 293.36 37.9293 293.36 37.136Z" fill="black"/>
</g>
<defs>
<clipPath id="clip0_187_130">
<rect width="20" height="20" fill="white" transform="translate(18)"/>
</clipPath>
</defs>
</svg>
