<svg width="592" height="170" viewBox="0 0 592 170" fill="none" xmlns="http://www.w3.org/2000/svg">
<rect width="592" height="170" fill="#1E1E1E"/>
<g id="Home" clip-path="url(#clip0_0_1)">
<rect width="1440" height="6342" transform="translate(-112 -4285)" fill="white"/>
<g id="Group 125">
<g id="Group 114">
<g id="Rectangle 93">
<rect width="592" height="170" rx="24" fill="white"/>
<rect x="0.5" y="0.5" width="591" height="169" rx="23.5" stroke="black" stroke-opacity="0.1"/>
</g>
<path id="Pick up your car at the designated location and enjoy your premium driving experience with our top-quality service." d="M115.774 92.126C115.774 93.17 115.414 94.04 114.694 94.736C113.986 95.42 112.9 95.762 111.436 95.762H109.024V101H107.386V88.454H111.436C112.852 88.454 113.926 88.796 114.658 89.48C115.402 90.164 115.774 91.046 115.774 92.126ZM111.436 94.412C112.348 94.412 113.02 94.214 113.452 93.818C113.884 93.422 114.1 92.858 114.1 92.126C114.1 90.578 113.212 89.804 111.436 89.804H109.024V94.412H111.436ZM118.296 89.534C117.984 89.534 117.72 89.426 117.504 89.21C117.288 88.994 117.18 88.73 117.18 88.418C117.18 88.106 117.288 87.842 117.504 87.626C117.72 87.41 117.984 87.302 118.296 87.302C118.596 87.302 118.848 87.41 119.052 87.626C119.268 87.842 119.376 88.106 119.376 88.418C119.376 88.73 119.268 88.994 119.052 89.21C118.848 89.426 118.596 89.534 118.296 89.534ZM119.088 91.136V101H117.45V91.136H119.088ZM120.908 96.05C120.908 95.03 121.112 94.142 121.52 93.386C121.928 92.618 122.492 92.024 123.212 91.604C123.944 91.184 124.778 90.974 125.714 90.974C126.926 90.974 127.922 91.268 128.702 91.856C129.494 92.444 130.016 93.26 130.268 94.304H128.504C128.336 93.704 128.006 93.23 127.514 92.882C127.034 92.534 126.434 92.36 125.714 92.36C124.778 92.36 124.022 92.684 123.446 93.332C122.87 93.968 122.582 94.874 122.582 96.05C122.582 97.238 122.87 98.156 123.446 98.804C124.022 99.452 124.778 99.776 125.714 99.776C126.434 99.776 127.034 99.608 127.514 99.272C127.994 98.936 128.324 98.456 128.504 97.832H130.268C130.004 98.84 129.476 99.65 128.684 100.262C127.892 100.862 126.902 101.162 125.714 101.162C124.778 101.162 123.944 100.952 123.212 100.532C122.492 100.112 121.928 99.518 121.52 98.75C121.112 97.982 120.908 97.082 120.908 96.05ZM137.601 101L133.731 96.644V101H132.093V87.68H133.731V95.51L137.529 91.136H139.815L135.171 96.05L139.833 101H137.601ZM154.184 91.136V101H152.546V99.542C152.234 100.046 151.796 100.442 151.232 100.73C150.68 101.006 150.068 101.144 149.396 101.144C148.628 101.144 147.938 100.988 147.326 100.676C146.714 100.352 146.228 99.872 145.868 99.236C145.52 98.6 145.346 97.826 145.346 96.914V91.136H146.966V96.698C146.966 97.67 147.212 98.42 147.704 98.948C148.196 99.464 148.868 99.722 149.72 99.722C150.596 99.722 151.286 99.452 151.79 98.912C152.294 98.372 152.546 97.586 152.546 96.554V91.136H154.184ZM158.227 92.954C158.551 92.39 159.031 91.922 159.667 91.55C160.315 91.166 161.065 90.974 161.917 90.974C162.793 90.974 163.585 91.184 164.293 91.604C165.013 92.024 165.577 92.618 165.985 93.386C166.393 94.142 166.597 95.024 166.597 96.032C166.597 97.028 166.393 97.916 165.985 98.696C165.577 99.476 165.013 100.082 164.293 100.514C163.585 100.946 162.793 101.162 161.917 101.162C161.077 101.162 160.333 100.976 159.685 100.604C159.049 100.22 158.563 99.746 158.227 99.182V105.68H156.589V91.136H158.227V92.954ZM164.923 96.032C164.923 95.288 164.773 94.64 164.473 94.088C164.173 93.536 163.765 93.116 163.249 92.828C162.745 92.54 162.187 92.396 161.575 92.396C160.975 92.396 160.417 92.546 159.901 92.846C159.397 93.134 158.989 93.56 158.677 94.124C158.377 94.676 158.227 95.318 158.227 96.05C158.227 96.794 158.377 97.448 158.677 98.012C158.989 98.564 159.397 98.99 159.901 99.29C160.417 99.578 160.975 99.722 161.575 99.722C162.187 99.722 162.745 99.578 163.249 99.29C163.765 98.99 164.173 98.564 164.473 98.012C164.773 97.448 164.923 96.788 164.923 96.032ZM181.328 91.136L175.388 105.644H173.696L175.64 100.892L171.662 91.136H173.48L176.576 99.128L179.636 91.136H181.328ZM186.917 101.162C185.993 101.162 185.153 100.952 184.397 100.532C183.653 100.112 183.065 99.518 182.633 98.75C182.213 97.97 182.003 97.07 182.003 96.05C182.003 95.042 182.219 94.154 182.651 93.386C183.095 92.606 183.695 92.012 184.451 91.604C185.207 91.184 186.053 90.974 186.989 90.974C187.925 90.974 188.771 91.184 189.527 91.604C190.283 92.012 190.877 92.6 191.309 93.368C191.753 94.136 191.975 95.03 191.975 96.05C191.975 97.07 191.747 97.97 191.291 98.75C190.847 99.518 190.241 100.112 189.473 100.532C188.705 100.952 187.853 101.162 186.917 101.162ZM186.917 99.722C187.505 99.722 188.057 99.584 188.573 99.308C189.089 99.032 189.503 98.618 189.815 98.066C190.139 97.514 190.301 96.842 190.301 96.05C190.301 95.258 190.145 94.586 189.833 94.034C189.521 93.482 189.113 93.074 188.609 92.81C188.105 92.534 187.559 92.396 186.971 92.396C186.371 92.396 185.819 92.534 185.315 92.81C184.823 93.074 184.427 93.482 184.127 94.034C183.827 94.586 183.677 95.258 183.677 96.05C183.677 96.854 183.821 97.532 184.109 98.084C184.409 98.636 184.805 99.05 185.297 99.326C185.789 99.59 186.329 99.722 186.917 99.722ZM202.516 91.136V101H200.878V99.542C200.566 100.046 200.128 100.442 199.564 100.73C199.012 101.006 198.4 101.144 197.728 101.144C196.96 101.144 196.27 100.988 195.658 100.676C195.046 100.352 194.56 99.872 194.2 99.236C193.852 98.6 193.678 97.826 193.678 96.914V91.136H195.298V96.698C195.298 97.67 195.544 98.42 196.036 98.948C196.528 99.464 197.2 99.722 198.052 99.722C198.928 99.722 199.618 99.452 200.122 98.912C200.626 98.372 200.878 97.586 200.878 96.554V91.136H202.516ZM206.56 92.738C206.848 92.174 207.256 91.736 207.784 91.424C208.324 91.112 208.978 90.956 209.746 90.956V92.648H209.314C207.478 92.648 206.56 93.644 206.56 95.636V101H204.922V91.136H206.56V92.738ZM215.104 96.05C215.104 95.03 215.308 94.142 215.716 93.386C216.124 92.618 216.688 92.024 217.408 91.604C218.14 91.184 218.974 90.974 219.91 90.974C221.122 90.974 222.118 91.268 222.898 91.856C223.69 92.444 224.212 93.26 224.464 94.304H222.7C222.532 93.704 222.202 93.23 221.71 92.882C221.23 92.534 220.63 92.36 219.91 92.36C218.974 92.36 218.218 92.684 217.642 93.332C217.066 93.968 216.778 94.874 216.778 96.05C216.778 97.238 217.066 98.156 217.642 98.804C218.218 99.452 218.974 99.776 219.91 99.776C220.63 99.776 221.23 99.608 221.71 99.272C222.19 98.936 222.52 98.456 222.7 97.832H224.464C224.2 98.84 223.672 99.65 222.88 100.262C222.088 100.862 221.098 101.162 219.91 101.162C218.974 101.162 218.14 100.952 217.408 100.532C216.688 100.112 216.124 99.518 215.716 98.75C215.308 97.982 215.104 97.082 215.104 96.05ZM225.677 96.032C225.677 95.024 225.881 94.142 226.289 93.386C226.697 92.618 227.255 92.024 227.963 91.604C228.683 91.184 229.481 90.974 230.357 90.974C231.221 90.974 231.971 91.16 232.607 91.532C233.243 91.904 233.717 92.372 234.029 92.936V91.136H235.685V101H234.029V99.164C233.705 99.74 233.219 100.22 232.571 100.604C231.935 100.976 231.191 101.162 230.339 101.162C229.463 101.162 228.671 100.946 227.963 100.514C227.255 100.082 226.697 99.476 226.289 98.696C225.881 97.916 225.677 97.028 225.677 96.032ZM234.029 96.05C234.029 95.306 233.879 94.658 233.579 94.106C233.279 93.554 232.871 93.134 232.355 92.846C231.851 92.546 231.293 92.396 230.681 92.396C230.069 92.396 229.511 92.54 229.007 92.828C228.503 93.116 228.101 93.536 227.801 94.088C227.501 94.64 227.351 95.288 227.351 96.032C227.351 96.788 227.501 97.448 227.801 98.012C228.101 98.564 228.503 98.99 229.007 99.29C229.511 99.578 230.069 99.722 230.681 99.722C231.293 99.722 231.851 99.578 232.355 99.29C232.871 98.99 233.279 98.564 233.579 98.012C233.879 97.448 234.029 96.794 234.029 96.05ZM239.731 92.738C240.019 92.174 240.427 91.736 240.955 91.424C241.495 91.112 242.149 90.956 242.917 90.956V92.648H242.485C240.649 92.648 239.731 93.644 239.731 95.636V101H238.093V91.136H239.731V92.738ZM248.275 96.032C248.275 95.024 248.479 94.142 248.887 93.386C249.295 92.618 249.853 92.024 250.561 91.604C251.281 91.184 252.079 90.974 252.955 90.974C253.819 90.974 254.569 91.16 255.205 91.532C255.841 91.904 256.315 92.372 256.627 92.936V91.136H258.283V101H256.627V99.164C256.303 99.74 255.817 100.22 255.169 100.604C254.533 100.976 253.789 101.162 252.937 101.162C252.061 101.162 251.269 100.946 250.561 100.514C249.853 100.082 249.295 99.476 248.887 98.696C248.479 97.916 248.275 97.028 248.275 96.032ZM256.627 96.05C256.627 95.306 256.477 94.658 256.177 94.106C255.877 93.554 255.469 93.134 254.953 92.846C254.449 92.546 253.891 92.396 253.279 92.396C252.667 92.396 252.109 92.54 251.605 92.828C251.101 93.116 250.699 93.536 250.399 94.088C250.099 94.64 249.949 95.288 249.949 96.032C249.949 96.788 250.099 97.448 250.399 98.012C250.699 98.564 251.101 98.99 251.605 99.29C252.109 99.578 252.667 99.722 253.279 99.722C253.891 99.722 254.449 99.578 254.953 99.29C255.469 98.99 255.877 98.564 256.177 98.012C256.477 97.448 256.627 96.794 256.627 96.05ZM262.689 92.486V98.3C262.689 98.78 262.791 99.122 262.995 99.326C263.199 99.518 263.553 99.614 264.057 99.614H265.263V101H263.787C262.875 101 262.191 100.79 261.735 100.37C261.279 99.95 261.051 99.26 261.051 98.3V92.486H259.773V91.136H261.051V88.652H262.689V91.136H265.263V92.486H262.689ZM273.325 92.486V98.3C273.325 98.78 273.427 99.122 273.631 99.326C273.835 99.518 274.189 99.614 274.693 99.614H275.899V101H274.423C273.511 101 272.827 100.79 272.371 100.37C271.915 99.95 271.687 99.26 271.687 98.3V92.486H270.409V91.136H271.687V88.652H273.325V91.136H275.899V92.486H273.325ZM282.419 90.956C283.163 90.956 283.835 91.118 284.435 91.442C285.035 91.754 285.503 92.228 285.839 92.864C286.187 93.5 286.361 94.274 286.361 95.186V101H284.741V95.42C284.741 94.436 284.495 93.686 284.003 93.17C283.511 92.642 282.839 92.378 281.987 92.378C281.123 92.378 280.433 92.648 279.917 93.188C279.413 93.728 279.161 94.514 279.161 95.546V101H277.523V87.68H279.161V92.54C279.485 92.036 279.929 91.646 280.493 91.37C281.069 91.094 281.711 90.956 282.419 90.956ZM297.677 95.69C297.677 96.002 297.659 96.332 297.623 96.68H289.739C289.799 97.652 290.129 98.414 290.729 98.966C291.341 99.506 292.079 99.776 292.943 99.776C293.651 99.776 294.239 99.614 294.707 99.29C295.187 98.954 295.523 98.51 295.715 97.958H297.479C297.215 98.906 296.687 99.68 295.895 100.28C295.103 100.868 294.119 101.162 292.943 101.162C292.007 101.162 291.167 100.952 290.423 100.532C289.691 100.112 289.115 99.518 288.695 98.75C288.275 97.97 288.065 97.07 288.065 96.05C288.065 95.03 288.269 94.136 288.677 93.368C289.085 92.6 289.655 92.012 290.387 91.604C291.131 91.184 291.983 90.974 292.943 90.974C293.879 90.974 294.707 91.178 295.427 91.586C296.147 91.994 296.699 92.558 297.083 93.278C297.479 93.986 297.677 94.79 297.677 95.69ZM295.985 95.348C295.985 94.724 295.847 94.19 295.571 93.746C295.295 93.29 294.917 92.948 294.437 92.72C293.969 92.48 293.447 92.36 292.871 92.36C292.043 92.36 291.335 92.624 290.747 93.152C290.171 93.68 289.841 94.412 289.757 95.348H295.985ZM303.306 96.032C303.306 95.024 303.51 94.142 303.918 93.386C304.326 92.618 304.884 92.024 305.592 91.604C306.312 91.184 307.116 90.974 308.004 90.974C308.772 90.974 309.486 91.154 310.146 91.514C310.806 91.862 311.31 92.324 311.658 92.9V87.68H313.314V101H311.658V99.146C311.334 99.734 310.854 100.22 310.218 100.604C309.582 100.976 308.838 101.162 307.986 101.162C307.11 101.162 306.312 100.946 305.592 100.514C304.884 100.082 304.326 99.476 303.918 98.696C303.51 97.916 303.306 97.028 303.306 96.032ZM311.658 96.05C311.658 95.306 311.508 94.658 311.208 94.106C310.908 93.554 310.5 93.134 309.984 92.846C309.48 92.546 308.922 92.396 308.31 92.396C307.698 92.396 307.14 92.54 306.636 92.828C306.132 93.116 305.73 93.536 305.43 94.088C305.13 94.64 304.98 95.288 304.98 96.032C304.98 96.788 305.13 97.448 305.43 98.012C305.73 98.564 306.132 98.99 306.636 99.29C307.14 99.578 307.698 99.722 308.31 99.722C308.922 99.722 309.48 99.578 309.984 99.29C310.5 98.99 310.908 98.564 311.208 98.012C311.508 97.448 311.658 96.794 311.658 96.05ZM324.722 95.69C324.722 96.002 324.704 96.332 324.668 96.68H316.784C316.844 97.652 317.174 98.414 317.774 98.966C318.386 99.506 319.124 99.776 319.988 99.776C320.696 99.776 321.284 99.614 321.752 99.29C322.232 98.954 322.568 98.51 322.76 97.958H324.524C324.26 98.906 323.732 99.68 322.94 100.28C322.148 100.868 321.164 101.162 319.988 101.162C319.052 101.162 318.212 100.952 317.468 100.532C316.736 100.112 316.16 99.518 315.74 98.75C315.32 97.97 315.11 97.07 315.11 96.05C315.11 95.03 315.314 94.136 315.722 93.368C316.13 92.6 316.7 92.012 317.432 91.604C318.176 91.184 319.028 90.974 319.988 90.974C320.924 90.974 321.752 91.178 322.472 91.586C323.192 91.994 323.744 92.558 324.128 93.278C324.524 93.986 324.722 94.79 324.722 95.69ZM323.03 95.348C323.03 94.724 322.892 94.19 322.616 93.746C322.34 93.29 321.962 92.948 321.482 92.72C321.014 92.48 320.492 92.36 319.916 92.36C319.088 92.36 318.38 92.624 317.792 93.152C317.216 93.68 316.886 94.412 316.802 95.348H323.03ZM330.016 101.162C329.26 101.162 328.582 101.036 327.982 100.784C327.382 100.52 326.908 100.16 326.56 99.704C326.212 99.236 326.02 98.702 325.984 98.102H327.676C327.724 98.594 327.952 98.996 328.36 99.308C328.78 99.62 329.326 99.776 329.998 99.776C330.622 99.776 331.114 99.638 331.474 99.362C331.834 99.086 332.014 98.738 332.014 98.318C332.014 97.886 331.822 97.568 331.438 97.364C331.054 97.148 330.46 96.938 329.656 96.734C328.924 96.542 328.324 96.35 327.856 96.158C327.4 95.954 327.004 95.66 326.668 95.276C326.344 94.88 326.182 94.364 326.182 93.728C326.182 93.224 326.332 92.762 326.632 92.342C326.932 91.922 327.358 91.592 327.91 91.352C328.462 91.1 329.092 90.974 329.8 90.974C330.892 90.974 331.774 91.25 332.446 91.802C333.118 92.354 333.478 93.11 333.526 94.07H331.888C331.852 93.554 331.642 93.14 331.258 92.828C330.886 92.516 330.382 92.36 329.746 92.36C329.158 92.36 328.69 92.486 328.342 92.738C327.994 92.99 327.82 93.32 327.82 93.728C327.82 94.052 327.922 94.322 328.126 94.538C328.342 94.742 328.606 94.91 328.918 95.042C329.242 95.162 329.686 95.3 330.25 95.456C330.958 95.648 331.534 95.84 331.978 96.032C332.422 96.212 332.8 96.488 333.112 96.86C333.436 97.232 333.604 97.718 333.616 98.318C333.616 98.858 333.466 99.344 333.166 99.776C332.866 100.208 332.44 100.55 331.888 100.802C331.348 101.042 330.724 101.162 330.016 101.162ZM336.414 89.534C336.102 89.534 335.838 89.426 335.622 89.21C335.406 88.994 335.298 88.73 335.298 88.418C335.298 88.106 335.406 87.842 335.622 87.626C335.838 87.41 336.102 87.302 336.414 87.302C336.714 87.302 336.966 87.41 337.17 87.626C337.386 87.842 337.494 88.106 337.494 88.418C337.494 88.73 337.386 88.994 337.17 89.21C336.966 89.426 336.714 89.534 336.414 89.534ZM337.206 91.136V101H335.568V91.136H337.206ZM343.706 90.974C344.558 90.974 345.302 91.16 345.938 91.532C346.586 91.904 347.066 92.372 347.378 92.936V91.136H349.034V101.216C349.034 102.116 348.842 102.914 348.458 103.61C348.074 104.318 347.522 104.87 346.802 105.266C346.094 105.662 345.266 105.86 344.318 105.86C343.022 105.86 341.942 105.554 341.078 104.942C340.214 104.33 339.704 103.496 339.548 102.44H341.168C341.348 103.04 341.72 103.52 342.284 103.88C342.848 104.252 343.526 104.438 344.318 104.438C345.218 104.438 345.95 104.156 346.514 103.592C347.09 103.028 347.378 102.236 347.378 101.216V99.146C347.054 99.722 346.574 100.202 345.938 100.586C345.302 100.97 344.558 101.162 343.706 101.162C342.83 101.162 342.032 100.946 341.312 100.514C340.604 100.082 340.046 99.476 339.638 98.696C339.23 97.916 339.026 97.028 339.026 96.032C339.026 95.024 339.23 94.142 339.638 93.386C340.046 92.618 340.604 92.024 341.312 91.604C342.032 91.184 342.83 90.974 343.706 90.974ZM347.378 96.05C347.378 95.306 347.228 94.658 346.928 94.106C346.628 93.554 346.22 93.134 345.704 92.846C345.2 92.546 344.642 92.396 344.03 92.396C343.418 92.396 342.86 92.54 342.356 92.828C341.852 93.116 341.45 93.536 341.15 94.088C340.85 94.64 340.7 95.288 340.7 96.032C340.7 96.788 340.85 97.448 341.15 98.012C341.45 98.564 341.852 98.99 342.356 99.29C342.86 99.578 343.418 99.722 344.03 99.722C344.642 99.722 345.2 99.578 345.704 99.29C346.22 98.99 346.628 98.564 346.928 98.012C347.228 97.448 347.378 96.794 347.378 96.05ZM356.248 90.956C357.448 90.956 358.42 91.322 359.164 92.054C359.908 92.774 360.28 93.818 360.28 95.186V101H358.66V95.42C358.66 94.436 358.414 93.686 357.922 93.17C357.43 92.642 356.758 92.378 355.906 92.378C355.042 92.378 354.352 92.648 353.836 93.188C353.332 93.728 353.08 94.514 353.08 95.546V101H351.442V91.136H353.08V92.54C353.404 92.036 353.842 91.646 354.394 91.37C354.958 91.094 355.576 90.956 356.248 90.956ZM361.984 96.032C361.984 95.024 362.188 94.142 362.596 93.386C363.004 92.618 363.562 92.024 364.27 91.604C364.99 91.184 365.788 90.974 366.664 90.974C367.528 90.974 368.278 91.16 368.914 91.532C369.55 91.904 370.024 92.372 370.336 92.936V91.136H371.992V101H370.336V99.164C370.012 99.74 369.526 100.22 368.878 100.604C368.242 100.976 367.498 101.162 366.646 101.162C365.77 101.162 364.978 100.946 364.27 100.514C363.562 100.082 363.004 99.476 362.596 98.696C362.188 97.916 361.984 97.028 361.984 96.032ZM370.336 96.05C370.336 95.306 370.186 94.658 369.886 94.106C369.586 93.554 369.178 93.134 368.662 92.846C368.158 92.546 367.6 92.396 366.988 92.396C366.376 92.396 365.818 92.54 365.314 92.828C364.81 93.116 364.408 93.536 364.108 94.088C363.808 94.64 363.658 95.288 363.658 96.032C363.658 96.788 363.808 97.448 364.108 98.012C364.408 98.564 364.81 98.99 365.314 99.29C365.818 99.578 366.376 99.722 366.988 99.722C367.6 99.722 368.158 99.578 368.662 99.29C369.178 98.99 369.586 98.564 369.886 98.012C370.186 97.448 370.336 96.794 370.336 96.05ZM376.398 92.486V98.3C376.398 98.78 376.5 99.122 376.704 99.326C376.908 99.518 377.262 99.614 377.766 99.614H378.972V101H377.496C376.584 101 375.9 100.79 375.444 100.37C374.988 99.95 374.76 99.26 374.76 98.3V92.486H373.482V91.136H374.76V88.652H376.398V91.136H378.972V92.486H376.398ZM389.596 95.69C389.596 96.002 389.578 96.332 389.542 96.68H381.658C381.718 97.652 382.048 98.414 382.648 98.966C383.26 99.506 383.998 99.776 384.862 99.776C385.57 99.776 386.158 99.614 386.626 99.29C387.106 98.954 387.442 98.51 387.634 97.958H389.398C389.134 98.906 388.606 99.68 387.814 100.28C387.022 100.868 386.038 101.162 384.862 101.162C383.926 101.162 383.086 100.952 382.342 100.532C381.61 100.112 381.034 99.518 380.614 98.75C380.194 97.97 379.984 97.07 379.984 96.05C379.984 95.03 380.188 94.136 380.596 93.368C381.004 92.6 381.574 92.012 382.306 91.604C383.05 91.184 383.902 90.974 384.862 90.974C385.798 90.974 386.626 91.178 387.346 91.586C388.066 91.994 388.618 92.558 389.002 93.278C389.398 93.986 389.596 94.79 389.596 95.69ZM387.904 95.348C387.904 94.724 387.766 94.19 387.49 93.746C387.214 93.29 386.836 92.948 386.356 92.72C385.888 92.48 385.366 92.36 384.79 92.36C383.962 92.36 383.254 92.624 382.666 93.152C382.09 93.68 381.76 94.412 381.676 95.348H387.904ZM390.787 96.032C390.787 95.024 390.991 94.142 391.399 93.386C391.807 92.618 392.365 92.024 393.073 91.604C393.793 91.184 394.597 90.974 395.485 90.974C396.253 90.974 396.967 91.154 397.627 91.514C398.287 91.862 398.791 92.324 399.139 92.9V87.68H400.795V101H399.139V99.146C398.815 99.734 398.335 100.22 397.699 100.604C397.063 100.976 396.319 101.162 395.467 101.162C394.591 101.162 393.793 100.946 393.073 100.514C392.365 100.082 391.807 99.476 391.399 98.696C390.991 97.916 390.787 97.028 390.787 96.032ZM399.139 96.05C399.139 95.306 398.989 94.658 398.689 94.106C398.389 93.554 397.981 93.134 397.465 92.846C396.961 92.546 396.403 92.396 395.791 92.396C395.179 92.396 394.621 92.54 394.117 92.828C393.613 93.116 393.211 93.536 392.911 94.088C392.611 94.64 392.461 95.288 392.461 96.032C392.461 96.788 392.611 97.448 392.911 98.012C393.211 98.564 393.613 98.99 394.117 99.29C394.621 99.578 395.179 99.722 395.791 99.722C396.403 99.722 396.961 99.578 397.465 99.29C397.981 98.99 398.389 98.564 398.689 98.012C398.989 97.448 399.139 96.794 399.139 96.05ZM409.279 87.68V101H407.641V87.68H409.279ZM416.013 101.162C415.089 101.162 414.249 100.952 413.493 100.532C412.749 100.112 412.161 99.518 411.729 98.75C411.309 97.97 411.099 97.07 411.099 96.05C411.099 95.042 411.315 94.154 411.747 93.386C412.191 92.606 412.791 92.012 413.547 91.604C414.303 91.184 415.149 90.974 416.085 90.974C417.021 90.974 417.867 91.184 418.623 91.604C419.379 92.012 419.973 92.6 420.405 93.368C420.849 94.136 421.071 95.03 421.071 96.05C421.071 97.07 420.843 97.97 420.387 98.75C419.943 99.518 419.337 100.112 418.569 100.532C417.801 100.952 416.949 101.162 416.013 101.162ZM416.013 99.722C416.601 99.722 417.153 99.584 417.669 99.308C418.185 99.032 418.599 98.618 418.911 98.066C419.235 97.514 419.397 96.842 419.397 96.05C419.397 95.258 419.241 94.586 418.929 94.034C418.617 93.482 418.209 93.074 417.705 92.81C417.201 92.534 416.655 92.396 416.067 92.396C415.467 92.396 414.915 92.534 414.411 92.81C413.919 93.074 413.523 93.482 413.223 94.034C412.923 94.586 412.773 95.258 412.773 96.05C412.773 96.854 412.917 97.532 413.205 98.084C413.505 98.636 413.901 99.05 414.393 99.326C414.885 99.59 415.425 99.722 416.013 99.722ZM422.253 96.05C422.253 95.03 422.457 94.142 422.865 93.386C423.273 92.618 423.837 92.024 424.557 91.604C425.289 91.184 426.123 90.974 427.059 90.974C428.271 90.974 429.267 91.268 430.047 91.856C430.839 92.444 431.361 93.26 431.613 94.304H429.849C429.681 93.704 429.351 93.23 428.859 92.882C428.379 92.534 427.779 92.36 427.059 92.36C426.123 92.36 425.367 92.684 424.791 93.332C424.215 93.968 423.927 94.874 423.927 96.05C423.927 97.238 424.215 98.156 424.791 98.804C425.367 99.452 426.123 99.776 427.059 99.776C427.779 99.776 428.379 99.608 428.859 99.272C429.339 98.936 429.669 98.456 429.849 97.832H431.613C431.349 98.84 430.821 99.65 430.029 100.262C429.237 100.862 428.247 101.162 427.059 101.162C426.123 101.162 425.289 100.952 424.557 100.532C423.837 100.112 423.273 99.518 422.865 98.75C422.457 97.982 422.253 97.082 422.253 96.05ZM432.826 96.032C432.826 95.024 433.03 94.142 433.438 93.386C433.846 92.618 434.404 92.024 435.112 91.604C435.832 91.184 436.63 90.974 437.506 90.974C438.37 90.974 439.12 91.16 439.756 91.532C440.392 91.904 440.866 92.372 441.178 92.936V91.136H442.834V101H441.178V99.164C440.854 99.74 440.368 100.22 439.72 100.604C439.084 100.976 438.34 101.162 437.488 101.162C436.612 101.162 435.82 100.946 435.112 100.514C434.404 100.082 433.846 99.476 433.438 98.696C433.03 97.916 432.826 97.028 432.826 96.032ZM441.178 96.05C441.178 95.306 441.028 94.658 440.728 94.106C440.428 93.554 440.02 93.134 439.504 92.846C439 92.546 438.442 92.396 437.83 92.396C437.218 92.396 436.66 92.54 436.156 92.828C435.652 93.116 435.25 93.536 434.95 94.088C434.65 94.64 434.5 95.288 434.5 96.032C434.5 96.788 434.65 97.448 434.95 98.012C435.25 98.564 435.652 98.99 436.156 99.29C436.66 99.578 437.218 99.722 437.83 99.722C438.442 99.722 439 99.578 439.504 99.29C440.02 98.99 440.428 98.564 440.728 98.012C441.028 97.448 441.178 96.794 441.178 96.05ZM447.24 92.486V98.3C447.24 98.78 447.342 99.122 447.546 99.326C447.75 99.518 448.104 99.614 448.608 99.614H449.814V101H448.338C447.426 101 446.742 100.79 446.286 100.37C445.83 99.95 445.602 99.26 445.602 98.3V92.486H444.324V91.136H445.602V88.652H447.24V91.136H449.814V92.486H447.24ZM452.285 89.534C451.973 89.534 451.709 89.426 451.493 89.21C451.277 88.994 451.169 88.73 451.169 88.418C451.169 88.106 451.277 87.842 451.493 87.626C451.709 87.41 451.973 87.302 452.285 87.302C452.585 87.302 452.837 87.41 453.041 87.626C453.257 87.842 453.365 88.106 453.365 88.418C453.365 88.73 453.257 88.994 453.041 89.21C452.837 89.426 452.585 89.534 452.285 89.534ZM453.077 91.136V101H451.439V91.136H453.077ZM459.811 101.162C458.887 101.162 458.047 100.952 457.291 100.532C456.547 100.112 455.959 99.518 455.527 98.75C455.107 97.97 454.897 97.07 454.897 96.05C454.897 95.042 455.113 94.154 455.545 93.386C455.989 92.606 456.589 92.012 457.345 91.604C458.101 91.184 458.947 90.974 459.883 90.974C460.819 90.974 461.665 91.184 462.421 91.604C463.177 92.012 463.771 92.6 464.203 93.368C464.647 94.136 464.869 95.03 464.869 96.05C464.869 97.07 464.641 97.97 464.185 98.75C463.741 99.518 463.135 100.112 462.367 100.532C461.599 100.952 460.747 101.162 459.811 101.162ZM459.811 99.722C460.399 99.722 460.951 99.584 461.467 99.308C461.983 99.032 462.397 98.618 462.709 98.066C463.033 97.514 463.195 96.842 463.195 96.05C463.195 95.258 463.039 94.586 462.727 94.034C462.415 93.482 462.007 93.074 461.503 92.81C460.999 92.534 460.453 92.396 459.865 92.396C459.265 92.396 458.713 92.534 458.209 92.81C457.717 93.074 457.321 93.482 457.021 94.034C456.721 94.586 456.571 95.258 456.571 96.05C456.571 96.854 456.715 97.532 457.003 98.084C457.303 98.636 457.699 99.05 458.191 99.326C458.683 99.59 459.223 99.722 459.811 99.722ZM471.468 90.956C472.668 90.956 473.64 91.322 474.384 92.054C475.128 92.774 475.5 93.818 475.5 95.186V101H473.88V95.42C473.88 94.436 473.634 93.686 473.142 93.17C472.65 92.642 471.978 92.378 471.126 92.378C470.262 92.378 469.572 92.648 469.056 93.188C468.552 93.728 468.3 94.514 468.3 95.546V101H466.662V91.136H468.3V92.54C468.624 92.036 469.062 91.646 469.614 91.37C470.178 91.094 470.796 90.956 471.468 90.956ZM481.643 96.032C481.643 95.024 481.847 94.142 482.255 93.386C482.663 92.618 483.221 92.024 483.929 91.604C484.649 91.184 485.447 90.974 486.323 90.974C487.187 90.974 487.937 91.16 488.573 91.532C489.209 91.904 489.683 92.372 489.995 92.936V91.136H491.651V101H489.995V99.164C489.671 99.74 489.185 100.22 488.537 100.604C487.901 100.976 487.157 101.162 486.305 101.162C485.429 101.162 484.637 100.946 483.929 100.514C483.221 100.082 482.663 99.476 482.255 98.696C481.847 97.916 481.643 97.028 481.643 96.032ZM489.995 96.05C489.995 95.306 489.845 94.658 489.545 94.106C489.245 93.554 488.837 93.134 488.321 92.846C487.817 92.546 487.259 92.396 486.647 92.396C486.035 92.396 485.477 92.54 484.973 92.828C484.469 93.116 484.067 93.536 483.767 94.088C483.467 94.64 483.317 95.288 483.317 96.032C483.317 96.788 483.467 97.448 483.767 98.012C484.067 98.564 484.469 98.99 484.973 99.29C485.477 99.578 486.035 99.722 486.647 99.722C487.259 99.722 487.817 99.578 488.321 99.29C488.837 98.99 489.245 98.564 489.545 98.012C489.845 97.448 489.995 96.794 489.995 96.05ZM498.865 90.956C500.065 90.956 501.037 91.322 501.781 92.054C502.525 92.774 502.897 93.818 502.897 95.186V101H501.277V95.42C501.277 94.436 501.031 93.686 500.539 93.17C500.047 92.642 499.375 92.378 498.523 92.378C497.659 92.378 496.969 92.648 496.453 93.188C495.949 93.728 495.697 94.514 495.697 95.546V101H494.059V91.136H495.697V92.54C496.021 92.036 496.459 91.646 497.011 91.37C497.575 91.094 498.193 90.956 498.865 90.956ZM504.601 96.032C504.601 95.024 504.805 94.142 505.213 93.386C505.621 92.618 506.179 92.024 506.887 91.604C507.607 91.184 508.411 90.974 509.299 90.974C510.067 90.974 510.781 91.154 511.441 91.514C512.101 91.862 512.605 92.324 512.953 92.9V87.68H514.609V101H512.953V99.146C512.629 99.734 512.149 100.22 511.513 100.604C510.877 100.976 510.133 101.162 509.281 101.162C508.405 101.162 507.607 100.946 506.887 100.514C506.179 100.082 505.621 99.476 505.213 98.696C504.805 97.916 504.601 97.028 504.601 96.032ZM512.953 96.05C512.953 95.306 512.803 94.658 512.503 94.106C512.203 93.554 511.795 93.134 511.279 92.846C510.775 92.546 510.217 92.396 509.605 92.396C508.993 92.396 508.435 92.54 507.931 92.828C507.427 93.116 507.025 93.536 506.725 94.088C506.425 94.64 506.275 95.288 506.275 96.032C506.275 96.788 506.425 97.448 506.725 98.012C507.025 98.564 507.427 98.99 507.931 99.29C508.435 99.578 508.993 99.722 509.605 99.722C510.217 99.722 510.775 99.578 511.279 99.29C511.795 98.99 512.203 98.564 512.503 98.012C512.803 97.448 512.953 96.794 512.953 96.05ZM116.386 124.69C116.386 125.002 116.368 125.332 116.332 125.68H108.448C108.508 126.652 108.838 127.414 109.438 127.966C110.05 128.506 110.788 128.776 111.652 128.776C112.36 128.776 112.948 128.614 113.416 128.29C113.896 127.954 114.232 127.51 114.424 126.958H116.188C115.924 127.906 115.396 128.68 114.604 129.28C113.812 129.868 112.828 130.162 111.652 130.162C110.716 130.162 109.876 129.952 109.132 129.532C108.4 129.112 107.824 128.518 107.404 127.75C106.984 126.97 106.774 126.07 106.774 125.05C106.774 124.03 106.978 123.136 107.386 122.368C107.794 121.6 108.364 121.012 109.096 120.604C109.84 120.184 110.692 119.974 111.652 119.974C112.588 119.974 113.416 120.178 114.136 120.586C114.856 120.994 115.408 121.558 115.792 122.278C116.188 122.986 116.386 123.79 116.386 124.69ZM114.694 124.348C114.694 123.724 114.556 123.19 114.28 122.746C114.004 122.29 113.626 121.948 113.146 121.72C112.678 121.48 112.156 121.36 111.58 121.36C110.752 121.36 110.044 121.624 109.456 122.152C108.88 122.68 108.55 123.412 108.466 124.348H114.694ZM122.994 119.956C124.194 119.956 125.166 120.322 125.91 121.054C126.654 121.774 127.026 122.818 127.026 124.186V130H125.406V124.42C125.406 123.436 125.16 122.686 124.668 122.17C124.176 121.642 123.504 121.378 122.652 121.378C121.788 121.378 121.098 121.648 120.582 122.188C120.078 122.728 119.826 123.514 119.826 124.546V130H118.188V120.136H119.826V121.54C120.15 121.036 120.588 120.646 121.14 120.37C121.704 120.094 122.322 119.956 122.994 119.956ZM130.224 118.534C129.912 118.534 129.648 118.426 129.432 118.21C129.228 117.994 129.126 117.73 129.126 117.418C129.126 117.106 129.228 116.842 129.432 116.626C129.648 116.41 129.912 116.302 130.224 116.302C130.536 116.302 130.794 116.41 130.998 116.626C131.214 116.842 131.322 117.106 131.322 117.418C131.322 117.73 131.214 117.994 130.998 118.21C130.794 118.426 130.536 118.534 130.224 118.534ZM131.034 132.142C131.034 133.018 130.812 133.66 130.368 134.068C129.924 134.476 129.276 134.68 128.424 134.68H127.47V133.294H128.154C128.61 133.294 128.928 133.204 129.108 133.024C129.3 132.844 129.396 132.538 129.396 132.106V120.136H131.034V132.142ZM137.749 130.162C136.825 130.162 135.985 129.952 135.229 129.532C134.485 129.112 133.897 128.518 133.465 127.75C133.045 126.97 132.835 126.07 132.835 125.05C132.835 124.042 133.051 123.154 133.483 122.386C133.927 121.606 134.527 121.012 135.283 120.604C136.039 120.184 136.885 119.974 137.821 119.974C138.757 119.974 139.603 120.184 140.359 120.604C141.115 121.012 141.709 121.6 142.141 122.368C142.585 123.136 142.807 124.03 142.807 125.05C142.807 126.07 142.579 126.97 142.123 127.75C141.679 128.518 141.073 129.112 140.305 129.532C139.537 129.952 138.685 130.162 137.749 130.162ZM137.749 128.722C138.337 128.722 138.889 128.584 139.405 128.308C139.921 128.032 140.335 127.618 140.647 127.066C140.971 126.514 141.133 125.842 141.133 125.05C141.133 124.258 140.977 123.586 140.665 123.034C140.353 122.482 139.945 122.074 139.441 121.81C138.937 121.534 138.391 121.396 137.803 121.396C137.203 121.396 136.651 121.534 136.147 121.81C135.655 122.074 135.259 122.482 134.959 123.034C134.659 123.586 134.509 124.258 134.509 125.05C134.509 125.854 134.653 126.532 134.941 127.084C135.241 127.636 135.637 128.05 136.129 128.326C136.621 128.59 137.161 128.722 137.749 128.722ZM153.096 120.136L147.156 134.644H145.464L147.408 129.892L143.43 120.136H145.248L148.344 128.128L151.404 120.136H153.096ZM167.318 120.136L161.378 134.644H159.686L161.63 129.892L157.652 120.136H159.47L162.566 128.128L165.626 120.136H167.318ZM172.906 130.162C171.982 130.162 171.142 129.952 170.386 129.532C169.642 129.112 169.054 128.518 168.622 127.75C168.202 126.97 167.992 126.07 167.992 125.05C167.992 124.042 168.208 123.154 168.64 122.386C169.084 121.606 169.684 121.012 170.44 120.604C171.196 120.184 172.042 119.974 172.978 119.974C173.914 119.974 174.76 120.184 175.516 120.604C176.272 121.012 176.866 121.6 177.298 122.368C177.742 123.136 177.964 124.03 177.964 125.05C177.964 126.07 177.736 126.97 177.28 127.75C176.836 128.518 176.23 129.112 175.462 129.532C174.694 129.952 173.842 130.162 172.906 130.162ZM172.906 128.722C173.494 128.722 174.046 128.584 174.562 128.308C175.078 128.032 175.492 127.618 175.804 127.066C176.128 126.514 176.29 125.842 176.29 125.05C176.29 124.258 176.134 123.586 175.822 123.034C175.51 122.482 175.102 122.074 174.598 121.81C174.094 121.534 173.548 121.396 172.96 121.396C172.36 121.396 171.808 121.534 171.304 121.81C170.812 122.074 170.416 122.482 170.116 123.034C169.816 123.586 169.666 124.258 169.666 125.05C169.666 125.854 169.81 126.532 170.098 127.084C170.398 127.636 170.794 128.05 171.286 128.326C171.778 128.59 172.318 128.722 172.906 128.722ZM188.506 120.136V130H186.868V128.542C186.556 129.046 186.118 129.442 185.554 129.73C185.002 130.006 184.39 130.144 183.718 130.144C182.95 130.144 182.26 129.988 181.648 129.676C181.036 129.352 180.55 128.872 180.19 128.236C179.842 127.6 179.668 126.826 179.668 125.914V120.136H181.288V125.698C181.288 126.67 181.534 127.42 182.026 127.948C182.518 128.464 183.19 128.722 184.042 128.722C184.918 128.722 185.608 128.452 186.112 127.912C186.616 127.372 186.868 126.586 186.868 125.554V120.136H188.506ZM192.55 121.738C192.838 121.174 193.246 120.736 193.774 120.424C194.314 120.112 194.968 119.956 195.736 119.956V121.648H195.304C193.468 121.648 192.55 122.644 192.55 124.636V130H190.912V120.136H192.55V121.738ZM203.343 121.954C203.667 121.39 204.147 120.922 204.783 120.55C205.431 120.166 206.181 119.974 207.033 119.974C207.909 119.974 208.701 120.184 209.409 120.604C210.129 121.024 210.693 121.618 211.101 122.386C211.509 123.142 211.713 124.024 211.713 125.032C211.713 126.028 211.509 126.916 211.101 127.696C210.693 128.476 210.129 129.082 209.409 129.514C208.701 129.946 207.909 130.162 207.033 130.162C206.193 130.162 205.449 129.976 204.801 129.604C204.165 129.22 203.679 128.746 203.343 128.182V134.68H201.705V120.136H203.343V121.954ZM210.039 125.032C210.039 124.288 209.889 123.64 209.589 123.088C209.289 122.536 208.881 122.116 208.365 121.828C207.861 121.54 207.303 121.396 206.691 121.396C206.091 121.396 205.533 121.546 205.017 121.846C204.513 122.134 204.105 122.56 203.793 123.124C203.493 123.676 203.343 124.318 203.343 125.05C203.343 125.794 203.493 126.448 203.793 127.012C204.105 127.564 204.513 127.99 205.017 128.29C205.533 128.578 206.091 128.722 206.691 128.722C207.303 128.722 207.861 128.578 208.365 128.29C208.881 127.99 209.289 127.564 209.589 127.012C209.889 126.448 210.039 125.788 210.039 125.032ZM215.147 121.738C215.435 121.174 215.843 120.736 216.371 120.424C216.911 120.112 217.565 119.956 218.333 119.956V121.648H217.901C216.065 121.648 215.147 122.644 215.147 124.636V130H213.509V120.136H215.147V121.738ZM228.864 124.69C228.864 125.002 228.846 125.332 228.81 125.68H220.926C220.986 126.652 221.316 127.414 221.916 127.966C222.528 128.506 223.266 128.776 224.13 128.776C224.838 128.776 225.426 128.614 225.894 128.29C226.374 127.954 226.71 127.51 226.902 126.958H228.666C228.402 127.906 227.874 128.68 227.082 129.28C226.29 129.868 225.306 130.162 224.13 130.162C223.194 130.162 222.354 129.952 221.61 129.532C220.878 129.112 220.302 128.518 219.882 127.75C219.462 126.97 219.252 126.07 219.252 125.05C219.252 124.03 219.456 123.136 219.864 122.368C220.272 121.6 220.842 121.012 221.574 120.604C222.318 120.184 223.17 119.974 224.13 119.974C225.066 119.974 225.894 120.178 226.614 120.586C227.334 120.994 227.886 121.558 228.27 122.278C228.666 122.986 228.864 123.79 228.864 124.69ZM227.172 124.348C227.172 123.724 227.034 123.19 226.758 122.746C226.482 122.29 226.104 121.948 225.624 121.72C225.156 121.48 224.634 121.36 224.058 121.36C223.23 121.36 222.522 121.624 221.934 122.152C221.358 122.68 221.028 123.412 220.944 124.348H227.172ZM242.528 119.956C243.296 119.956 243.98 120.118 244.58 120.442C245.18 120.754 245.654 121.228 246.002 121.864C246.35 122.5 246.524 123.274 246.524 124.186V130H244.904V124.42C244.904 123.436 244.658 122.686 244.166 122.17C243.686 121.642 243.032 121.378 242.204 121.378C241.352 121.378 240.674 121.654 240.17 122.206C239.666 122.746 239.414 123.532 239.414 124.564V130H237.794V124.42C237.794 123.436 237.548 122.686 237.056 122.17C236.576 121.642 235.922 121.378 235.094 121.378C234.242 121.378 233.564 121.654 233.06 122.206C232.556 122.746 232.304 123.532 232.304 124.564V130H230.666V120.136H232.304V121.558C232.628 121.042 233.06 120.646 233.6 120.37C234.152 120.094 234.758 119.956 235.418 119.956C236.246 119.956 236.978 120.142 237.614 120.514C238.25 120.886 238.724 121.432 239.036 122.152C239.312 121.456 239.768 120.916 240.404 120.532C241.04 120.148 241.748 119.956 242.528 119.956ZM249.697 118.534C249.385 118.534 249.121 118.426 248.905 118.21C248.689 117.994 248.581 117.73 248.581 117.418C248.581 117.106 248.689 116.842 248.905 116.626C249.121 116.41 249.385 116.302 249.697 116.302C249.997 116.302 250.249 116.41 250.453 116.626C250.669 116.842 250.777 117.106 250.777 117.418C250.777 117.73 250.669 117.994 250.453 118.21C250.249 118.426 249.997 118.534 249.697 118.534ZM250.489 120.136V130H248.851V120.136H250.489ZM261.669 120.136V130H260.031V128.542C259.719 129.046 259.281 129.442 258.717 129.73C258.165 130.006 257.553 130.144 256.881 130.144C256.113 130.144 255.423 129.988 254.811 129.676C254.199 129.352 253.713 128.872 253.353 128.236C253.005 127.6 252.831 126.826 252.831 125.914V120.136H254.451V125.698C254.451 126.67 254.697 127.42 255.189 127.948C255.681 128.464 256.353 128.722 257.205 128.722C258.081 128.722 258.771 128.452 259.275 127.912C259.779 127.372 260.031 126.586 260.031 125.554V120.136H261.669ZM275.937 119.956C276.705 119.956 277.389 120.118 277.989 120.442C278.589 120.754 279.063 121.228 279.411 121.864C279.759 122.5 279.933 123.274 279.933 124.186V130H278.313V124.42C278.313 123.436 278.067 122.686 277.575 122.17C277.095 121.642 276.441 121.378 275.613 121.378C274.761 121.378 274.083 121.654 273.579 122.206C273.075 122.746 272.823 123.532 272.823 124.564V130H271.203V124.42C271.203 123.436 270.957 122.686 270.465 122.17C269.985 121.642 269.331 121.378 268.503 121.378C267.651 121.378 266.973 121.654 266.469 122.206C265.965 122.746 265.713 123.532 265.713 124.564V130H264.075V120.136H265.713V121.558C266.037 121.042 266.469 120.646 267.009 120.37C267.561 120.094 268.167 119.956 268.827 119.956C269.655 119.956 270.387 120.142 271.023 120.514C271.659 120.886 272.133 121.432 272.445 122.152C272.721 121.456 273.177 120.916 273.813 120.532C274.449 120.148 275.157 119.956 275.937 119.956ZM286.086 125.032C286.086 124.024 286.29 123.142 286.698 122.386C287.106 121.618 287.664 121.024 288.372 120.604C289.092 120.184 289.896 119.974 290.784 119.974C291.552 119.974 292.266 120.154 292.926 120.514C293.586 120.862 294.09 121.324 294.438 121.9V116.68H296.094V130H294.438V128.146C294.114 128.734 293.634 129.22 292.998 129.604C292.362 129.976 291.618 130.162 290.766 130.162C289.89 130.162 289.092 129.946 288.372 129.514C287.664 129.082 287.106 128.476 286.698 127.696C286.29 126.916 286.086 126.028 286.086 125.032ZM294.438 125.05C294.438 124.306 294.288 123.658 293.988 123.106C293.688 122.554 293.28 122.134 292.764 121.846C292.26 121.546 291.702 121.396 291.09 121.396C290.478 121.396 289.92 121.54 289.416 121.828C288.912 122.116 288.51 122.536 288.21 123.088C287.91 123.64 287.76 124.288 287.76 125.032C287.76 125.788 287.91 126.448 288.21 127.012C288.51 127.564 288.912 127.99 289.416 128.29C289.92 128.578 290.478 128.722 291.09 128.722C291.702 128.722 292.26 128.578 292.764 128.29C293.28 127.99 293.688 127.564 293.988 127.012C294.288 126.448 294.438 125.794 294.438 125.05ZM300.14 121.738C300.428 121.174 300.836 120.736 301.364 120.424C301.904 120.112 302.558 119.956 303.326 119.956V121.648H302.894C301.058 121.648 300.14 122.644 300.14 124.636V130H298.502V120.136H300.14V121.738ZM305.703 118.534C305.391 118.534 305.127 118.426 304.911 118.21C304.695 117.994 304.587 117.73 304.587 117.418C304.587 117.106 304.695 116.842 304.911 116.626C305.127 116.41 305.391 116.302 305.703 116.302C306.003 116.302 306.255 116.41 306.459 116.626C306.675 116.842 306.783 117.106 306.783 117.418C306.783 117.73 306.675 117.994 306.459 118.21C306.255 118.426 306.003 118.534 305.703 118.534ZM306.495 120.136V130H304.857V120.136H306.495ZM312.599 128.488L315.659 120.136H317.405L313.535 130H311.627L307.757 120.136H309.521L312.599 128.488ZM319.503 118.534C319.191 118.534 318.927 118.426 318.711 118.21C318.495 117.994 318.387 117.73 318.387 117.418C318.387 117.106 318.495 116.842 318.711 116.626C318.927 116.41 319.191 116.302 319.503 116.302C319.803 116.302 320.055 116.41 320.259 116.626C320.475 116.842 320.583 117.106 320.583 117.418C320.583 117.73 320.475 117.994 320.259 118.21C320.055 118.426 319.803 118.534 319.503 118.534ZM320.295 120.136V130H318.657V120.136H320.295ZM327.532 119.956C328.732 119.956 329.704 120.322 330.448 121.054C331.192 121.774 331.564 122.818 331.564 124.186V130H329.944V124.42C329.944 123.436 329.698 122.686 329.206 122.17C328.714 121.642 328.042 121.378 327.19 121.378C326.326 121.378 325.636 121.648 325.12 122.188C324.616 122.728 324.364 123.514 324.364 124.546V130H322.726V120.136H324.364V121.54C324.688 121.036 325.126 120.646 325.678 120.37C326.242 120.094 326.86 119.956 327.532 119.956ZM337.948 119.974C338.8 119.974 339.544 120.16 340.18 120.532C340.828 120.904 341.308 121.372 341.62 121.936V120.136H343.276V130.216C343.276 131.116 343.084 131.914 342.7 132.61C342.316 133.318 341.764 133.87 341.044 134.266C340.336 134.662 339.508 134.86 338.56 134.86C337.264 134.86 336.184 134.554 335.32 133.942C334.456 133.33 333.946 132.496 333.79 131.44H335.41C335.59 132.04 335.962 132.52 336.526 132.88C337.09 133.252 337.768 133.438 338.56 133.438C339.46 133.438 340.192 133.156 340.756 132.592C341.332 132.028 341.62 131.236 341.62 130.216V128.146C341.296 128.722 340.816 129.202 340.18 129.586C339.544 129.97 338.8 130.162 337.948 130.162C337.072 130.162 336.274 129.946 335.554 129.514C334.846 129.082 334.288 128.476 333.88 127.696C333.472 126.916 333.268 126.028 333.268 125.032C333.268 124.024 333.472 123.142 333.88 122.386C334.288 121.618 334.846 121.024 335.554 120.604C336.274 120.184 337.072 119.974 337.948 119.974ZM341.62 125.05C341.62 124.306 341.47 123.658 341.17 123.106C340.87 122.554 340.462 122.134 339.946 121.846C339.442 121.546 338.884 121.396 338.272 121.396C337.66 121.396 337.102 121.54 336.598 121.828C336.094 122.116 335.692 122.536 335.392 123.088C335.092 123.64 334.942 124.288 334.942 125.032C334.942 125.788 335.092 126.448 335.392 127.012C335.692 127.564 336.094 127.99 336.598 128.29C337.102 128.578 337.66 128.722 338.272 128.722C338.884 128.722 339.442 128.578 339.946 128.29C340.462 127.99 340.87 127.564 341.17 127.012C341.47 126.448 341.62 125.794 341.62 125.05ZM359.123 124.69C359.123 125.002 359.105 125.332 359.069 125.68H351.185C351.245 126.652 351.575 127.414 352.175 127.966C352.787 128.506 353.525 128.776 354.389 128.776C355.097 128.776 355.685 128.614 356.153 128.29C356.633 127.954 356.969 127.51 357.161 126.958H358.925C358.661 127.906 358.133 128.68 357.341 129.28C356.549 129.868 355.565 130.162 354.389 130.162C353.453 130.162 352.613 129.952 351.869 129.532C351.137 129.112 350.561 128.518 350.141 127.75C349.721 126.97 349.511 126.07 349.511 125.05C349.511 124.03 349.715 123.136 350.123 122.368C350.531 121.6 351.101 121.012 351.833 120.604C352.577 120.184 353.429 119.974 354.389 119.974C355.325 119.974 356.153 120.178 356.873 120.586C357.593 120.994 358.145 121.558 358.529 122.278C358.925 122.986 359.123 123.79 359.123 124.69ZM357.431 124.348C357.431 123.724 357.293 123.19 357.017 122.746C356.741 122.29 356.363 121.948 355.883 121.72C355.415 121.48 354.893 121.36 354.317 121.36C353.489 121.36 352.781 121.624 352.193 122.152C351.617 122.68 351.287 123.412 351.203 124.348H357.431ZM366.073 130L363.733 126.328L361.483 130H359.773L362.959 125.104L359.773 120.136H361.627L363.967 123.79L366.199 120.136H367.909L364.741 125.014L367.927 130H366.073ZM370.816 121.954C371.14 121.39 371.62 120.922 372.256 120.55C372.904 120.166 373.654 119.974 374.506 119.974C375.382 119.974 376.174 120.184 376.882 120.604C377.602 121.024 378.166 121.618 378.574 122.386C378.982 123.142 379.186 124.024 379.186 125.032C379.186 126.028 378.982 126.916 378.574 127.696C378.166 128.476 377.602 129.082 376.882 129.514C376.174 129.946 375.382 130.162 374.506 130.162C373.666 130.162 372.922 129.976 372.274 129.604C371.638 129.22 371.152 128.746 370.816 128.182V134.68H369.178V120.136H370.816V121.954ZM377.512 125.032C377.512 124.288 377.362 123.64 377.062 123.088C376.762 122.536 376.354 122.116 375.838 121.828C375.334 121.54 374.776 121.396 374.164 121.396C373.564 121.396 373.006 121.546 372.49 121.846C371.986 122.134 371.578 122.56 371.266 123.124C370.966 123.676 370.816 124.318 370.816 125.05C370.816 125.794 370.966 126.448 371.266 127.012C371.578 127.564 371.986 127.99 372.49 128.29C373.006 128.578 373.564 128.722 374.164 128.722C374.776 128.722 375.334 128.578 375.838 128.29C376.354 127.99 376.762 127.564 377.062 127.012C377.362 126.448 377.512 125.788 377.512 125.032ZM389.982 124.69C389.982 125.002 389.964 125.332 389.928 125.68H382.044C382.104 126.652 382.434 127.414 383.034 127.966C383.646 128.506 384.384 128.776 385.248 128.776C385.956 128.776 386.544 128.614 387.012 128.29C387.492 127.954 387.828 127.51 388.02 126.958H389.784C389.52 127.906 388.992 128.68 388.2 129.28C387.408 129.868 386.424 130.162 385.248 130.162C384.312 130.162 383.472 129.952 382.728 129.532C381.996 129.112 381.42 128.518 381 127.75C380.58 126.97 380.37 126.07 380.37 125.05C380.37 124.03 380.574 123.136 380.982 122.368C381.39 121.6 381.96 121.012 382.692 120.604C383.436 120.184 384.288 119.974 385.248 119.974C386.184 119.974 387.012 120.178 387.732 120.586C388.452 120.994 389.004 121.558 389.388 122.278C389.784 122.986 389.982 123.79 389.982 124.69ZM388.29 124.348C388.29 123.724 388.152 123.19 387.876 122.746C387.6 122.29 387.222 121.948 386.742 121.72C386.274 121.48 385.752 121.36 385.176 121.36C384.348 121.36 383.64 121.624 383.052 122.152C382.476 122.68 382.146 123.412 382.062 124.348H388.29ZM393.423 121.738C393.711 121.174 394.119 120.736 394.647 120.424C395.187 120.112 395.841 119.956 396.609 119.956V121.648H396.177C394.341 121.648 393.423 122.644 393.423 124.636V130H391.785V120.136H393.423V121.738ZM398.985 118.534C398.673 118.534 398.409 118.426 398.193 118.21C397.977 117.994 397.869 117.73 397.869 117.418C397.869 117.106 397.977 116.842 398.193 116.626C398.409 116.41 398.673 116.302 398.985 116.302C399.285 116.302 399.537 116.41 399.741 116.626C399.957 116.842 400.065 117.106 400.065 117.418C400.065 117.73 399.957 117.994 399.741 118.21C399.537 118.426 399.285 118.534 398.985 118.534ZM399.777 120.136V130H398.139V120.136H399.777ZM411.209 124.69C411.209 125.002 411.191 125.332 411.155 125.68H403.271C403.331 126.652 403.661 127.414 404.261 127.966C404.873 128.506 405.611 128.776 406.475 128.776C407.183 128.776 407.771 128.614 408.239 128.29C408.719 127.954 409.055 127.51 409.247 126.958H411.011C410.747 127.906 410.219 128.68 409.427 129.28C408.635 129.868 407.651 130.162 406.475 130.162C405.539 130.162 404.699 129.952 403.955 129.532C403.223 129.112 402.647 128.518 402.227 127.75C401.807 126.97 401.597 126.07 401.597 125.05C401.597 124.03 401.801 123.136 402.209 122.368C402.617 121.6 403.187 121.012 403.919 120.604C404.663 120.184 405.515 119.974 406.475 119.974C407.411 119.974 408.239 120.178 408.959 120.586C409.679 120.994 410.231 121.558 410.615 122.278C411.011 122.986 411.209 123.79 411.209 124.69ZM409.517 124.348C409.517 123.724 409.379 123.19 409.103 122.746C408.827 122.29 408.449 121.948 407.969 121.72C407.501 121.48 406.979 121.36 406.403 121.36C405.575 121.36 404.867 121.624 404.279 122.152C403.703 122.68 403.373 123.412 403.289 124.348H409.517ZM417.817 119.956C419.017 119.956 419.989 120.322 420.733 121.054C421.477 121.774 421.849 122.818 421.849 124.186V130H420.229V124.42C420.229 123.436 419.983 122.686 419.491 122.17C418.999 121.642 418.327 121.378 417.475 121.378C416.611 121.378 415.921 121.648 415.405 122.188C414.901 122.728 414.649 123.514 414.649 124.546V130H413.011V120.136H414.649V121.54C414.973 121.036 415.411 120.646 415.963 120.37C416.527 120.094 417.145 119.956 417.817 119.956ZM423.553 125.05C423.553 124.03 423.757 123.142 424.165 122.386C424.573 121.618 425.137 121.024 425.857 120.604C426.589 120.184 427.423 119.974 428.359 119.974C429.571 119.974 430.567 120.268 431.347 120.856C432.139 121.444 432.661 122.26 432.913 123.304H431.149C430.981 122.704 430.651 122.23 430.159 121.882C429.679 121.534 429.079 121.36 428.359 121.36C427.423 121.36 426.667 121.684 426.091 122.332C425.515 122.968 425.227 123.874 425.227 125.05C425.227 126.238 425.515 127.156 426.091 127.804C426.667 128.452 427.423 128.776 428.359 128.776C429.079 128.776 429.679 128.608 430.159 128.272C430.639 127.936 430.969 127.456 431.149 126.832H432.913C432.649 127.84 432.121 128.65 431.329 129.262C430.537 129.862 429.547 130.162 428.359 130.162C427.423 130.162 426.589 129.952 425.857 129.532C425.137 129.112 424.573 128.518 424.165 127.75C423.757 126.982 423.553 126.082 423.553 125.05ZM443.739 124.69C443.739 125.002 443.721 125.332 443.685 125.68H435.801C435.861 126.652 436.191 127.414 436.791 127.966C437.403 128.506 438.141 128.776 439.005 128.776C439.713 128.776 440.301 128.614 440.769 128.29C441.249 127.954 441.585 127.51 441.777 126.958H443.541C443.277 127.906 442.749 128.68 441.957 129.28C441.165 129.868 440.181 130.162 439.005 130.162C438.069 130.162 437.229 129.952 436.485 129.532C435.753 129.112 435.177 128.518 434.757 127.75C434.337 126.97 434.127 126.07 434.127 125.05C434.127 124.03 434.331 123.136 434.739 122.368C435.147 121.6 435.717 121.012 436.449 120.604C437.193 120.184 438.045 119.974 439.005 119.974C439.941 119.974 440.769 120.178 441.489 120.586C442.209 120.994 442.761 121.558 443.145 122.278C443.541 122.986 443.739 123.79 443.739 124.69ZM442.047 124.348C442.047 123.724 441.909 123.19 441.633 122.746C441.357 122.29 440.979 121.948 440.499 121.72C440.031 121.48 439.509 121.36 438.933 121.36C438.105 121.36 437.397 121.624 436.809 122.152C436.233 122.68 435.903 123.412 435.819 124.348H442.047ZM463.119 120.136L460.041 130H458.349L455.973 122.17L453.597 130H451.905L448.809 120.136H450.483L452.751 128.416L455.199 120.136H456.873L459.267 128.434L461.499 120.136H463.119ZM465.231 118.534C464.919 118.534 464.655 118.426 464.439 118.21C464.223 117.994 464.115 117.73 464.115 117.418C464.115 117.106 464.223 116.842 464.439 116.626C464.655 116.41 464.919 116.302 465.231 116.302C465.531 116.302 465.783 116.41 465.987 116.626C466.203 116.842 466.311 117.106 466.311 117.418C466.311 117.73 466.203 117.994 465.987 118.21C465.783 118.426 465.531 118.534 465.231 118.534ZM466.023 120.136V130H464.385V120.136H466.023ZM470.453 121.486V127.3C470.453 127.78 470.555 128.122 470.759 128.326C470.963 128.518 471.317 128.614 471.821 128.614H473.027V130H471.551C470.639 130 469.955 129.79 469.499 129.37C469.043 128.95 468.815 128.26 468.815 127.3V121.486H467.537V120.136H468.815V117.652H470.453V120.136H473.027V121.486H470.453ZM479.547 119.956C480.291 119.956 480.963 120.118 481.563 120.442C482.163 120.754 482.631 121.228 482.967 121.864C483.315 122.5 483.489 123.274 483.489 124.186V130H481.869V124.42C481.869 123.436 481.623 122.686 481.131 122.17C480.639 121.642 479.967 121.378 479.115 121.378C478.251 121.378 477.561 121.648 477.045 122.188C476.541 122.728 476.289 123.514 476.289 124.546V130H474.651V116.68H476.289V121.54C476.613 121.036 477.057 120.646 477.621 120.37C478.197 120.094 478.839 119.956 479.547 119.956ZM494.546 130.162C493.622 130.162 492.782 129.952 492.026 129.532C491.282 129.112 490.694 128.518 490.262 127.75C489.842 126.97 489.632 126.07 489.632 125.05C489.632 124.042 489.848 123.154 490.28 122.386C490.724 121.606 491.324 121.012 492.08 120.604C492.836 120.184 493.682 119.974 494.618 119.974C495.554 119.974 496.4 120.184 497.156 120.604C497.912 121.012 498.506 121.6 498.938 122.368C499.382 123.136 499.604 124.03 499.604 125.05C499.604 126.07 499.376 126.97 498.92 127.75C498.476 128.518 497.87 129.112 497.102 129.532C496.334 129.952 495.482 130.162 494.546 130.162ZM494.546 128.722C495.134 128.722 495.686 128.584 496.202 128.308C496.718 128.032 497.132 127.618 497.444 127.066C497.768 126.514 497.93 125.842 497.93 125.05C497.93 124.258 497.774 123.586 497.462 123.034C497.15 122.482 496.742 122.074 496.238 121.81C495.734 121.534 495.188 121.396 494.6 121.396C494 121.396 493.448 121.534 492.944 121.81C492.452 122.074 492.056 122.482 491.756 123.034C491.456 123.586 491.306 124.258 491.306 125.05C491.306 125.854 491.45 126.532 491.738 127.084C492.038 127.636 492.434 128.05 492.926 128.326C493.418 128.59 493.958 128.722 494.546 128.722ZM510.146 120.136V130H508.508V128.542C508.196 129.046 507.758 129.442 507.194 129.73C506.642 130.006 506.03 130.144 505.358 130.144C504.59 130.144 503.9 129.988 503.288 129.676C502.676 129.352 502.19 128.872 501.83 128.236C501.482 127.6 501.308 126.826 501.308 125.914V120.136H502.928V125.698C502.928 126.67 503.174 127.42 503.666 127.948C504.158 128.464 504.83 128.722 505.682 128.722C506.558 128.722 507.248 128.452 507.752 127.912C508.256 127.372 508.508 126.586 508.508 125.554V120.136H510.146ZM514.189 121.738C514.477 121.174 514.885 120.736 515.413 120.424C515.953 120.112 516.607 119.956 517.375 119.956V121.648H516.943C515.107 121.648 514.189 122.644 514.189 124.636V130H512.551V120.136H514.189V121.738ZM109.384 150.486V156.3C109.384 156.78 109.486 157.122 109.69 157.326C109.894 157.518 110.248 157.614 110.752 157.614H111.958V159H110.482C109.57 159 108.886 158.79 108.43 158.37C107.974 157.95 107.746 157.26 107.746 156.3V150.486H106.468V149.136H107.746V146.652H109.384V149.136H111.958V150.486H109.384ZM117.885 159.162C116.961 159.162 116.121 158.952 115.365 158.532C114.621 158.112 114.033 157.518 113.601 156.75C113.181 155.97 112.971 155.07 112.971 154.05C112.971 153.042 113.187 152.154 113.619 151.386C114.063 150.606 114.663 150.012 115.419 149.604C116.175 149.184 117.021 148.974 117.957 148.974C118.893 148.974 119.739 149.184 120.495 149.604C121.251 150.012 121.845 150.6 122.277 151.368C122.721 152.136 122.943 153.03 122.943 154.05C122.943 155.07 122.715 155.97 122.259 156.75C121.815 157.518 121.209 158.112 120.441 158.532C119.673 158.952 118.821 159.162 117.885 159.162ZM117.885 157.722C118.473 157.722 119.025 157.584 119.541 157.308C120.057 157.032 120.471 156.618 120.783 156.066C121.107 155.514 121.269 154.842 121.269 154.05C121.269 153.258 121.113 152.586 120.801 152.034C120.489 151.482 120.081 151.074 119.577 150.81C119.073 150.534 118.527 150.396 117.939 150.396C117.339 150.396 116.787 150.534 116.283 150.81C115.791 151.074 115.395 151.482 115.095 152.034C114.795 152.586 114.645 153.258 114.645 154.05C114.645 154.854 114.789 155.532 115.077 156.084C115.377 156.636 115.773 157.05 116.265 157.326C116.757 157.59 117.297 157.722 117.885 157.722ZM126.374 150.954C126.698 150.39 127.178 149.922 127.814 149.55C128.462 149.166 129.212 148.974 130.064 148.974C130.94 148.974 131.732 149.184 132.44 149.604C133.16 150.024 133.724 150.618 134.132 151.386C134.54 152.142 134.744 153.024 134.744 154.032C134.744 155.028 134.54 155.916 134.132 156.696C133.724 157.476 133.16 158.082 132.44 158.514C131.732 158.946 130.94 159.162 130.064 159.162C129.224 159.162 128.48 158.976 127.832 158.604C127.196 158.22 126.71 157.746 126.374 157.182V163.68H124.736V149.136H126.374V150.954ZM133.07 154.032C133.07 153.288 132.92 152.64 132.62 152.088C132.32 151.536 131.912 151.116 131.396 150.828C130.892 150.54 130.334 150.396 129.722 150.396C129.122 150.396 128.564 150.546 128.048 150.846C127.544 151.134 127.136 151.56 126.824 152.124C126.524 152.676 126.374 153.318 126.374 154.05C126.374 154.794 126.524 155.448 126.824 156.012C127.136 156.564 127.544 156.99 128.048 157.29C128.564 157.578 129.122 157.722 129.722 157.722C130.334 157.722 130.892 157.578 131.396 157.29C131.912 156.99 132.32 156.564 132.62 156.012C132.92 155.448 133.07 154.788 133.07 154.032ZM143.38 151.71V153.096H136.198V151.71H143.38ZM145.482 154.032C145.482 153.024 145.686 152.142 146.094 151.386C146.502 150.618 147.06 150.024 147.768 149.604C148.488 149.184 149.292 148.974 150.18 148.974C151.032 148.974 151.776 149.166 152.412 149.55C153.06 149.922 153.534 150.384 153.834 150.936V149.136H155.49V163.68H153.834V157.182C153.522 157.734 153.042 158.202 152.394 158.586C151.746 158.97 150.99 159.162 150.126 159.162C149.262 159.162 148.476 158.946 147.768 158.514C147.06 158.082 146.502 157.476 146.094 156.696C145.686 155.916 145.482 155.028 145.482 154.032ZM153.834 154.05C153.834 153.306 153.684 152.658 153.384 152.106C153.084 151.554 152.676 151.134 152.16 150.846C151.656 150.546 151.098 150.396 150.486 150.396C149.874 150.396 149.316 150.54 148.812 150.828C148.308 151.116 147.906 151.536 147.606 152.088C147.306 152.64 147.156 153.288 147.156 154.032C147.156 154.788 147.306 155.448 147.606 156.012C147.906 156.564 148.308 156.99 148.812 157.29C149.316 157.578 149.874 157.722 150.486 157.722C151.098 157.722 151.656 157.578 152.16 157.29C152.676 156.99 153.084 156.564 153.384 156.012C153.684 155.448 153.834 154.794 153.834 154.05ZM166.647 149.136V159H165.009V157.542C164.697 158.046 164.259 158.442 163.695 158.73C163.143 159.006 162.531 159.144 161.859 159.144C161.091 159.144 160.401 158.988 159.789 158.676C159.177 158.352 158.691 157.872 158.331 157.236C157.983 156.6 157.809 155.826 157.809 154.914V149.136H159.429V154.698C159.429 155.67 159.675 156.42 160.167 156.948C160.659 157.464 161.331 157.722 162.183 157.722C163.059 157.722 163.749 157.452 164.253 156.912C164.757 156.372 165.009 155.586 165.009 154.554V149.136H166.647ZM168.44 154.032C168.44 153.024 168.644 152.142 169.052 151.386C169.46 150.618 170.018 150.024 170.726 149.604C171.446 149.184 172.244 148.974 173.12 148.974C173.984 148.974 174.734 149.16 175.37 149.532C176.006 149.904 176.48 150.372 176.792 150.936V149.136H178.448V159H176.792V157.164C176.468 157.74 175.982 158.22 175.334 158.604C174.698 158.976 173.954 159.162 173.102 159.162C172.226 159.162 171.434 158.946 170.726 158.514C170.018 158.082 169.46 157.476 169.052 156.696C168.644 155.916 168.44 155.028 168.44 154.032ZM176.792 154.05C176.792 153.306 176.642 152.658 176.342 152.106C176.042 151.554 175.634 151.134 175.118 150.846C174.614 150.546 174.056 150.396 173.444 150.396C172.832 150.396 172.274 150.54 171.77 150.828C171.266 151.116 170.864 151.536 170.564 152.088C170.264 152.64 170.114 153.288 170.114 154.032C170.114 154.788 170.264 155.448 170.564 156.012C170.864 156.564 171.266 156.99 171.77 157.29C172.274 157.578 172.832 157.722 173.444 157.722C174.056 157.722 174.614 157.578 175.118 157.29C175.634 156.99 176.042 156.564 176.342 156.012C176.642 155.448 176.792 154.794 176.792 154.05ZM182.494 145.68V159H180.856V145.68H182.494ZM185.772 147.534C185.46 147.534 185.196 147.426 184.98 147.21C184.764 146.994 184.656 146.73 184.656 146.418C184.656 146.106 184.764 145.842 184.98 145.626C185.196 145.41 185.46 145.302 185.772 145.302C186.072 145.302 186.324 145.41 186.528 145.626C186.744 145.842 186.852 146.106 186.852 146.418C186.852 146.73 186.744 146.994 186.528 147.21C186.324 147.426 186.072 147.534 185.772 147.534ZM186.564 149.136V159H184.926V149.136H186.564ZM190.994 150.486V156.3C190.994 156.78 191.096 157.122 191.3 157.326C191.504 157.518 191.858 157.614 192.362 157.614H193.568V159H192.092C191.18 159 190.496 158.79 190.04 158.37C189.584 157.95 189.356 157.26 189.356 156.3V150.486H188.078V149.136H189.356V146.652H190.994V149.136H193.568V150.486H190.994ZM203.688 149.136L197.748 163.644H196.056L198 158.892L194.022 149.136H195.84L198.936 157.128L201.996 149.136H203.688ZM212.906 159.162C212.15 159.162 211.472 159.036 210.872 158.784C210.272 158.52 209.798 158.16 209.45 157.704C209.102 157.236 208.91 156.702 208.874 156.102H210.566C210.614 156.594 210.842 156.996 211.25 157.308C211.67 157.62 212.216 157.776 212.888 157.776C213.512 157.776 214.004 157.638 214.364 157.362C214.724 157.086 214.904 156.738 214.904 156.318C214.904 155.886 214.712 155.568 214.328 155.364C213.944 155.148 213.35 154.938 212.546 154.734C211.814 154.542 211.214 154.35 210.746 154.158C210.29 153.954 209.894 153.66 209.558 153.276C209.234 152.88 209.072 152.364 209.072 151.728C209.072 151.224 209.222 150.762 209.522 150.342C209.822 149.922 210.248 149.592 210.8 149.352C211.352 149.1 211.982 148.974 212.69 148.974C213.782 148.974 214.664 149.25 215.336 149.802C216.008 150.354 216.368 151.11 216.416 152.07H214.778C214.742 151.554 214.532 151.14 214.148 150.828C213.776 150.516 213.272 150.36 212.636 150.36C212.048 150.36 211.58 150.486 211.232 150.738C210.884 150.99 210.71 151.32 210.71 151.728C210.71 152.052 210.812 152.322 211.016 152.538C211.232 152.742 211.496 152.91 211.808 153.042C212.132 153.162 212.576 153.3 213.14 153.456C213.848 153.648 214.424 153.84 214.868 154.032C215.312 154.212 215.69 154.488 216.002 154.86C216.326 155.232 216.494 155.718 216.506 156.318C216.506 156.858 216.356 157.344 216.056 157.776C215.756 158.208 215.33 158.55 214.778 158.802C214.238 159.042 213.614 159.162 212.906 159.162ZM227.458 153.69C227.458 154.002 227.44 154.332 227.404 154.68H219.52C219.58 155.652 219.91 156.414 220.51 156.966C221.122 157.506 221.86 157.776 222.724 157.776C223.432 157.776 224.02 157.614 224.488 157.29C224.968 156.954 225.304 156.51 225.496 155.958H227.26C226.996 156.906 226.468 157.68 225.676 158.28C224.884 158.868 223.9 159.162 222.724 159.162C221.788 159.162 220.948 158.952 220.204 158.532C219.472 158.112 218.896 157.518 218.476 156.75C218.056 155.97 217.846 155.07 217.846 154.05C217.846 153.03 218.05 152.136 218.458 151.368C218.866 150.6 219.436 150.012 220.168 149.604C220.912 149.184 221.764 148.974 222.724 148.974C223.66 148.974 224.488 149.178 225.208 149.586C225.928 149.994 226.48 150.558 226.864 151.278C227.26 151.986 227.458 152.79 227.458 153.69ZM225.766 153.348C225.766 152.724 225.628 152.19 225.352 151.746C225.076 151.29 224.698 150.948 224.218 150.72C223.75 150.48 223.228 150.36 222.652 150.36C221.824 150.36 221.116 150.624 220.528 151.152C219.952 151.68 219.622 152.412 219.538 153.348H225.766ZM230.898 150.738C231.186 150.174 231.594 149.736 232.122 149.424C232.662 149.112 233.316 148.956 234.084 148.956V150.648H233.652C231.816 150.648 230.898 151.644 230.898 153.636V159H229.26V149.136H230.898V150.738ZM239.287 157.488L242.347 149.136H244.093L240.223 159H238.315L234.445 149.136H236.209L239.287 157.488ZM246.191 147.534C245.879 147.534 245.615 147.426 245.399 147.21C245.183 146.994 245.075 146.73 245.075 146.418C245.075 146.106 245.183 145.842 245.399 145.626C245.615 145.41 245.879 145.302 246.191 145.302C246.491 145.302 246.743 145.41 246.947 145.626C247.163 145.842 247.271 146.106 247.271 146.418C247.271 146.73 247.163 146.994 246.947 147.21C246.743 147.426 246.491 147.534 246.191 147.534ZM246.983 149.136V159H245.345V149.136H246.983ZM248.802 154.05C248.802 153.03 249.006 152.142 249.414 151.386C249.822 150.618 250.386 150.024 251.106 149.604C251.838 149.184 252.672 148.974 253.608 148.974C254.82 148.974 255.816 149.268 256.596 149.856C257.388 150.444 257.91 151.26 258.162 152.304H256.398C256.23 151.704 255.9 151.23 255.408 150.882C254.928 150.534 254.328 150.36 253.608 150.36C252.672 150.36 251.916 150.684 251.34 151.332C250.764 151.968 250.476 152.874 250.476 154.05C250.476 155.238 250.764 156.156 251.34 156.804C251.916 157.452 252.672 157.776 253.608 157.776C254.328 157.776 254.928 157.608 255.408 157.272C255.888 156.936 256.218 156.456 256.398 155.832H258.162C257.898 156.84 257.37 157.65 256.578 158.262C255.786 158.862 254.796 159.162 253.608 159.162C252.672 159.162 251.838 158.952 251.106 158.532C250.386 158.112 249.822 157.518 249.414 156.75C249.006 155.982 248.802 155.082 248.802 154.05ZM268.988 153.69C268.988 154.002 268.97 154.332 268.934 154.68H261.05C261.11 155.652 261.44 156.414 262.04 156.966C262.652 157.506 263.39 157.776 264.254 157.776C264.962 157.776 265.55 157.614 266.018 157.29C266.498 156.954 266.834 156.51 267.026 155.958H268.79C268.526 156.906 267.998 157.68 267.206 158.28C266.414 158.868 265.43 159.162 264.254 159.162C263.318 159.162 262.478 158.952 261.734 158.532C261.002 158.112 260.426 157.518 260.006 156.75C259.586 155.97 259.376 155.07 259.376 154.05C259.376 153.03 259.58 152.136 259.988 151.368C260.396 150.6 260.966 150.012 261.698 149.604C262.442 149.184 263.294 148.974 264.254 148.974C265.19 148.974 266.018 149.178 266.738 149.586C267.458 149.994 268.01 150.558 268.394 151.278C268.79 151.986 268.988 152.79 268.988 153.69ZM267.296 153.348C267.296 152.724 267.158 152.19 266.882 151.746C266.606 151.29 266.228 150.948 265.748 150.72C265.28 150.48 264.758 150.36 264.182 150.36C263.354 150.36 262.646 150.624 262.058 151.152C261.482 151.68 261.152 152.412 261.068 153.348H267.296ZM271.312 159.108C271 159.108 270.736 159 270.52 158.784C270.304 158.568 270.196 158.304 270.196 157.992C270.196 157.68 270.304 157.416 270.52 157.2C270.736 156.984 271 156.876 271.312 156.876C271.612 156.876 271.864 156.984 272.068 157.2C272.284 157.416 272.392 157.68 272.392 157.992C272.392 158.304 272.284 158.568 272.068 158.784C271.864 159 271.612 159.108 271.312 159.108Z" fill="black"/>
<path id="Enjoy your ride" d="M111.592 44.44V47.848H117.088V51.016H111.592V54.712H117.808V58H107.488V41.152H117.808V44.44H111.592ZM128.632 44.464C130.2 44.464 131.448 44.976 132.376 46C133.32 47.008 133.792 48.4 133.792 50.176V58H129.712V50.728C129.712 49.832 129.48 49.136 129.016 48.64C128.552 48.144 127.928 47.896 127.144 47.896C126.36 47.896 125.736 48.144 125.272 48.64C124.808 49.136 124.576 49.832 124.576 50.728V58H120.472V44.608H124.576V46.384C124.992 45.792 125.552 45.328 126.256 44.992C126.96 44.64 127.752 44.464 128.632 44.464ZM138.684 43.216C137.964 43.216 137.372 43.008 136.908 42.592C136.46 42.16 136.236 41.632 136.236 41.008C136.236 40.368 136.46 39.84 136.908 39.424C137.372 38.992 137.964 38.776 138.684 38.776C139.388 38.776 139.964 38.992 140.412 39.424C140.876 39.84 141.108 40.368 141.108 41.008C141.108 41.632 140.876 42.16 140.412 42.592C139.964 43.008 139.388 43.216 138.684 43.216ZM140.748 59.728C140.748 61.376 140.332 62.56 139.5 63.28C138.668 64.016 137.508 64.384 136.02 64.384H134.412V60.904H135.396C135.844 60.904 136.164 60.816 136.356 60.64C136.548 60.464 136.644 60.176 136.644 59.776V44.608H140.748V59.728ZM149.795 58.192C148.483 58.192 147.299 57.912 146.243 57.352C145.203 56.792 144.379 55.992 143.771 54.952C143.179 53.912 142.883 52.696 142.883 51.304C142.883 49.928 143.187 48.72 143.795 47.68C144.403 46.624 145.235 45.816 146.291 45.256C147.347 44.696 148.531 44.416 149.843 44.416C151.155 44.416 152.339 44.696 153.395 45.256C154.451 45.816 155.283 46.624 155.891 47.68C156.499 48.72 156.803 49.928 156.803 51.304C156.803 52.68 156.491 53.896 155.867 54.952C155.259 55.992 154.419 56.792 153.347 57.352C152.291 57.912 151.107 58.192 149.795 58.192ZM149.795 54.64C150.579 54.64 151.243 54.352 151.787 53.776C152.347 53.2 152.627 52.376 152.627 51.304C152.627 50.232 152.355 49.408 151.811 48.832C151.283 48.256 150.627 47.968 149.843 47.968C149.043 47.968 148.379 48.256 147.851 48.832C147.323 49.392 147.059 50.216 147.059 51.304C147.059 52.376 147.315 53.2 147.827 53.776C148.355 54.352 149.011 54.64 149.795 54.64ZM172.66 44.608L164.26 64.36H159.844L162.916 57.544L157.468 44.608H162.052L165.148 52.984L168.22 44.608H172.66ZM192.91 44.608L184.51 64.36H180.094L183.166 57.544L177.718 44.608H182.302L185.398 52.984L188.47 44.608H192.91ZM200.49 58.192C199.178 58.192 197.994 57.912 196.938 57.352C195.898 56.792 195.074 55.992 194.466 54.952C193.874 53.912 193.578 52.696 193.578 51.304C193.578 49.928 193.882 48.72 194.49 47.68C195.098 46.624 195.93 45.816 196.986 45.256C198.042 44.696 199.226 44.416 200.538 44.416C201.85 44.416 203.034 44.696 204.09 45.256C205.146 45.816 205.978 46.624 206.586 47.68C207.194 48.72 207.498 49.928 207.498 51.304C207.498 52.68 207.186 53.896 206.562 54.952C205.954 55.992 205.114 56.792 204.042 57.352C202.986 57.912 201.802 58.192 200.49 58.192ZM200.49 54.64C201.274 54.64 201.938 54.352 202.482 53.776C203.042 53.2 203.322 52.376 203.322 51.304C203.322 50.232 203.05 49.408 202.506 48.832C201.978 48.256 201.322 47.968 200.538 47.968C199.738 47.968 199.074 48.256 198.546 48.832C198.018 49.392 197.754 50.216 197.754 51.304C197.754 52.376 198.01 53.2 198.522 53.776C199.05 54.352 199.706 54.64 200.49 54.64ZM222.9 44.608V58H218.796V56.176C218.38 56.768 217.812 57.248 217.092 57.616C216.388 57.968 215.604 58.144 214.74 58.144C213.716 58.144 212.812 57.92 212.028 57.472C211.244 57.008 210.636 56.344 210.204 55.48C209.772 54.616 209.556 53.6 209.556 52.432V44.608H213.636V51.88C213.636 52.776 213.868 53.472 214.332 53.968C214.796 54.464 215.42 54.712 216.204 54.712C217.004 54.712 217.636 54.464 218.1 53.968C218.564 53.472 218.796 52.776 218.796 51.88V44.608H222.9ZM229.951 46.84C230.431 46.104 231.031 45.528 231.751 45.112C232.471 44.68 233.271 44.464 234.151 44.464V48.808H233.023C231.999 48.808 231.231 49.032 230.719 49.48C230.207 49.912 229.951 50.68 229.951 51.784V58H225.847V44.608H229.951V46.84ZM245.303 46.84C245.783 46.104 246.383 45.528 247.103 45.112C247.823 44.68 248.623 44.464 249.503 44.464V48.808H248.375C247.351 48.808 246.583 49.032 246.071 49.48C245.559 49.912 245.303 50.68 245.303 51.784V58H241.199V44.608H245.303V46.84ZM253.529 43.216C252.809 43.216 252.217 43.008 251.753 42.592C251.305 42.16 251.081 41.632 251.081 41.008C251.081 40.368 251.305 39.84 251.753 39.424C252.217 38.992 252.809 38.776 253.529 38.776C254.233 38.776 254.809 38.992 255.257 39.424C255.721 39.84 255.953 40.368 255.953 41.008C255.953 41.632 255.721 42.16 255.257 42.592C254.809 43.008 254.233 43.216 253.529 43.216ZM255.569 44.608V58H251.465V44.608H255.569ZM257.727 51.28C257.727 49.904 257.983 48.696 258.495 47.656C259.023 46.616 259.735 45.816 260.631 45.256C261.527 44.696 262.527 44.416 263.631 44.416C264.511 44.416 265.311 44.6 266.031 44.968C266.767 45.336 267.343 45.832 267.759 46.456V40.24H271.863V58H267.759V56.08C267.375 56.72 266.823 57.232 266.103 57.616C265.399 58 264.575 58.192 263.631 58.192C262.527 58.192 261.527 57.912 260.631 57.352C259.735 56.776 259.023 55.968 258.495 54.928C257.983 53.872 257.727 52.656 257.727 51.28ZM267.759 51.304C267.759 50.28 267.471 49.472 266.895 48.88C266.335 48.288 265.647 47.992 264.831 47.992C264.015 47.992 263.319 48.288 262.743 48.88C262.183 49.456 261.903 50.256 261.903 51.28C261.903 52.304 262.183 53.12 262.743 53.728C263.319 54.32 264.015 54.616 264.831 54.616C265.647 54.616 266.335 54.32 266.895 53.728C267.471 53.136 267.759 52.328 267.759 51.304ZM287.456 51.088C287.456 51.472 287.432 51.872 287.384 52.288H278.096C278.16 53.12 278.424 53.76 278.888 54.208C279.368 54.64 279.952 54.856 280.64 54.856C281.664 54.856 282.376 54.424 282.776 53.56H287.144C286.92 54.44 286.512 55.232 285.92 55.936C285.344 56.64 284.616 57.192 283.736 57.592C282.856 57.992 281.872 58.192 280.784 58.192C279.472 58.192 278.304 57.912 277.28 57.352C276.256 56.792 275.456 55.992 274.88 54.952C274.304 53.912 274.016 52.696 274.016 51.304C274.016 49.912 274.296 48.696 274.856 47.656C275.432 46.616 276.232 45.816 277.256 45.256C278.28 44.696 279.456 44.416 280.784 44.416C282.08 44.416 283.232 44.688 284.24 45.232C285.248 45.776 286.032 46.552 286.592 47.56C287.168 48.568 287.456 49.744 287.456 51.088ZM283.256 50.008C283.256 49.304 283.016 48.744 282.536 48.328C282.056 47.912 281.456 47.704 280.736 47.704C280.048 47.704 279.464 47.904 278.984 48.304C278.52 48.704 278.232 49.272 278.12 50.008H283.256Z" fill="black"/>
<rect id="Rectangle 94" x="32" y="32" width="54" height="106" rx="16" fill="#F5F5F5"/>
<g id="face-happy">
<path id="Icon" d="M62 82H62.01M56 82H56.01M69 85C69 90.5228 64.5228 95 59 95C53.4772 95 49 90.5228 49 85C49 79.4772 53.4772 75 59 75C64.5228 75 69 79.4772 69 85ZM62.5 82C62.5 82.2761 62.2761 82.5 62 82.5C61.7239 82.5 61.5 82.2761 61.5 82C61.5 81.7239 61.7239 81.5 62 81.5C62.2761 81.5 62.5 81.7239 62.5 82ZM56.5 82C56.5 82.2761 56.2761 82.5 56 82.5C55.7239 82.5 55.5 82.2761 55.5 82C55.5 81.7239 55.7239 81.5 56 81.5C56.2761 81.5 56.5 81.7239 56.5 82ZM59 90.5C61.5005 90.5 63.5 88.667 63.5 87H54.5C54.5 88.667 56.4995 90.5 59 90.5Z" stroke="black" stroke-width="2" stroke-linecap="round" stroke-linejoin="round"/>
</g>
</g>
</g>
</g>
<defs>
<clipPath id="clip0_0_1">
<rect width="1440" height="6342" fill="white" transform="translate(-112 -4285)"/>
</clipPath>
</defs>
</svg>
