<svg width="592" height="170" viewBox="0 0 592 170" fill="none" xmlns="http://www.w3.org/2000/svg">
<rect width="592" height="170" fill="#1E1E1E"/>
<g id="Home" clip-path="url(#clip0_0_1)">
<rect width="1440" height="6342" transform="translate(-112 -3913)" fill="white"/>
<g id="Group 125">
<g id="Group 112">
<g id="Rectangle 93">
<rect width="592" height="170" rx="24" fill="white"/>
<rect x="0.5" y="0.5" width="591" height="169" rx="23.5" stroke="black" stroke-opacity="0.1"/>
</g>
<path id="Choose from our wide range of premium cars, select the pickup and return dates and locations that suit you best." d="M106.774 94.718C106.774 93.494 107.05 92.396 107.602 91.424C108.154 90.44 108.904 89.672 109.852 89.12C110.812 88.568 111.874 88.292 113.038 88.292C114.406 88.292 115.6 88.622 116.62 89.282C117.64 89.942 118.384 90.878 118.852 92.09H116.89C116.542 91.334 116.038 90.752 115.378 90.344C114.73 89.936 113.95 89.732 113.038 89.732C112.162 89.732 111.376 89.936 110.68 90.344C109.984 90.752 109.438 91.334 109.042 92.09C108.646 92.834 108.448 93.71 108.448 94.718C108.448 95.714 108.646 96.59 109.042 97.346C109.438 98.09 109.984 98.666 110.68 99.074C111.376 99.482 112.162 99.686 113.038 99.686C113.95 99.686 114.73 99.488 115.378 99.092C116.038 98.684 116.542 98.102 116.89 97.346H118.852C118.384 98.546 117.64 99.476 116.62 100.136C115.6 100.784 114.406 101.108 113.038 101.108C111.874 101.108 110.812 100.838 109.852 100.298C108.904 99.746 108.154 98.984 107.602 98.012C107.05 97.04 106.774 95.942 106.774 94.718ZM125.826 90.956C126.57 90.956 127.242 91.118 127.842 91.442C128.442 91.754 128.91 92.228 129.246 92.864C129.594 93.5 129.768 94.274 129.768 95.186V101H128.148V95.42C128.148 94.436 127.902 93.686 127.41 93.17C126.918 92.642 126.246 92.378 125.394 92.378C124.53 92.378 123.84 92.648 123.324 93.188C122.82 93.728 122.568 94.514 122.568 95.546V101H120.93V87.68H122.568V92.54C122.892 92.036 123.336 91.646 123.9 91.37C124.476 91.094 125.118 90.956 125.826 90.956ZM136.386 101.162C135.462 101.162 134.622 100.952 133.866 100.532C133.122 100.112 132.534 99.518 132.102 98.75C131.682 97.97 131.472 97.07 131.472 96.05C131.472 95.042 131.688 94.154 132.12 93.386C132.564 92.606 133.164 92.012 133.92 91.604C134.676 91.184 135.522 90.974 136.458 90.974C137.394 90.974 138.24 91.184 138.996 91.604C139.752 92.012 140.346 92.6 140.778 93.368C141.222 94.136 141.444 95.03 141.444 96.05C141.444 97.07 141.216 97.97 140.76 98.75C140.316 99.518 139.71 100.112 138.942 100.532C138.174 100.952 137.322 101.162 136.386 101.162ZM136.386 99.722C136.974 99.722 137.526 99.584 138.042 99.308C138.558 99.032 138.972 98.618 139.284 98.066C139.608 97.514 139.77 96.842 139.77 96.05C139.77 95.258 139.614 94.586 139.302 94.034C138.99 93.482 138.582 93.074 138.078 92.81C137.574 92.534 137.028 92.396 136.44 92.396C135.84 92.396 135.288 92.534 134.784 92.81C134.292 93.074 133.896 93.482 133.596 94.034C133.296 94.586 133.146 95.258 133.146 96.05C133.146 96.854 133.29 97.532 133.578 98.084C133.878 98.636 134.274 99.05 134.766 99.326C135.258 99.59 135.798 99.722 136.386 99.722ZM147.54 101.162C146.616 101.162 145.776 100.952 145.02 100.532C144.276 100.112 143.688 99.518 143.256 98.75C142.836 97.97 142.626 97.07 142.626 96.05C142.626 95.042 142.842 94.154 143.274 93.386C143.718 92.606 144.318 92.012 145.074 91.604C145.83 91.184 146.676 90.974 147.612 90.974C148.548 90.974 149.394 91.184 150.15 91.604C150.906 92.012 151.5 92.6 151.932 93.368C152.376 94.136 152.598 95.03 152.598 96.05C152.598 97.07 152.37 97.97 151.914 98.75C151.47 99.518 150.864 100.112 150.096 100.532C149.328 100.952 148.476 101.162 147.54 101.162ZM147.54 99.722C148.128 99.722 148.68 99.584 149.196 99.308C149.712 99.032 150.126 98.618 150.438 98.066C150.762 97.514 150.924 96.842 150.924 96.05C150.924 95.258 150.768 94.586 150.456 94.034C150.144 93.482 149.736 93.074 149.232 92.81C148.728 92.534 148.182 92.396 147.594 92.396C146.994 92.396 146.442 92.534 145.938 92.81C145.446 93.074 145.05 93.482 144.75 94.034C144.45 94.586 144.3 95.258 144.3 96.05C144.3 96.854 144.444 97.532 144.732 98.084C145.032 98.636 145.428 99.05 145.92 99.326C146.412 99.59 146.952 99.722 147.54 99.722ZM157.883 101.162C157.127 101.162 156.449 101.036 155.849 100.784C155.249 100.52 154.775 100.16 154.427 99.704C154.079 99.236 153.887 98.702 153.851 98.102H155.543C155.591 98.594 155.819 98.996 156.227 99.308C156.647 99.62 157.193 99.776 157.865 99.776C158.489 99.776 158.981 99.638 159.341 99.362C159.701 99.086 159.881 98.738 159.881 98.318C159.881 97.886 159.689 97.568 159.305 97.364C158.921 97.148 158.327 96.938 157.523 96.734C156.791 96.542 156.191 96.35 155.723 96.158C155.267 95.954 154.871 95.66 154.535 95.276C154.211 94.88 154.049 94.364 154.049 93.728C154.049 93.224 154.199 92.762 154.499 92.342C154.799 91.922 155.225 91.592 155.777 91.352C156.329 91.1 156.959 90.974 157.667 90.974C158.759 90.974 159.641 91.25 160.313 91.802C160.985 92.354 161.345 93.11 161.393 94.07H159.755C159.719 93.554 159.509 93.14 159.125 92.828C158.753 92.516 158.249 92.36 157.613 92.36C157.025 92.36 156.557 92.486 156.209 92.738C155.861 92.99 155.687 93.32 155.687 93.728C155.687 94.052 155.789 94.322 155.993 94.538C156.209 94.742 156.473 94.91 156.785 95.042C157.109 95.162 157.553 95.3 158.117 95.456C158.825 95.648 159.401 95.84 159.845 96.032C160.289 96.212 160.667 96.488 160.979 96.86C161.303 97.232 161.471 97.718 161.483 98.318C161.483 98.858 161.333 99.344 161.033 99.776C160.733 100.208 160.307 100.55 159.755 100.802C159.215 101.042 158.591 101.162 157.883 101.162ZM172.436 95.69C172.436 96.002 172.418 96.332 172.382 96.68H164.498C164.558 97.652 164.888 98.414 165.488 98.966C166.1 99.506 166.838 99.776 167.702 99.776C168.41 99.776 168.998 99.614 169.466 99.29C169.946 98.954 170.282 98.51 170.474 97.958H172.238C171.974 98.906 171.446 99.68 170.654 100.28C169.862 100.868 168.878 101.162 167.702 101.162C166.766 101.162 165.926 100.952 165.182 100.532C164.45 100.112 163.874 99.518 163.454 98.75C163.034 97.97 162.824 97.07 162.824 96.05C162.824 95.03 163.028 94.136 163.436 93.368C163.844 92.6 164.414 92.012 165.146 91.604C165.89 91.184 166.742 90.974 167.702 90.974C168.638 90.974 169.466 91.178 170.186 91.586C170.906 91.994 171.458 92.558 171.842 93.278C172.238 93.986 172.436 94.79 172.436 95.69ZM170.744 95.348C170.744 94.724 170.606 94.19 170.33 93.746C170.054 93.29 169.676 92.948 169.196 92.72C168.728 92.48 168.206 92.36 167.63 92.36C166.802 92.36 166.094 92.624 165.506 93.152C164.93 93.68 164.6 94.412 164.516 95.348H170.744ZM182.691 92.486H180.621V101H178.983V92.486H177.705V91.136H178.983V90.434C178.983 89.33 179.265 88.526 179.829 88.022C180.405 87.506 181.323 87.248 182.583 87.248V88.616C181.863 88.616 181.353 88.76 181.053 89.048C180.765 89.324 180.621 89.786 180.621 90.434V91.136H182.691V92.486ZM185.878 92.738C186.166 92.174 186.574 91.736 187.102 91.424C187.642 91.112 188.296 90.956 189.064 90.956V92.648H188.632C186.796 92.648 185.878 93.644 185.878 95.636V101H184.24V91.136H185.878V92.738ZM194.897 101.162C193.973 101.162 193.133 100.952 192.377 100.532C191.633 100.112 191.045 99.518 190.613 98.75C190.193 97.97 189.983 97.07 189.983 96.05C189.983 95.042 190.199 94.154 190.631 93.386C191.075 92.606 191.675 92.012 192.431 91.604C193.187 91.184 194.033 90.974 194.969 90.974C195.905 90.974 196.751 91.184 197.507 91.604C198.263 92.012 198.857 92.6 199.289 93.368C199.733 94.136 199.955 95.03 199.955 96.05C199.955 97.07 199.727 97.97 199.271 98.75C198.827 99.518 198.221 100.112 197.453 100.532C196.685 100.952 195.833 101.162 194.897 101.162ZM194.897 99.722C195.485 99.722 196.037 99.584 196.553 99.308C197.069 99.032 197.483 98.618 197.795 98.066C198.119 97.514 198.281 96.842 198.281 96.05C198.281 95.258 198.125 94.586 197.813 94.034C197.501 93.482 197.093 93.074 196.589 92.81C196.085 92.534 195.539 92.396 194.951 92.396C194.351 92.396 193.799 92.534 193.295 92.81C192.803 93.074 192.407 93.482 192.107 94.034C191.807 94.586 191.657 95.258 191.657 96.05C191.657 96.854 191.801 97.532 192.089 98.084C192.389 98.636 192.785 99.05 193.277 99.326C193.769 99.59 194.309 99.722 194.897 99.722ZM213.611 90.956C214.379 90.956 215.063 91.118 215.663 91.442C216.263 91.754 216.737 92.228 217.085 92.864C217.433 93.5 217.607 94.274 217.607 95.186V101H215.987V95.42C215.987 94.436 215.741 93.686 215.249 93.17C214.769 92.642 214.115 92.378 213.287 92.378C212.435 92.378 211.757 92.654 211.253 93.206C210.749 93.746 210.497 94.532 210.497 95.564V101H208.877V95.42C208.877 94.436 208.631 93.686 208.139 93.17C207.659 92.642 207.005 92.378 206.177 92.378C205.325 92.378 204.647 92.654 204.143 93.206C203.639 93.746 203.387 94.532 203.387 95.564V101H201.749V91.136H203.387V92.558C203.711 92.042 204.143 91.646 204.683 91.37C205.235 91.094 205.841 90.956 206.501 90.956C207.329 90.956 208.061 91.142 208.697 91.514C209.333 91.886 209.807 92.432 210.119 93.152C210.395 92.456 210.851 91.916 211.487 91.532C212.123 91.148 212.831 90.956 213.611 90.956ZM228.675 101.162C227.751 101.162 226.911 100.952 226.155 100.532C225.411 100.112 224.823 99.518 224.391 98.75C223.971 97.97 223.761 97.07 223.761 96.05C223.761 95.042 223.977 94.154 224.409 93.386C224.853 92.606 225.453 92.012 226.209 91.604C226.965 91.184 227.811 90.974 228.747 90.974C229.683 90.974 230.529 91.184 231.285 91.604C232.041 92.012 232.635 92.6 233.067 93.368C233.511 94.136 233.733 95.03 233.733 96.05C233.733 97.07 233.505 97.97 233.049 98.75C232.605 99.518 231.999 100.112 231.231 100.532C230.463 100.952 229.611 101.162 228.675 101.162ZM228.675 99.722C229.263 99.722 229.815 99.584 230.331 99.308C230.847 99.032 231.261 98.618 231.573 98.066C231.897 97.514 232.059 96.842 232.059 96.05C232.059 95.258 231.903 94.586 231.591 94.034C231.279 93.482 230.871 93.074 230.367 92.81C229.863 92.534 229.317 92.396 228.729 92.396C228.129 92.396 227.577 92.534 227.073 92.81C226.581 93.074 226.185 93.482 225.885 94.034C225.585 94.586 225.435 95.258 225.435 96.05C225.435 96.854 225.579 97.532 225.867 98.084C226.167 98.636 226.563 99.05 227.055 99.326C227.547 99.59 228.087 99.722 228.675 99.722ZM244.274 91.136V101H242.636V99.542C242.324 100.046 241.886 100.442 241.322 100.73C240.77 101.006 240.158 101.144 239.486 101.144C238.718 101.144 238.028 100.988 237.416 100.676C236.804 100.352 236.318 99.872 235.958 99.236C235.61 98.6 235.436 97.826 235.436 96.914V91.136H237.056V96.698C237.056 97.67 237.302 98.42 237.794 98.948C238.286 99.464 238.958 99.722 239.81 99.722C240.686 99.722 241.376 99.452 241.88 98.912C242.384 98.372 242.636 97.586 242.636 96.554V91.136H244.274ZM248.318 92.738C248.606 92.174 249.014 91.736 249.542 91.424C250.082 91.112 250.736 90.956 251.504 90.956V92.648H251.072C249.236 92.648 248.318 93.644 248.318 95.636V101H246.68V91.136H248.318V92.738ZM270.614 91.136L267.536 101H265.844L263.468 93.17L261.092 101H259.4L256.304 91.136H257.978L260.246 99.416L262.694 91.136H264.368L266.762 99.434L268.994 91.136H270.614ZM272.725 89.534C272.413 89.534 272.149 89.426 271.933 89.21C271.717 88.994 271.609 88.73 271.609 88.418C271.609 88.106 271.717 87.842 271.933 87.626C272.149 87.41 272.413 87.302 272.725 87.302C273.025 87.302 273.277 87.41 273.481 87.626C273.697 87.842 273.805 88.106 273.805 88.418C273.805 88.73 273.697 88.994 273.481 89.21C273.277 89.426 273.025 89.534 272.725 89.534ZM273.517 91.136V101H271.879V91.136H273.517ZM275.337 96.032C275.337 95.024 275.541 94.142 275.949 93.386C276.357 92.618 276.915 92.024 277.623 91.604C278.343 91.184 279.147 90.974 280.035 90.974C280.803 90.974 281.517 91.154 282.177 91.514C282.837 91.862 283.341 92.324 283.689 92.9V87.68H285.345V101H283.689V99.146C283.365 99.734 282.885 100.22 282.249 100.604C281.613 100.976 280.869 101.162 280.017 101.162C279.141 101.162 278.343 100.946 277.623 100.514C276.915 100.082 276.357 99.476 275.949 98.696C275.541 97.916 275.337 97.028 275.337 96.032ZM283.689 96.05C283.689 95.306 283.539 94.658 283.239 94.106C282.939 93.554 282.531 93.134 282.015 92.846C281.511 92.546 280.953 92.396 280.341 92.396C279.729 92.396 279.171 92.54 278.667 92.828C278.163 93.116 277.761 93.536 277.461 94.088C277.161 94.64 277.011 95.288 277.011 96.032C277.011 96.788 277.161 97.448 277.461 98.012C277.761 98.564 278.163 98.99 278.667 99.29C279.171 99.578 279.729 99.722 280.341 99.722C280.953 99.722 281.511 99.578 282.015 99.29C282.531 98.99 282.939 98.564 283.239 98.012C283.539 97.448 283.689 96.794 283.689 96.05ZM296.753 95.69C296.753 96.002 296.735 96.332 296.699 96.68H288.815C288.875 97.652 289.205 98.414 289.805 98.966C290.417 99.506 291.155 99.776 292.019 99.776C292.727 99.776 293.315 99.614 293.783 99.29C294.263 98.954 294.599 98.51 294.791 97.958H296.555C296.291 98.906 295.763 99.68 294.971 100.28C294.179 100.868 293.195 101.162 292.019 101.162C291.083 101.162 290.243 100.952 289.499 100.532C288.767 100.112 288.191 99.518 287.771 98.75C287.351 97.97 287.141 97.07 287.141 96.05C287.141 95.03 287.345 94.136 287.753 93.368C288.161 92.6 288.731 92.012 289.463 91.604C290.207 91.184 291.059 90.974 292.019 90.974C292.955 90.974 293.783 91.178 294.503 91.586C295.223 91.994 295.775 92.558 296.159 93.278C296.555 93.986 296.753 94.79 296.753 95.69ZM295.061 95.348C295.061 94.724 294.923 94.19 294.647 93.746C294.371 93.29 293.993 92.948 293.513 92.72C293.045 92.48 292.523 92.36 291.947 92.36C291.119 92.36 290.411 92.624 289.823 93.152C289.247 93.68 288.917 94.412 288.833 95.348H295.061ZM304.632 92.738C304.92 92.174 305.328 91.736 305.856 91.424C306.396 91.112 307.05 90.956 307.818 90.956V92.648H307.386C305.55 92.648 304.632 93.644 304.632 95.636V101H302.994V91.136H304.632V92.738ZM308.737 96.032C308.737 95.024 308.941 94.142 309.349 93.386C309.757 92.618 310.315 92.024 311.023 91.604C311.743 91.184 312.541 90.974 313.417 90.974C314.281 90.974 315.031 91.16 315.667 91.532C316.303 91.904 316.777 92.372 317.089 92.936V91.136H318.745V101H317.089V99.164C316.765 99.74 316.279 100.22 315.631 100.604C314.995 100.976 314.251 101.162 313.399 101.162C312.523 101.162 311.731 100.946 311.023 100.514C310.315 100.082 309.757 99.476 309.349 98.696C308.941 97.916 308.737 97.028 308.737 96.032ZM317.089 96.05C317.089 95.306 316.939 94.658 316.639 94.106C316.339 93.554 315.931 93.134 315.415 92.846C314.911 92.546 314.353 92.396 313.741 92.396C313.129 92.396 312.571 92.54 312.067 92.828C311.563 93.116 311.161 93.536 310.861 94.088C310.561 94.64 310.411 95.288 310.411 96.032C310.411 96.788 310.561 97.448 310.861 98.012C311.161 98.564 311.563 98.99 312.067 99.29C312.571 99.578 313.129 99.722 313.741 99.722C314.353 99.722 314.911 99.578 315.415 99.29C315.931 98.99 316.339 98.564 316.639 98.012C316.939 97.448 317.089 96.794 317.089 96.05ZM325.959 90.956C327.159 90.956 328.131 91.322 328.875 92.054C329.619 92.774 329.991 93.818 329.991 95.186V101H328.371V95.42C328.371 94.436 328.125 93.686 327.633 93.17C327.141 92.642 326.469 92.378 325.617 92.378C324.753 92.378 324.063 92.648 323.547 93.188C323.043 93.728 322.791 94.514 322.791 95.546V101H321.153V91.136H322.791V92.54C323.115 92.036 323.553 91.646 324.105 91.37C324.669 91.094 325.287 90.956 325.959 90.956ZM336.375 90.974C337.227 90.974 337.971 91.16 338.607 91.532C339.255 91.904 339.735 92.372 340.047 92.936V91.136H341.703V101.216C341.703 102.116 341.511 102.914 341.127 103.61C340.743 104.318 340.191 104.87 339.471 105.266C338.763 105.662 337.935 105.86 336.987 105.86C335.691 105.86 334.611 105.554 333.747 104.942C332.883 104.33 332.373 103.496 332.217 102.44H333.837C334.017 103.04 334.389 103.52 334.953 103.88C335.517 104.252 336.195 104.438 336.987 104.438C337.887 104.438 338.619 104.156 339.183 103.592C339.759 103.028 340.047 102.236 340.047 101.216V99.146C339.723 99.722 339.243 100.202 338.607 100.586C337.971 100.97 337.227 101.162 336.375 101.162C335.499 101.162 334.701 100.946 333.981 100.514C333.273 100.082 332.715 99.476 332.307 98.696C331.899 97.916 331.695 97.028 331.695 96.032C331.695 95.024 331.899 94.142 332.307 93.386C332.715 92.618 333.273 92.024 333.981 91.604C334.701 91.184 335.499 90.974 336.375 90.974ZM340.047 96.05C340.047 95.306 339.897 94.658 339.597 94.106C339.297 93.554 338.889 93.134 338.373 92.846C337.869 92.546 337.311 92.396 336.699 92.396C336.087 92.396 335.529 92.54 335.025 92.828C334.521 93.116 334.119 93.536 333.819 94.088C333.519 94.64 333.369 95.288 333.369 96.032C333.369 96.788 333.519 97.448 333.819 98.012C334.119 98.564 334.521 98.99 335.025 99.29C335.529 99.578 336.087 99.722 336.699 99.722C337.311 99.722 337.869 99.578 338.373 99.29C338.889 98.99 339.297 98.564 339.597 98.012C339.897 97.448 340.047 96.794 340.047 96.05ZM353.111 95.69C353.111 96.002 353.093 96.332 353.057 96.68H345.173C345.233 97.652 345.563 98.414 346.163 98.966C346.775 99.506 347.513 99.776 348.377 99.776C349.085 99.776 349.673 99.614 350.141 99.29C350.621 98.954 350.957 98.51 351.149 97.958H352.913C352.649 98.906 352.121 99.68 351.329 100.28C350.537 100.868 349.553 101.162 348.377 101.162C347.441 101.162 346.601 100.952 345.857 100.532C345.125 100.112 344.549 99.518 344.129 98.75C343.709 97.97 343.499 97.07 343.499 96.05C343.499 95.03 343.703 94.136 344.111 93.368C344.519 92.6 345.089 92.012 345.821 91.604C346.565 91.184 347.417 90.974 348.377 90.974C349.313 90.974 350.141 91.178 350.861 91.586C351.581 91.994 352.133 92.558 352.517 93.278C352.913 93.986 353.111 94.79 353.111 95.69ZM351.419 95.348C351.419 94.724 351.281 94.19 351.005 93.746C350.729 93.29 350.351 92.948 349.871 92.72C349.403 92.48 348.881 92.36 348.305 92.36C347.477 92.36 346.769 92.624 346.181 93.152C345.605 93.68 345.275 94.412 345.191 95.348H351.419ZM363.654 101.162C362.73 101.162 361.89 100.952 361.134 100.532C360.39 100.112 359.802 99.518 359.37 98.75C358.95 97.97 358.74 97.07 358.74 96.05C358.74 95.042 358.956 94.154 359.388 93.386C359.832 92.606 360.432 92.012 361.188 91.604C361.944 91.184 362.79 90.974 363.726 90.974C364.662 90.974 365.508 91.184 366.264 91.604C367.02 92.012 367.614 92.6 368.046 93.368C368.49 94.136 368.712 95.03 368.712 96.05C368.712 97.07 368.484 97.97 368.028 98.75C367.584 99.518 366.978 100.112 366.21 100.532C365.442 100.952 364.59 101.162 363.654 101.162ZM363.654 99.722C364.242 99.722 364.794 99.584 365.31 99.308C365.826 99.032 366.24 98.618 366.552 98.066C366.876 97.514 367.038 96.842 367.038 96.05C367.038 95.258 366.882 94.586 366.57 94.034C366.258 93.482 365.85 93.074 365.346 92.81C364.842 92.534 364.296 92.396 363.708 92.396C363.108 92.396 362.556 92.534 362.052 92.81C361.56 93.074 361.164 93.482 360.864 94.034C360.564 94.586 360.414 95.258 360.414 96.05C360.414 96.854 360.558 97.532 360.846 98.084C361.146 98.636 361.542 99.05 362.034 99.326C362.526 99.59 363.066 99.722 363.654 99.722ZM374.519 92.486H372.449V101H370.811V92.486H369.533V91.136H370.811V90.434C370.811 89.33 371.093 88.526 371.657 88.022C372.233 87.506 373.151 87.248 374.411 87.248V88.616C373.691 88.616 373.181 88.76 372.881 89.048C372.593 89.324 372.449 89.786 372.449 90.434V91.136H374.519V92.486ZM382.146 92.954C382.47 92.39 382.95 91.922 383.586 91.55C384.234 91.166 384.984 90.974 385.836 90.974C386.712 90.974 387.504 91.184 388.212 91.604C388.932 92.024 389.496 92.618 389.904 93.386C390.312 94.142 390.516 95.024 390.516 96.032C390.516 97.028 390.312 97.916 389.904 98.696C389.496 99.476 388.932 100.082 388.212 100.514C387.504 100.946 386.712 101.162 385.836 101.162C384.996 101.162 384.252 100.976 383.604 100.604C382.968 100.22 382.482 99.746 382.146 99.182V105.68H380.508V91.136H382.146V92.954ZM388.842 96.032C388.842 95.288 388.692 94.64 388.392 94.088C388.092 93.536 387.684 93.116 387.168 92.828C386.664 92.54 386.106 92.396 385.494 92.396C384.894 92.396 384.336 92.546 383.82 92.846C383.316 93.134 382.908 93.56 382.596 94.124C382.296 94.676 382.146 95.318 382.146 96.05C382.146 96.794 382.296 97.448 382.596 98.012C382.908 98.564 383.316 98.99 383.82 99.29C384.336 99.578 384.894 99.722 385.494 99.722C386.106 99.722 386.664 99.578 387.168 99.29C387.684 98.99 388.092 98.564 388.392 98.012C388.692 97.448 388.842 96.788 388.842 96.032ZM393.95 92.738C394.238 92.174 394.646 91.736 395.174 91.424C395.714 91.112 396.368 90.956 397.136 90.956V92.648H396.704C394.868 92.648 393.95 93.644 393.95 95.636V101H392.312V91.136H393.95V92.738ZM407.667 95.69C407.667 96.002 407.649 96.332 407.613 96.68H399.729C399.789 97.652 400.119 98.414 400.719 98.966C401.331 99.506 402.069 99.776 402.933 99.776C403.641 99.776 404.229 99.614 404.697 99.29C405.177 98.954 405.513 98.51 405.705 97.958H407.469C407.205 98.906 406.677 99.68 405.885 100.28C405.093 100.868 404.109 101.162 402.933 101.162C401.997 101.162 401.157 100.952 400.413 100.532C399.681 100.112 399.105 99.518 398.685 98.75C398.265 97.97 398.055 97.07 398.055 96.05C398.055 95.03 398.259 94.136 398.667 93.368C399.075 92.6 399.645 92.012 400.377 91.604C401.121 91.184 401.973 90.974 402.933 90.974C403.869 90.974 404.697 91.178 405.417 91.586C406.137 91.994 406.689 92.558 407.073 93.278C407.469 93.986 407.667 94.79 407.667 95.69ZM405.975 95.348C405.975 94.724 405.837 94.19 405.561 93.746C405.285 93.29 404.907 92.948 404.427 92.72C403.959 92.48 403.437 92.36 402.861 92.36C402.033 92.36 401.325 92.624 400.737 93.152C400.161 93.68 399.831 94.412 399.747 95.348H405.975ZM421.331 90.956C422.099 90.956 422.783 91.118 423.383 91.442C423.983 91.754 424.457 92.228 424.805 92.864C425.153 93.5 425.327 94.274 425.327 95.186V101H423.707V95.42C423.707 94.436 423.461 93.686 422.969 93.17C422.489 92.642 421.835 92.378 421.007 92.378C420.155 92.378 419.477 92.654 418.973 93.206C418.469 93.746 418.217 94.532 418.217 95.564V101H416.597V95.42C416.597 94.436 416.351 93.686 415.859 93.17C415.379 92.642 414.725 92.378 413.897 92.378C413.045 92.378 412.367 92.654 411.863 93.206C411.359 93.746 411.107 94.532 411.107 95.564V101H409.469V91.136H411.107V92.558C411.431 92.042 411.863 91.646 412.403 91.37C412.955 91.094 413.561 90.956 414.221 90.956C415.049 90.956 415.781 91.142 416.417 91.514C417.053 91.886 417.527 92.432 417.839 93.152C418.115 92.456 418.571 91.916 419.207 91.532C419.843 91.148 420.551 90.956 421.331 90.956ZM428.5 89.534C428.188 89.534 427.924 89.426 427.708 89.21C427.492 88.994 427.384 88.73 427.384 88.418C427.384 88.106 427.492 87.842 427.708 87.626C427.924 87.41 428.188 87.302 428.5 87.302C428.8 87.302 429.052 87.41 429.256 87.626C429.472 87.842 429.58 88.106 429.58 88.418C429.58 88.73 429.472 88.994 429.256 89.21C429.052 89.426 428.8 89.534 428.5 89.534ZM429.292 91.136V101H427.654V91.136H429.292ZM440.471 91.136V101H438.833V99.542C438.521 100.046 438.083 100.442 437.519 100.73C436.967 101.006 436.355 101.144 435.683 101.144C434.915 101.144 434.225 100.988 433.613 100.676C433.001 100.352 432.515 99.872 432.155 99.236C431.807 98.6 431.633 97.826 431.633 96.914V91.136H433.253V96.698C433.253 97.67 433.499 98.42 433.991 98.948C434.483 99.464 435.155 99.722 436.007 99.722C436.883 99.722 437.573 99.452 438.077 98.912C438.581 98.372 438.833 97.586 438.833 96.554V91.136H440.471ZM454.739 90.956C455.507 90.956 456.191 91.118 456.791 91.442C457.391 91.754 457.865 92.228 458.213 92.864C458.561 93.5 458.735 94.274 458.735 95.186V101H457.115V95.42C457.115 94.436 456.869 93.686 456.377 93.17C455.897 92.642 455.243 92.378 454.415 92.378C453.563 92.378 452.885 92.654 452.381 93.206C451.877 93.746 451.625 94.532 451.625 95.564V101H450.005V95.42C450.005 94.436 449.759 93.686 449.267 93.17C448.787 92.642 448.133 92.378 447.305 92.378C446.453 92.378 445.775 92.654 445.271 93.206C444.767 93.746 444.515 94.532 444.515 95.564V101H442.877V91.136H444.515V92.558C444.839 92.042 445.271 91.646 445.811 91.37C446.363 91.094 446.969 90.956 447.629 90.956C448.457 90.956 449.189 91.142 449.825 91.514C450.461 91.886 450.935 92.432 451.247 93.152C451.523 92.456 451.979 91.916 452.615 91.532C453.251 91.148 453.959 90.956 454.739 90.956ZM464.889 96.05C464.889 95.03 465.093 94.142 465.501 93.386C465.909 92.618 466.473 92.024 467.193 91.604C467.925 91.184 468.759 90.974 469.695 90.974C470.907 90.974 471.903 91.268 472.683 91.856C473.475 92.444 473.997 93.26 474.249 94.304H472.485C472.317 93.704 471.987 93.23 471.495 92.882C471.015 92.534 470.415 92.36 469.695 92.36C468.759 92.36 468.003 92.684 467.427 93.332C466.851 93.968 466.563 94.874 466.563 96.05C466.563 97.238 466.851 98.156 467.427 98.804C468.003 99.452 468.759 99.776 469.695 99.776C470.415 99.776 471.015 99.608 471.495 99.272C471.975 98.936 472.305 98.456 472.485 97.832H474.249C473.985 98.84 473.457 99.65 472.665 100.262C471.873 100.862 470.883 101.162 469.695 101.162C468.759 101.162 467.925 100.952 467.193 100.532C466.473 100.112 465.909 99.518 465.501 98.75C465.093 97.982 464.889 97.082 464.889 96.05ZM475.463 96.032C475.463 95.024 475.667 94.142 476.075 93.386C476.483 92.618 477.041 92.024 477.749 91.604C478.469 91.184 479.267 90.974 480.143 90.974C481.007 90.974 481.757 91.16 482.393 91.532C483.029 91.904 483.503 92.372 483.815 92.936V91.136H485.471V101H483.815V99.164C483.491 99.74 483.005 100.22 482.357 100.604C481.721 100.976 480.977 101.162 480.125 101.162C479.249 101.162 478.457 100.946 477.749 100.514C477.041 100.082 476.483 99.476 476.075 98.696C475.667 97.916 475.463 97.028 475.463 96.032ZM483.815 96.05C483.815 95.306 483.665 94.658 483.365 94.106C483.065 93.554 482.657 93.134 482.141 92.846C481.637 92.546 481.079 92.396 480.467 92.396C479.855 92.396 479.297 92.54 478.793 92.828C478.289 93.116 477.887 93.536 477.587 94.088C477.287 94.64 477.137 95.288 477.137 96.032C477.137 96.788 477.287 97.448 477.587 98.012C477.887 98.564 478.289 98.99 478.793 99.29C479.297 99.578 479.855 99.722 480.467 99.722C481.079 99.722 481.637 99.578 482.141 99.29C482.657 98.99 483.065 98.564 483.365 98.012C483.665 97.448 483.815 96.794 483.815 96.05ZM489.517 92.738C489.805 92.174 490.213 91.736 490.741 91.424C491.281 91.112 491.935 90.956 492.703 90.956V92.648H492.271C490.435 92.648 489.517 93.644 489.517 95.636V101H487.879V91.136H489.517V92.738ZM497.725 101.162C496.969 101.162 496.291 101.036 495.691 100.784C495.091 100.52 494.617 100.16 494.269 99.704C493.921 99.236 493.729 98.702 493.693 98.102H495.385C495.433 98.594 495.661 98.996 496.069 99.308C496.489 99.62 497.035 99.776 497.707 99.776C498.331 99.776 498.823 99.638 499.183 99.362C499.543 99.086 499.723 98.738 499.723 98.318C499.723 97.886 499.531 97.568 499.147 97.364C498.763 97.148 498.169 96.938 497.365 96.734C496.633 96.542 496.033 96.35 495.565 96.158C495.109 95.954 494.713 95.66 494.377 95.276C494.053 94.88 493.891 94.364 493.891 93.728C493.891 93.224 494.041 92.762 494.341 92.342C494.641 91.922 495.067 91.592 495.619 91.352C496.171 91.1 496.801 90.974 497.509 90.974C498.601 90.974 499.483 91.25 500.155 91.802C500.827 92.354 501.187 93.11 501.235 94.07H499.597C499.561 93.554 499.351 93.14 498.967 92.828C498.595 92.516 498.091 92.36 497.455 92.36C496.867 92.36 496.399 92.486 496.051 92.738C495.703 92.99 495.529 93.32 495.529 93.728C495.529 94.052 495.631 94.322 495.835 94.538C496.051 94.742 496.315 94.91 496.627 95.042C496.951 95.162 497.395 95.3 497.959 95.456C498.667 95.648 499.243 95.84 499.687 96.032C500.131 96.212 500.509 96.488 500.821 96.86C501.145 97.232 501.313 97.718 501.325 98.318C501.325 98.858 501.175 99.344 500.875 99.776C500.575 100.208 500.149 100.55 499.597 100.802C499.057 101.042 498.433 101.162 497.725 101.162ZM504.97 98.732L502.954 103.574H501.856L503.17 98.732H504.97ZM110.878 130.162C110.122 130.162 109.444 130.036 108.844 129.784C108.244 129.52 107.77 129.16 107.422 128.704C107.074 128.236 106.882 127.702 106.846 127.102H108.538C108.586 127.594 108.814 127.996 109.222 128.308C109.642 128.62 110.188 128.776 110.86 128.776C111.484 128.776 111.976 128.638 112.336 128.362C112.696 128.086 112.876 127.738 112.876 127.318C112.876 126.886 112.684 126.568 112.3 126.364C111.916 126.148 111.322 125.938 110.518 125.734C109.786 125.542 109.186 125.35 108.718 125.158C108.262 124.954 107.866 124.66 107.53 124.276C107.206 123.88 107.044 123.364 107.044 122.728C107.044 122.224 107.194 121.762 107.494 121.342C107.794 120.922 108.22 120.592 108.772 120.352C109.324 120.1 109.954 119.974 110.662 119.974C111.754 119.974 112.636 120.25 113.308 120.802C113.98 121.354 114.34 122.11 114.388 123.07H112.75C112.714 122.554 112.504 122.14 112.12 121.828C111.748 121.516 111.244 121.36 110.608 121.36C110.02 121.36 109.552 121.486 109.204 121.738C108.856 121.99 108.682 122.32 108.682 122.728C108.682 123.052 108.784 123.322 108.988 123.538C109.204 123.742 109.468 123.91 109.78 124.042C110.104 124.162 110.548 124.3 111.112 124.456C111.82 124.648 112.396 124.84 112.84 125.032C113.284 125.212 113.662 125.488 113.974 125.86C114.298 126.232 114.466 126.718 114.478 127.318C114.478 127.858 114.328 128.344 114.028 128.776C113.728 129.208 113.302 129.55 112.75 129.802C112.21 130.042 111.586 130.162 110.878 130.162ZM125.43 124.69C125.43 125.002 125.412 125.332 125.376 125.68H117.492C117.552 126.652 117.882 127.414 118.482 127.966C119.094 128.506 119.832 128.776 120.696 128.776C121.404 128.776 121.992 128.614 122.46 128.29C122.94 127.954 123.276 127.51 123.468 126.958H125.232C124.968 127.906 124.44 128.68 123.648 129.28C122.856 129.868 121.872 130.162 120.696 130.162C119.76 130.162 118.92 129.952 118.176 129.532C117.444 129.112 116.868 128.518 116.448 127.75C116.028 126.97 115.818 126.07 115.818 125.05C115.818 124.03 116.022 123.136 116.43 122.368C116.838 121.6 117.408 121.012 118.14 120.604C118.884 120.184 119.736 119.974 120.696 119.974C121.632 119.974 122.46 120.178 123.18 120.586C123.9 120.994 124.452 121.558 124.836 122.278C125.232 122.986 125.43 123.79 125.43 124.69ZM123.738 124.348C123.738 123.724 123.6 123.19 123.324 122.746C123.048 122.29 122.67 121.948 122.19 121.72C121.722 121.48 121.2 121.36 120.624 121.36C119.796 121.36 119.088 121.624 118.5 122.152C117.924 122.68 117.594 123.412 117.51 124.348H123.738ZM128.87 116.68V130H127.232V116.68H128.87ZM140.302 124.69C140.302 125.002 140.284 125.332 140.248 125.68H132.364C132.424 126.652 132.754 127.414 133.354 127.966C133.966 128.506 134.704 128.776 135.568 128.776C136.276 128.776 136.864 128.614 137.332 128.29C137.812 127.954 138.148 127.51 138.34 126.958H140.104C139.84 127.906 139.312 128.68 138.52 129.28C137.728 129.868 136.744 130.162 135.568 130.162C134.632 130.162 133.792 129.952 133.048 129.532C132.316 129.112 131.74 128.518 131.32 127.75C130.9 126.97 130.69 126.07 130.69 125.05C130.69 124.03 130.894 123.136 131.302 122.368C131.71 121.6 132.28 121.012 133.012 120.604C133.756 120.184 134.608 119.974 135.568 119.974C136.504 119.974 137.332 120.178 138.052 120.586C138.772 120.994 139.324 121.558 139.708 122.278C140.104 122.986 140.302 123.79 140.302 124.69ZM138.61 124.348C138.61 123.724 138.472 123.19 138.196 122.746C137.92 122.29 137.542 121.948 137.062 121.72C136.594 121.48 136.072 121.36 135.496 121.36C134.668 121.36 133.96 121.624 133.372 122.152C132.796 122.68 132.466 123.412 132.382 124.348H138.61ZM141.492 125.05C141.492 124.03 141.696 123.142 142.104 122.386C142.512 121.618 143.076 121.024 143.796 120.604C144.528 120.184 145.362 119.974 146.298 119.974C147.51 119.974 148.506 120.268 149.286 120.856C150.078 121.444 150.6 122.26 150.852 123.304H149.088C148.92 122.704 148.59 122.23 148.098 121.882C147.618 121.534 147.018 121.36 146.298 121.36C145.362 121.36 144.606 121.684 144.03 122.332C143.454 122.968 143.166 123.874 143.166 125.05C143.166 126.238 143.454 127.156 144.03 127.804C144.606 128.452 145.362 128.776 146.298 128.776C147.018 128.776 147.618 128.608 148.098 128.272C148.578 127.936 148.908 127.456 149.088 126.832H150.852C150.588 127.84 150.06 128.65 149.268 129.262C148.476 129.862 147.486 130.162 146.298 130.162C145.362 130.162 144.528 129.952 143.796 129.532C143.076 129.112 142.512 128.518 142.104 127.75C141.696 126.982 141.492 126.082 141.492 125.05ZM154.676 121.486V127.3C154.676 127.78 154.778 128.122 154.982 128.326C155.186 128.518 155.54 128.614 156.044 128.614H157.25V130H155.774C154.862 130 154.178 129.79 153.722 129.37C153.266 128.95 153.038 128.26 153.038 127.3V121.486H151.76V120.136H153.038V117.652H154.676V120.136H157.25V121.486H154.676ZM165.311 121.486V127.3C165.311 127.78 165.413 128.122 165.617 128.326C165.821 128.518 166.175 128.614 166.679 128.614H167.885V130H166.409C165.497 130 164.813 129.79 164.357 129.37C163.901 128.95 163.673 128.26 163.673 127.3V121.486H162.395V120.136H163.673V117.652H165.311V120.136H167.885V121.486H165.311ZM174.406 119.956C175.15 119.956 175.822 120.118 176.422 120.442C177.022 120.754 177.49 121.228 177.826 121.864C178.174 122.5 178.348 123.274 178.348 124.186V130H176.728V124.42C176.728 123.436 176.482 122.686 175.99 122.17C175.498 121.642 174.826 121.378 173.974 121.378C173.11 121.378 172.42 121.648 171.904 122.188C171.4 122.728 171.148 123.514 171.148 124.546V130H169.51V116.68H171.148V121.54C171.472 121.036 171.916 120.646 172.48 120.37C173.056 120.094 173.698 119.956 174.406 119.956ZM189.664 124.69C189.664 125.002 189.646 125.332 189.61 125.68H181.726C181.786 126.652 182.116 127.414 182.716 127.966C183.328 128.506 184.066 128.776 184.93 128.776C185.638 128.776 186.226 128.614 186.694 128.29C187.174 127.954 187.51 127.51 187.702 126.958H189.466C189.202 127.906 188.674 128.68 187.882 129.28C187.09 129.868 186.106 130.162 184.93 130.162C183.994 130.162 183.154 129.952 182.41 129.532C181.678 129.112 181.102 128.518 180.682 127.75C180.262 126.97 180.052 126.07 180.052 125.05C180.052 124.03 180.256 123.136 180.664 122.368C181.072 121.6 181.642 121.012 182.374 120.604C183.118 120.184 183.97 119.974 184.93 119.974C185.866 119.974 186.694 120.178 187.414 120.586C188.134 120.994 188.686 121.558 189.07 122.278C189.466 122.986 189.664 123.79 189.664 124.69ZM187.972 124.348C187.972 123.724 187.834 123.19 187.558 122.746C187.282 122.29 186.904 121.948 186.424 121.72C185.956 121.48 185.434 121.36 184.858 121.36C184.03 121.36 183.322 121.624 182.734 122.152C182.158 122.68 181.828 123.412 181.744 124.348H187.972ZM197.543 121.954C197.867 121.39 198.347 120.922 198.983 120.55C199.631 120.166 200.381 119.974 201.233 119.974C202.109 119.974 202.901 120.184 203.609 120.604C204.329 121.024 204.893 121.618 205.301 122.386C205.709 123.142 205.913 124.024 205.913 125.032C205.913 126.028 205.709 126.916 205.301 127.696C204.893 128.476 204.329 129.082 203.609 129.514C202.901 129.946 202.109 130.162 201.233 130.162C200.393 130.162 199.649 129.976 199.001 129.604C198.365 129.22 197.879 128.746 197.543 128.182V134.68H195.905V120.136H197.543V121.954ZM204.239 125.032C204.239 124.288 204.089 123.64 203.789 123.088C203.489 122.536 203.081 122.116 202.565 121.828C202.061 121.54 201.503 121.396 200.891 121.396C200.291 121.396 199.733 121.546 199.217 121.846C198.713 122.134 198.305 122.56 197.993 123.124C197.693 123.676 197.543 124.318 197.543 125.05C197.543 125.794 197.693 126.448 197.993 127.012C198.305 127.564 198.713 127.99 199.217 128.29C199.733 128.578 200.291 128.722 200.891 128.722C201.503 128.722 202.061 128.578 202.565 128.29C203.081 127.99 203.489 127.564 203.789 127.012C204.089 126.448 204.239 125.788 204.239 125.032ZM208.555 118.534C208.243 118.534 207.979 118.426 207.763 118.21C207.547 117.994 207.439 117.73 207.439 117.418C207.439 117.106 207.547 116.842 207.763 116.626C207.979 116.41 208.243 116.302 208.555 116.302C208.855 116.302 209.107 116.41 209.311 116.626C209.527 116.842 209.635 117.106 209.635 117.418C209.635 117.73 209.527 117.994 209.311 118.21C209.107 118.426 208.855 118.534 208.555 118.534ZM209.347 120.136V130H207.709V120.136H209.347ZM211.166 125.05C211.166 124.03 211.37 123.142 211.778 122.386C212.186 121.618 212.75 121.024 213.47 120.604C214.202 120.184 215.036 119.974 215.972 119.974C217.184 119.974 218.18 120.268 218.96 120.856C219.752 121.444 220.274 122.26 220.526 123.304H218.762C218.594 122.704 218.264 122.23 217.772 121.882C217.292 121.534 216.692 121.36 215.972 121.36C215.036 121.36 214.28 121.684 213.704 122.332C213.128 122.968 212.84 123.874 212.84 125.05C212.84 126.238 213.128 127.156 213.704 127.804C214.28 128.452 215.036 128.776 215.972 128.776C216.692 128.776 217.292 128.608 217.772 128.272C218.252 127.936 218.582 127.456 218.762 126.832H220.526C220.262 127.84 219.734 128.65 218.942 129.262C218.15 129.862 217.16 130.162 215.972 130.162C215.036 130.162 214.202 129.952 213.47 129.532C212.75 129.112 212.186 128.518 211.778 127.75C211.37 126.982 211.166 126.082 211.166 125.05ZM227.86 130L223.99 125.644V130H222.352V116.68H223.99V124.51L227.788 120.136H230.074L225.43 125.05L230.092 130H227.86ZM240.004 120.136V130H238.366V128.542C238.054 129.046 237.616 129.442 237.052 129.73C236.5 130.006 235.888 130.144 235.216 130.144C234.448 130.144 233.758 129.988 233.146 129.676C232.534 129.352 232.048 128.872 231.688 128.236C231.34 127.6 231.166 126.826 231.166 125.914V120.136H232.786V125.698C232.786 126.67 233.032 127.42 233.524 127.948C234.016 128.464 234.688 128.722 235.54 128.722C236.416 128.722 237.106 128.452 237.61 127.912C238.114 127.372 238.366 126.586 238.366 125.554V120.136H240.004ZM244.047 121.954C244.371 121.39 244.851 120.922 245.487 120.55C246.135 120.166 246.885 119.974 247.737 119.974C248.613 119.974 249.405 120.184 250.113 120.604C250.833 121.024 251.397 121.618 251.805 122.386C252.213 123.142 252.417 124.024 252.417 125.032C252.417 126.028 252.213 126.916 251.805 127.696C251.397 128.476 250.833 129.082 250.113 129.514C249.405 129.946 248.613 130.162 247.737 130.162C246.897 130.162 246.153 129.976 245.505 129.604C244.869 129.22 244.383 128.746 244.047 128.182V134.68H242.409V120.136H244.047V121.954ZM250.743 125.032C250.743 124.288 250.593 123.64 250.293 123.088C249.993 122.536 249.585 122.116 249.069 121.828C248.565 121.54 248.007 121.396 247.395 121.396C246.795 121.396 246.237 121.546 245.721 121.846C245.217 122.134 244.809 122.56 244.497 123.124C244.197 123.676 244.047 124.318 244.047 125.05C244.047 125.794 244.197 126.448 244.497 127.012C244.809 127.564 245.217 127.99 245.721 128.29C246.237 128.578 246.795 128.722 247.395 128.722C248.007 128.722 248.565 128.578 249.069 128.29C249.585 127.99 249.993 127.564 250.293 127.012C250.593 126.448 250.743 125.788 250.743 125.032ZM258.04 125.032C258.04 124.024 258.244 123.142 258.652 122.386C259.06 121.618 259.618 121.024 260.326 120.604C261.046 120.184 261.844 119.974 262.72 119.974C263.584 119.974 264.334 120.16 264.97 120.532C265.606 120.904 266.08 121.372 266.392 121.936V120.136H268.048V130H266.392V128.164C266.068 128.74 265.582 129.22 264.934 129.604C264.298 129.976 263.554 130.162 262.702 130.162C261.826 130.162 261.034 129.946 260.326 129.514C259.618 129.082 259.06 128.476 258.652 127.696C258.244 126.916 258.04 126.028 258.04 125.032ZM266.392 125.05C266.392 124.306 266.242 123.658 265.942 123.106C265.642 122.554 265.234 122.134 264.718 121.846C264.214 121.546 263.656 121.396 263.044 121.396C262.432 121.396 261.874 121.54 261.37 121.828C260.866 122.116 260.464 122.536 260.164 123.088C259.864 123.64 259.714 124.288 259.714 125.032C259.714 125.788 259.864 126.448 260.164 127.012C260.464 127.564 260.866 127.99 261.37 128.29C261.874 128.578 262.432 128.722 263.044 128.722C263.656 128.722 264.214 128.578 264.718 128.29C265.234 127.99 265.642 127.564 265.942 127.012C266.242 126.448 266.392 125.794 266.392 125.05ZM275.262 119.956C276.462 119.956 277.434 120.322 278.178 121.054C278.922 121.774 279.294 122.818 279.294 124.186V130H277.674V124.42C277.674 123.436 277.428 122.686 276.936 122.17C276.444 121.642 275.772 121.378 274.92 121.378C274.056 121.378 273.366 121.648 272.85 122.188C272.346 122.728 272.094 123.514 272.094 124.546V130H270.456V120.136H272.094V121.54C272.418 121.036 272.856 120.646 273.408 120.37C273.972 120.094 274.59 119.956 275.262 119.956ZM280.998 125.032C280.998 124.024 281.202 123.142 281.61 122.386C282.018 121.618 282.576 121.024 283.284 120.604C284.004 120.184 284.808 119.974 285.696 119.974C286.464 119.974 287.178 120.154 287.838 120.514C288.498 120.862 289.002 121.324 289.35 121.9V116.68H291.006V130H289.35V128.146C289.026 128.734 288.546 129.22 287.91 129.604C287.274 129.976 286.53 130.162 285.678 130.162C284.802 130.162 284.004 129.946 283.284 129.514C282.576 129.082 282.018 128.476 281.61 127.696C281.202 126.916 280.998 126.028 280.998 125.032ZM289.35 125.05C289.35 124.306 289.2 123.658 288.9 123.106C288.6 122.554 288.192 122.134 287.676 121.846C287.172 121.546 286.614 121.396 286.002 121.396C285.39 121.396 284.832 121.54 284.328 121.828C283.824 122.116 283.422 122.536 283.122 123.088C282.822 123.64 282.672 124.288 282.672 125.032C282.672 125.788 282.822 126.448 283.122 127.012C283.422 127.564 283.824 127.99 284.328 128.29C284.832 128.578 285.39 128.722 286.002 128.722C286.614 128.722 287.172 128.578 287.676 128.29C288.192 127.99 288.6 127.564 288.9 127.012C289.2 126.448 289.35 125.794 289.35 125.05ZM299.491 121.738C299.779 121.174 300.187 120.736 300.715 120.424C301.255 120.112 301.909 119.956 302.677 119.956V121.648H302.245C300.409 121.648 299.491 122.644 299.491 124.636V130H297.853V120.136H299.491V121.738ZM313.208 124.69C313.208 125.002 313.19 125.332 313.154 125.68H305.27C305.33 126.652 305.66 127.414 306.26 127.966C306.872 128.506 307.61 128.776 308.474 128.776C309.182 128.776 309.77 128.614 310.238 128.29C310.718 127.954 311.054 127.51 311.246 126.958H313.01C312.746 127.906 312.218 128.68 311.426 129.28C310.634 129.868 309.65 130.162 308.474 130.162C307.538 130.162 306.698 129.952 305.954 129.532C305.222 129.112 304.646 128.518 304.226 127.75C303.806 126.97 303.596 126.07 303.596 125.05C303.596 124.03 303.8 123.136 304.208 122.368C304.616 121.6 305.186 121.012 305.918 120.604C306.662 120.184 307.514 119.974 308.474 119.974C309.41 119.974 310.238 120.178 310.958 120.586C311.678 120.994 312.23 121.558 312.614 122.278C313.01 122.986 313.208 123.79 313.208 124.69ZM311.516 124.348C311.516 123.724 311.378 123.19 311.102 122.746C310.826 122.29 310.448 121.948 309.968 121.72C309.5 121.48 308.978 121.36 308.402 121.36C307.574 121.36 306.866 121.624 306.278 122.152C305.702 122.68 305.372 123.412 305.288 124.348H311.516ZM317.008 121.486V127.3C317.008 127.78 317.11 128.122 317.314 128.326C317.518 128.518 317.872 128.614 318.376 128.614H319.582V130H318.106C317.194 130 316.51 129.79 316.054 129.37C315.598 128.95 315.37 128.26 315.37 127.3V121.486H314.092V120.136H315.37V117.652H317.008V120.136H319.582V121.486H317.008ZM329.954 120.136V130H328.316V128.542C328.004 129.046 327.566 129.442 327.002 129.73C326.45 130.006 325.838 130.144 325.166 130.144C324.398 130.144 323.708 129.988 323.096 129.676C322.484 129.352 321.998 128.872 321.638 128.236C321.29 127.6 321.116 126.826 321.116 125.914V120.136H322.736V125.698C322.736 126.67 322.982 127.42 323.474 127.948C323.966 128.464 324.638 128.722 325.49 128.722C326.366 128.722 327.056 128.452 327.56 127.912C328.064 127.372 328.316 126.586 328.316 125.554V120.136H329.954ZM333.998 121.738C334.286 121.174 334.694 120.736 335.222 120.424C335.762 120.112 336.416 119.956 337.184 119.956V121.648H336.752C334.916 121.648 333.998 122.644 333.998 124.636V130H332.36V120.136H333.998V121.738ZM343.521 119.956C344.721 119.956 345.693 120.322 346.437 121.054C347.181 121.774 347.553 122.818 347.553 124.186V130H345.933V124.42C345.933 123.436 345.687 122.686 345.195 122.17C344.703 121.642 344.031 121.378 343.179 121.378C342.315 121.378 341.625 121.648 341.109 122.188C340.605 122.728 340.353 123.514 340.353 124.546V130H338.715V120.136H340.353V121.54C340.677 121.036 341.115 120.646 341.667 120.37C342.231 120.094 342.849 119.956 343.521 119.956ZM353.695 125.032C353.695 124.024 353.899 123.142 354.307 122.386C354.715 121.618 355.273 121.024 355.981 120.604C356.701 120.184 357.505 119.974 358.393 119.974C359.161 119.974 359.875 120.154 360.535 120.514C361.195 120.862 361.699 121.324 362.047 121.9V116.68H363.703V130H362.047V128.146C361.723 128.734 361.243 129.22 360.607 129.604C359.971 129.976 359.227 130.162 358.375 130.162C357.499 130.162 356.701 129.946 355.981 129.514C355.273 129.082 354.715 128.476 354.307 127.696C353.899 126.916 353.695 126.028 353.695 125.032ZM362.047 125.05C362.047 124.306 361.897 123.658 361.597 123.106C361.297 122.554 360.889 122.134 360.373 121.846C359.869 121.546 359.311 121.396 358.699 121.396C358.087 121.396 357.529 121.54 357.025 121.828C356.521 122.116 356.119 122.536 355.819 123.088C355.519 123.64 355.369 124.288 355.369 125.032C355.369 125.788 355.519 126.448 355.819 127.012C356.119 127.564 356.521 127.99 357.025 128.29C357.529 128.578 358.087 128.722 358.699 128.722C359.311 128.722 359.869 128.578 360.373 128.29C360.889 127.99 361.297 127.564 361.597 127.012C361.897 126.448 362.047 125.794 362.047 125.05ZM365.499 125.032C365.499 124.024 365.703 123.142 366.111 122.386C366.519 121.618 367.077 121.024 367.785 120.604C368.505 120.184 369.303 119.974 370.179 119.974C371.043 119.974 371.793 120.16 372.429 120.532C373.065 120.904 373.539 121.372 373.851 121.936V120.136H375.507V130H373.851V128.164C373.527 128.74 373.041 129.22 372.393 129.604C371.757 129.976 371.013 130.162 370.161 130.162C369.285 130.162 368.493 129.946 367.785 129.514C367.077 129.082 366.519 128.476 366.111 127.696C365.703 126.916 365.499 126.028 365.499 125.032ZM373.851 125.05C373.851 124.306 373.701 123.658 373.401 123.106C373.101 122.554 372.693 122.134 372.177 121.846C371.673 121.546 371.115 121.396 370.503 121.396C369.891 121.396 369.333 121.54 368.829 121.828C368.325 122.116 367.923 122.536 367.623 123.088C367.323 123.64 367.173 124.288 367.173 125.032C367.173 125.788 367.323 126.448 367.623 127.012C367.923 127.564 368.325 127.99 368.829 128.29C369.333 128.578 369.891 128.722 370.503 128.722C371.115 128.722 371.673 128.578 372.177 128.29C372.693 127.99 373.101 127.564 373.401 127.012C373.701 126.448 373.851 125.794 373.851 125.05ZM379.913 121.486V127.3C379.913 127.78 380.015 128.122 380.219 128.326C380.423 128.518 380.777 128.614 381.281 128.614H382.487V130H381.011C380.099 130 379.415 129.79 378.959 129.37C378.503 128.95 378.275 128.26 378.275 127.3V121.486H376.997V120.136H378.275V117.652H379.913V120.136H382.487V121.486H379.913ZM393.112 124.69C393.112 125.002 393.094 125.332 393.058 125.68H385.174C385.234 126.652 385.564 127.414 386.164 127.966C386.776 128.506 387.514 128.776 388.378 128.776C389.086 128.776 389.674 128.614 390.142 128.29C390.622 127.954 390.958 127.51 391.15 126.958H392.914C392.65 127.906 392.122 128.68 391.33 129.28C390.538 129.868 389.554 130.162 388.378 130.162C387.442 130.162 386.602 129.952 385.858 129.532C385.126 129.112 384.55 128.518 384.13 127.75C383.71 126.97 383.5 126.07 383.5 125.05C383.5 124.03 383.704 123.136 384.112 122.368C384.52 121.6 385.09 121.012 385.822 120.604C386.566 120.184 387.418 119.974 388.378 119.974C389.314 119.974 390.142 120.178 390.862 120.586C391.582 120.994 392.134 121.558 392.518 122.278C392.914 122.986 393.112 123.79 393.112 124.69ZM391.42 124.348C391.42 123.724 391.282 123.19 391.006 122.746C390.73 122.29 390.352 121.948 389.872 121.72C389.404 121.48 388.882 121.36 388.306 121.36C387.478 121.36 386.77 121.624 386.182 122.152C385.606 122.68 385.276 123.412 385.192 124.348H391.42ZM398.406 130.162C397.65 130.162 396.972 130.036 396.372 129.784C395.772 129.52 395.298 129.16 394.95 128.704C394.602 128.236 394.41 127.702 394.374 127.102H396.066C396.114 127.594 396.342 127.996 396.75 128.308C397.17 128.62 397.716 128.776 398.388 128.776C399.012 128.776 399.504 128.638 399.864 128.362C400.224 128.086 400.404 127.738 400.404 127.318C400.404 126.886 400.212 126.568 399.828 126.364C399.444 126.148 398.85 125.938 398.046 125.734C397.314 125.542 396.714 125.35 396.246 125.158C395.79 124.954 395.394 124.66 395.058 124.276C394.734 123.88 394.572 123.364 394.572 122.728C394.572 122.224 394.722 121.762 395.022 121.342C395.322 120.922 395.748 120.592 396.3 120.352C396.852 120.1 397.482 119.974 398.19 119.974C399.282 119.974 400.164 120.25 400.836 120.802C401.508 121.354 401.868 122.11 401.916 123.07H400.278C400.242 122.554 400.032 122.14 399.648 121.828C399.276 121.516 398.772 121.36 398.136 121.36C397.548 121.36 397.08 121.486 396.732 121.738C396.384 121.99 396.21 122.32 396.21 122.728C396.21 123.052 396.312 123.322 396.516 123.538C396.732 123.742 396.996 123.91 397.308 124.042C397.632 124.162 398.076 124.3 398.64 124.456C399.348 124.648 399.924 124.84 400.368 125.032C400.812 125.212 401.19 125.488 401.502 125.86C401.826 126.232 401.994 126.718 402.006 127.318C402.006 127.858 401.856 128.344 401.556 128.776C401.256 129.208 400.83 129.55 400.278 129.802C399.738 130.042 399.114 130.162 398.406 130.162ZM407.785 125.032C407.785 124.024 407.989 123.142 408.397 122.386C408.805 121.618 409.363 121.024 410.071 120.604C410.791 120.184 411.589 119.974 412.465 119.974C413.329 119.974 414.079 120.16 414.715 120.532C415.351 120.904 415.825 121.372 416.137 121.936V120.136H417.793V130H416.137V128.164C415.813 128.74 415.327 129.22 414.679 129.604C414.043 129.976 413.299 130.162 412.447 130.162C411.571 130.162 410.779 129.946 410.071 129.514C409.363 129.082 408.805 128.476 408.397 127.696C407.989 126.916 407.785 126.028 407.785 125.032ZM416.137 125.05C416.137 124.306 415.987 123.658 415.687 123.106C415.387 122.554 414.979 122.134 414.463 121.846C413.959 121.546 413.401 121.396 412.789 121.396C412.177 121.396 411.619 121.54 411.115 121.828C410.611 122.116 410.209 122.536 409.909 123.088C409.609 123.64 409.459 124.288 409.459 125.032C409.459 125.788 409.609 126.448 409.909 127.012C410.209 127.564 410.611 127.99 411.115 128.29C411.619 128.578 412.177 128.722 412.789 128.722C413.401 128.722 413.959 128.578 414.463 128.29C414.979 127.99 415.387 127.564 415.687 127.012C415.987 126.448 416.137 125.794 416.137 125.05ZM425.007 119.956C426.207 119.956 427.179 120.322 427.923 121.054C428.667 121.774 429.039 122.818 429.039 124.186V130H427.419V124.42C427.419 123.436 427.173 122.686 426.681 122.17C426.189 121.642 425.517 121.378 424.665 121.378C423.801 121.378 423.111 121.648 422.595 122.188C422.091 122.728 421.839 123.514 421.839 124.546V130H420.201V120.136H421.839V121.54C422.163 121.036 422.601 120.646 423.153 120.37C423.717 120.094 424.335 119.956 425.007 119.956ZM430.743 125.032C430.743 124.024 430.947 123.142 431.355 122.386C431.763 121.618 432.321 121.024 433.029 120.604C433.749 120.184 434.553 119.974 435.441 119.974C436.209 119.974 436.923 120.154 437.583 120.514C438.243 120.862 438.747 121.324 439.095 121.9V116.68H440.751V130H439.095V128.146C438.771 128.734 438.291 129.22 437.655 129.604C437.019 129.976 436.275 130.162 435.423 130.162C434.547 130.162 433.749 129.946 433.029 129.514C432.321 129.082 431.763 128.476 431.355 127.696C430.947 126.916 430.743 126.028 430.743 125.032ZM439.095 125.05C439.095 124.306 438.945 123.658 438.645 123.106C438.345 122.554 437.937 122.134 437.421 121.846C436.917 121.546 436.359 121.396 435.747 121.396C435.135 121.396 434.577 121.54 434.073 121.828C433.569 122.116 433.167 122.536 432.867 123.088C432.567 123.64 432.417 124.288 432.417 125.032C432.417 125.788 432.567 126.448 432.867 127.012C433.167 127.564 433.569 127.99 434.073 128.29C434.577 128.578 435.135 128.722 435.747 128.722C436.359 128.722 436.917 128.578 437.421 128.29C437.937 127.99 438.345 127.564 438.645 127.012C438.945 126.448 439.095 125.794 439.095 125.05ZM449.236 116.68V130H447.598V116.68H449.236ZM455.97 130.162C455.046 130.162 454.206 129.952 453.45 129.532C452.706 129.112 452.118 128.518 451.686 127.75C451.266 126.97 451.056 126.07 451.056 125.05C451.056 124.042 451.272 123.154 451.704 122.386C452.148 121.606 452.748 121.012 453.504 120.604C454.26 120.184 455.106 119.974 456.042 119.974C456.978 119.974 457.824 120.184 458.58 120.604C459.336 121.012 459.93 121.6 460.362 122.368C460.806 123.136 461.028 124.03 461.028 125.05C461.028 126.07 460.8 126.97 460.344 127.75C459.9 128.518 459.294 129.112 458.526 129.532C457.758 129.952 456.906 130.162 455.97 130.162ZM455.97 128.722C456.558 128.722 457.11 128.584 457.626 128.308C458.142 128.032 458.556 127.618 458.868 127.066C459.192 126.514 459.354 125.842 459.354 125.05C459.354 124.258 459.198 123.586 458.886 123.034C458.574 122.482 458.166 122.074 457.662 121.81C457.158 121.534 456.612 121.396 456.024 121.396C455.424 121.396 454.872 121.534 454.368 121.81C453.876 122.074 453.48 122.482 453.18 123.034C452.88 123.586 452.73 124.258 452.73 125.05C452.73 125.854 452.874 126.532 453.162 127.084C453.462 127.636 453.858 128.05 454.35 128.326C454.842 128.59 455.382 128.722 455.97 128.722ZM462.209 125.05C462.209 124.03 462.413 123.142 462.821 122.386C463.229 121.618 463.793 121.024 464.513 120.604C465.245 120.184 466.079 119.974 467.015 119.974C468.227 119.974 469.223 120.268 470.003 120.856C470.795 121.444 471.317 122.26 471.569 123.304H469.805C469.637 122.704 469.307 122.23 468.815 121.882C468.335 121.534 467.735 121.36 467.015 121.36C466.079 121.36 465.323 121.684 464.747 122.332C464.171 122.968 463.883 123.874 463.883 125.05C463.883 126.238 464.171 127.156 464.747 127.804C465.323 128.452 466.079 128.776 467.015 128.776C467.735 128.776 468.335 128.608 468.815 128.272C469.295 127.936 469.625 127.456 469.805 126.832H471.569C471.305 127.84 470.777 128.65 469.985 129.262C469.193 129.862 468.203 130.162 467.015 130.162C466.079 130.162 465.245 129.952 464.513 129.532C463.793 129.112 463.229 128.518 462.821 127.75C462.413 126.982 462.209 126.082 462.209 125.05ZM472.783 125.032C472.783 124.024 472.987 123.142 473.395 122.386C473.803 121.618 474.361 121.024 475.069 120.604C475.789 120.184 476.587 119.974 477.463 119.974C478.327 119.974 479.077 120.16 479.713 120.532C480.349 120.904 480.823 121.372 481.135 121.936V120.136H482.791V130H481.135V128.164C480.811 128.74 480.325 129.22 479.677 129.604C479.041 129.976 478.297 130.162 477.445 130.162C476.569 130.162 475.777 129.946 475.069 129.514C474.361 129.082 473.803 128.476 473.395 127.696C472.987 126.916 472.783 126.028 472.783 125.032ZM481.135 125.05C481.135 124.306 480.985 123.658 480.685 123.106C480.385 122.554 479.977 122.134 479.461 121.846C478.957 121.546 478.399 121.396 477.787 121.396C477.175 121.396 476.617 121.54 476.113 121.828C475.609 122.116 475.207 122.536 474.907 123.088C474.607 123.64 474.457 124.288 474.457 125.032C474.457 125.788 474.607 126.448 474.907 127.012C475.207 127.564 475.609 127.99 476.113 128.29C476.617 128.578 477.175 128.722 477.787 128.722C478.399 128.722 478.957 128.578 479.461 128.29C479.977 127.99 480.385 127.564 480.685 127.012C480.985 126.448 481.135 125.794 481.135 125.05ZM487.197 121.486V127.3C487.197 127.78 487.299 128.122 487.503 128.326C487.707 128.518 488.061 128.614 488.565 128.614H489.771V130H488.295C487.383 130 486.699 129.79 486.243 129.37C485.787 128.95 485.559 128.26 485.559 127.3V121.486H484.281V120.136H485.559V117.652H487.197V120.136H489.771V121.486H487.197ZM492.242 118.534C491.93 118.534 491.666 118.426 491.45 118.21C491.234 117.994 491.126 117.73 491.126 117.418C491.126 117.106 491.234 116.842 491.45 116.626C491.666 116.41 491.93 116.302 492.242 116.302C492.542 116.302 492.794 116.41 492.998 116.626C493.214 116.842 493.322 117.106 493.322 117.418C493.322 117.73 493.214 117.994 492.998 118.21C492.794 118.426 492.542 118.534 492.242 118.534ZM493.034 120.136V130H491.396V120.136H493.034ZM499.767 130.162C498.843 130.162 498.003 129.952 497.247 129.532C496.503 129.112 495.915 128.518 495.483 127.75C495.063 126.97 494.853 126.07 494.853 125.05C494.853 124.042 495.069 123.154 495.501 122.386C495.945 121.606 496.545 121.012 497.301 120.604C498.057 120.184 498.903 119.974 499.839 119.974C500.775 119.974 501.621 120.184 502.377 120.604C503.133 121.012 503.727 121.6 504.159 122.368C504.603 123.136 504.825 124.03 504.825 125.05C504.825 126.07 504.597 126.97 504.141 127.75C503.697 128.518 503.091 129.112 502.323 129.532C501.555 129.952 500.703 130.162 499.767 130.162ZM499.767 128.722C500.355 128.722 500.907 128.584 501.423 128.308C501.939 128.032 502.353 127.618 502.665 127.066C502.989 126.514 503.151 125.842 503.151 125.05C503.151 124.258 502.995 123.586 502.683 123.034C502.371 122.482 501.963 122.074 501.459 121.81C500.955 121.534 500.409 121.396 499.821 121.396C499.221 121.396 498.669 121.534 498.165 121.81C497.673 122.074 497.277 122.482 496.977 123.034C496.677 123.586 496.527 124.258 496.527 125.05C496.527 125.854 496.671 126.532 496.959 127.084C497.259 127.636 497.655 128.05 498.147 128.326C498.639 128.59 499.179 128.722 499.767 128.722ZM511.425 119.956C512.625 119.956 513.597 120.322 514.341 121.054C515.085 121.774 515.457 122.818 515.457 124.186V130H513.837V124.42C513.837 123.436 513.591 122.686 513.099 122.17C512.607 121.642 511.935 121.378 511.083 121.378C510.219 121.378 509.529 121.648 509.013 122.188C508.509 122.728 508.257 123.514 508.257 124.546V130H506.619V120.136H508.257V121.54C508.581 121.036 509.019 120.646 509.571 120.37C510.135 120.094 510.753 119.956 511.425 119.956ZM521.265 130.162C520.509 130.162 519.831 130.036 519.231 129.784C518.631 129.52 518.157 129.16 517.809 128.704C517.461 128.236 517.269 127.702 517.233 127.102H518.925C518.973 127.594 519.201 127.996 519.609 128.308C520.029 128.62 520.575 128.776 521.247 128.776C521.871 128.776 522.363 128.638 522.723 128.362C523.083 128.086 523.263 127.738 523.263 127.318C523.263 126.886 523.071 126.568 522.687 126.364C522.303 126.148 521.709 125.938 520.905 125.734C520.173 125.542 519.573 125.35 519.105 125.158C518.649 124.954 518.253 124.66 517.917 124.276C517.593 123.88 517.431 123.364 517.431 122.728C517.431 122.224 517.581 121.762 517.881 121.342C518.181 120.922 518.607 120.592 519.159 120.352C519.711 120.1 520.341 119.974 521.049 119.974C522.141 119.974 523.023 120.25 523.695 120.802C524.367 121.354 524.727 122.11 524.775 123.07H523.137C523.101 122.554 522.891 122.14 522.507 121.828C522.135 121.516 521.631 121.36 520.995 121.36C520.407 121.36 519.939 121.486 519.591 121.738C519.243 121.99 519.069 122.32 519.069 122.728C519.069 123.052 519.171 123.322 519.375 123.538C519.591 123.742 519.855 123.91 520.167 124.042C520.491 124.162 520.935 124.3 521.499 124.456C522.207 124.648 522.783 124.84 523.227 125.032C523.671 125.212 524.049 125.488 524.361 125.86C524.685 126.232 524.853 126.718 524.865 127.318C524.865 127.858 524.715 128.344 524.415 128.776C524.115 129.208 523.689 129.55 523.137 129.802C522.597 130.042 521.973 130.162 521.265 130.162ZM109.384 150.486V156.3C109.384 156.78 109.486 157.122 109.69 157.326C109.894 157.518 110.248 157.614 110.752 157.614H111.958V159H110.482C109.57 159 108.886 158.79 108.43 158.37C107.974 157.95 107.746 157.26 107.746 156.3V150.486H106.468V149.136H107.746V146.652H109.384V149.136H111.958V150.486H109.384ZM118.479 148.956C119.223 148.956 119.895 149.118 120.495 149.442C121.095 149.754 121.563 150.228 121.899 150.864C122.247 151.5 122.421 152.274 122.421 153.186V159H120.801V153.42C120.801 152.436 120.555 151.686 120.063 151.17C119.571 150.642 118.899 150.378 118.047 150.378C117.183 150.378 116.493 150.648 115.977 151.188C115.473 151.728 115.221 152.514 115.221 153.546V159H113.583V145.68H115.221V150.54C115.545 150.036 115.989 149.646 116.553 149.37C117.129 149.094 117.771 148.956 118.479 148.956ZM124.124 154.032C124.124 153.024 124.328 152.142 124.736 151.386C125.144 150.618 125.702 150.024 126.41 149.604C127.13 149.184 127.928 148.974 128.804 148.974C129.668 148.974 130.418 149.16 131.054 149.532C131.69 149.904 132.164 150.372 132.476 150.936V149.136H134.132V159H132.476V157.164C132.152 157.74 131.666 158.22 131.018 158.604C130.382 158.976 129.638 159.162 128.786 159.162C127.91 159.162 127.118 158.946 126.41 158.514C125.702 158.082 125.144 157.476 124.736 156.696C124.328 155.916 124.124 155.028 124.124 154.032ZM132.476 154.05C132.476 153.306 132.326 152.658 132.026 152.106C131.726 151.554 131.318 151.134 130.802 150.846C130.298 150.546 129.74 150.396 129.128 150.396C128.516 150.396 127.958 150.54 127.454 150.828C126.95 151.116 126.548 151.536 126.248 152.088C125.948 152.64 125.798 153.288 125.798 154.032C125.798 154.788 125.948 155.448 126.248 156.012C126.548 156.564 126.95 156.99 127.454 157.29C127.958 157.578 128.516 157.722 129.128 157.722C129.74 157.722 130.298 157.578 130.802 157.29C131.318 156.99 131.726 156.564 132.026 156.012C132.326 155.448 132.476 154.794 132.476 154.05ZM138.538 150.486V156.3C138.538 156.78 138.64 157.122 138.844 157.326C139.048 157.518 139.402 157.614 139.906 157.614H141.112V159H139.636C138.724 159 138.04 158.79 137.584 158.37C137.128 157.95 136.9 157.26 136.9 156.3V150.486H135.622V149.136H136.9V146.652H138.538V149.136H141.112V150.486H138.538ZM150.668 159.162C149.912 159.162 149.234 159.036 148.634 158.784C148.034 158.52 147.56 158.16 147.212 157.704C146.864 157.236 146.672 156.702 146.636 156.102H148.328C148.376 156.594 148.604 156.996 149.012 157.308C149.432 157.62 149.978 157.776 150.65 157.776C151.274 157.776 151.766 157.638 152.126 157.362C152.486 157.086 152.666 156.738 152.666 156.318C152.666 155.886 152.474 155.568 152.09 155.364C151.706 155.148 151.112 154.938 150.308 154.734C149.576 154.542 148.976 154.35 148.508 154.158C148.052 153.954 147.656 153.66 147.32 153.276C146.996 152.88 146.834 152.364 146.834 151.728C146.834 151.224 146.984 150.762 147.284 150.342C147.584 149.922 148.01 149.592 148.562 149.352C149.114 149.1 149.744 148.974 150.452 148.974C151.544 148.974 152.426 149.25 153.098 149.802C153.77 150.354 154.13 151.11 154.178 152.07H152.54C152.504 151.554 152.294 151.14 151.91 150.828C151.538 150.516 151.034 150.36 150.398 150.36C149.81 150.36 149.342 150.486 148.994 150.738C148.646 150.99 148.472 151.32 148.472 151.728C148.472 152.052 148.574 152.322 148.778 152.538C148.994 152.742 149.258 152.91 149.57 153.042C149.894 153.162 150.338 153.3 150.902 153.456C151.61 153.648 152.186 153.84 152.63 154.032C153.074 154.212 153.452 154.488 153.764 154.86C154.088 155.232 154.256 155.718 154.268 156.318C154.268 156.858 154.118 157.344 153.818 157.776C153.518 158.208 153.092 158.55 152.54 158.802C152 159.042 151.376 159.162 150.668 159.162ZM164.968 149.136V159H163.33V157.542C163.018 158.046 162.58 158.442 162.016 158.73C161.464 159.006 160.852 159.144 160.18 159.144C159.412 159.144 158.722 158.988 158.11 158.676C157.498 158.352 157.012 157.872 156.652 157.236C156.304 156.6 156.13 155.826 156.13 154.914V149.136H157.75V154.698C157.75 155.67 157.996 156.42 158.488 156.948C158.98 157.464 159.652 157.722 160.504 157.722C161.38 157.722 162.07 157.452 162.574 156.912C163.078 156.372 163.33 155.586 163.33 154.554V149.136H164.968ZM168.22 147.534C167.908 147.534 167.644 147.426 167.428 147.21C167.212 146.994 167.104 146.73 167.104 146.418C167.104 146.106 167.212 145.842 167.428 145.626C167.644 145.41 167.908 145.302 168.22 145.302C168.52 145.302 168.772 145.41 168.976 145.626C169.192 145.842 169.3 146.106 169.3 146.418C169.3 146.73 169.192 146.994 168.976 147.21C168.772 147.426 168.52 147.534 168.22 147.534ZM169.012 149.136V159H167.374V149.136H169.012ZM173.442 150.486V156.3C173.442 156.78 173.544 157.122 173.748 157.326C173.952 157.518 174.306 157.614 174.81 157.614H176.016V159H174.54C173.628 159 172.944 158.79 172.488 158.37C172.032 157.95 171.804 157.26 171.804 156.3V150.486H170.526V149.136H171.804V146.652H173.442V149.136H176.016V150.486H173.442ZM190.575 149.136L184.635 163.644H182.943L184.887 158.892L180.909 149.136H182.727L185.823 157.128L188.883 149.136H190.575ZM196.164 159.162C195.24 159.162 194.4 158.952 193.644 158.532C192.9 158.112 192.312 157.518 191.88 156.75C191.46 155.97 191.25 155.07 191.25 154.05C191.25 153.042 191.466 152.154 191.898 151.386C192.342 150.606 192.942 150.012 193.698 149.604C194.454 149.184 195.3 148.974 196.236 148.974C197.172 148.974 198.018 149.184 198.774 149.604C199.53 150.012 200.124 150.6 200.556 151.368C201 152.136 201.222 153.03 201.222 154.05C201.222 155.07 200.994 155.97 200.538 156.75C200.094 157.518 199.488 158.112 198.72 158.532C197.952 158.952 197.1 159.162 196.164 159.162ZM196.164 157.722C196.752 157.722 197.304 157.584 197.82 157.308C198.336 157.032 198.75 156.618 199.062 156.066C199.386 155.514 199.548 154.842 199.548 154.05C199.548 153.258 199.392 152.586 199.08 152.034C198.768 151.482 198.36 151.074 197.856 150.81C197.352 150.534 196.806 150.396 196.218 150.396C195.618 150.396 195.066 150.534 194.562 150.81C194.07 151.074 193.674 151.482 193.374 152.034C193.074 152.586 192.924 153.258 192.924 154.05C192.924 154.854 193.068 155.532 193.356 156.084C193.656 156.636 194.052 157.05 194.544 157.326C195.036 157.59 195.576 157.722 196.164 157.722ZM211.763 149.136V159H210.125V157.542C209.813 158.046 209.375 158.442 208.811 158.73C208.259 159.006 207.647 159.144 206.975 159.144C206.207 159.144 205.517 158.988 204.905 158.676C204.293 158.352 203.807 157.872 203.447 157.236C203.099 156.6 202.925 155.826 202.925 154.914V149.136H204.545V154.698C204.545 155.67 204.791 156.42 205.283 156.948C205.775 157.464 206.447 157.722 207.299 157.722C208.175 157.722 208.865 157.452 209.369 156.912C209.873 156.372 210.125 155.586 210.125 154.554V149.136H211.763ZM220.246 150.972C220.582 150.384 221.074 149.904 221.722 149.532C222.37 149.16 223.108 148.974 223.936 148.974C224.824 148.974 225.622 149.184 226.33 149.604C227.038 150.024 227.596 150.618 228.004 151.386C228.412 152.142 228.616 153.024 228.616 154.032C228.616 155.028 228.412 155.916 228.004 156.696C227.596 157.476 227.032 158.082 226.312 158.514C225.604 158.946 224.812 159.162 223.936 159.162C223.084 159.162 222.334 158.976 221.686 158.604C221.05 158.232 220.57 157.758 220.246 157.182V159H218.608V145.68H220.246V150.972ZM226.942 154.032C226.942 153.288 226.792 152.64 226.492 152.088C226.192 151.536 225.784 151.116 225.268 150.828C224.764 150.54 224.206 150.396 223.594 150.396C222.994 150.396 222.436 150.546 221.92 150.846C221.416 151.134 221.008 151.56 220.696 152.124C220.396 152.676 220.246 153.318 220.246 154.05C220.246 154.794 220.396 155.448 220.696 156.012C221.008 156.564 221.416 156.99 221.92 157.29C222.436 157.578 222.994 157.722 223.594 157.722C224.206 157.722 224.764 157.578 225.268 157.29C225.784 156.99 226.192 156.564 226.492 156.012C226.792 155.448 226.942 154.788 226.942 154.032ZM239.412 153.69C239.412 154.002 239.394 154.332 239.358 154.68H231.474C231.534 155.652 231.864 156.414 232.464 156.966C233.076 157.506 233.814 157.776 234.678 157.776C235.386 157.776 235.974 157.614 236.442 157.29C236.922 156.954 237.258 156.51 237.45 155.958H239.214C238.95 156.906 238.422 157.68 237.63 158.28C236.838 158.868 235.854 159.162 234.678 159.162C233.742 159.162 232.902 158.952 232.158 158.532C231.426 158.112 230.85 157.518 230.43 156.75C230.01 155.97 229.8 155.07 229.8 154.05C229.8 153.03 230.004 152.136 230.412 151.368C230.82 150.6 231.39 150.012 232.122 149.604C232.866 149.184 233.718 148.974 234.678 148.974C235.614 148.974 236.442 149.178 237.162 149.586C237.882 149.994 238.434 150.558 238.818 151.278C239.214 151.986 239.412 152.79 239.412 153.69ZM237.72 153.348C237.72 152.724 237.582 152.19 237.306 151.746C237.03 151.29 236.652 150.948 236.172 150.72C235.704 150.48 235.182 150.36 234.606 150.36C233.778 150.36 233.07 150.624 232.482 151.152C231.906 151.68 231.576 152.412 231.492 153.348H237.72ZM244.706 159.162C243.95 159.162 243.272 159.036 242.672 158.784C242.072 158.52 241.598 158.16 241.25 157.704C240.902 157.236 240.71 156.702 240.674 156.102H242.366C242.414 156.594 242.642 156.996 243.05 157.308C243.47 157.62 244.016 157.776 244.688 157.776C245.312 157.776 245.804 157.638 246.164 157.362C246.524 157.086 246.704 156.738 246.704 156.318C246.704 155.886 246.512 155.568 246.128 155.364C245.744 155.148 245.15 154.938 244.346 154.734C243.614 154.542 243.014 154.35 242.546 154.158C242.09 153.954 241.694 153.66 241.358 153.276C241.034 152.88 240.872 152.364 240.872 151.728C240.872 151.224 241.022 150.762 241.322 150.342C241.622 149.922 242.048 149.592 242.6 149.352C243.152 149.1 243.782 148.974 244.49 148.974C245.582 148.974 246.464 149.25 247.136 149.802C247.808 150.354 248.168 151.11 248.216 152.07H246.578C246.542 151.554 246.332 151.14 245.948 150.828C245.576 150.516 245.072 150.36 244.436 150.36C243.848 150.36 243.38 150.486 243.032 150.738C242.684 150.99 242.51 151.32 242.51 151.728C242.51 152.052 242.612 152.322 242.816 152.538C243.032 152.742 243.296 152.91 243.608 153.042C243.932 153.162 244.376 153.3 244.94 153.456C245.648 153.648 246.224 153.84 246.668 154.032C247.112 154.212 247.49 154.488 247.802 154.86C248.126 155.232 248.294 155.718 248.306 156.318C248.306 156.858 248.156 157.344 247.856 157.776C247.556 158.208 247.13 158.55 246.578 158.802C246.038 159.042 245.414 159.162 244.706 159.162ZM252.256 150.486V156.3C252.256 156.78 252.358 157.122 252.562 157.326C252.766 157.518 253.12 157.614 253.624 157.614H254.83V159H253.354C252.442 159 251.758 158.79 251.302 158.37C250.846 157.95 250.618 157.26 250.618 156.3V150.486H249.34V149.136H250.618V146.652H252.256V149.136H254.83V150.486H252.256ZM256.977 159.108C256.665 159.108 256.401 159 256.185 158.784C255.969 158.568 255.861 158.304 255.861 157.992C255.861 157.68 255.969 157.416 256.185 157.2C256.401 156.984 256.665 156.876 256.977 156.876C257.277 156.876 257.529 156.984 257.733 157.2C257.949 157.416 258.057 157.68 258.057 157.992C258.057 158.304 257.949 158.568 257.733 158.784C257.529 159 257.277 159.108 256.977 159.108Z" fill="black"/>
<path id="Browse and select" d="M117.688 49.36C118.664 49.568 119.448 50.056 120.04 50.824C120.632 51.576 120.928 52.44 120.928 53.416C120.928 54.824 120.432 55.944 119.44 56.776C118.464 57.592 117.096 58 115.336 58H107.488V41.152H115.072C116.784 41.152 118.12 41.544 119.08 42.328C120.056 43.112 120.544 44.176 120.544 45.52C120.544 46.512 120.28 47.336 119.752 47.992C119.24 48.648 118.552 49.104 117.688 49.36ZM111.592 47.968H114.28C114.952 47.968 115.464 47.824 115.816 47.536C116.184 47.232 116.368 46.792 116.368 46.216C116.368 45.64 116.184 45.2 115.816 44.896C115.464 44.592 114.952 44.44 114.28 44.44H111.592V47.968ZM114.616 54.688C115.304 54.688 115.832 54.536 116.2 54.232C116.584 53.912 116.776 53.456 116.776 52.864C116.776 52.272 116.576 51.808 116.176 51.472C115.792 51.136 115.256 50.968 114.568 50.968H111.592V54.688H114.616ZM127.412 46.84C127.892 46.104 128.492 45.528 129.212 45.112C129.932 44.68 130.732 44.464 131.612 44.464V48.808H130.484C129.46 48.808 128.692 49.032 128.18 49.48C127.668 49.912 127.412 50.68 127.412 51.784V58H123.308V44.608H127.412V46.84ZM139.67 58.192C138.358 58.192 137.174 57.912 136.118 57.352C135.078 56.792 134.254 55.992 133.646 54.952C133.054 53.912 132.758 52.696 132.758 51.304C132.758 49.928 133.062 48.72 133.67 47.68C134.278 46.624 135.11 45.816 136.166 45.256C137.222 44.696 138.406 44.416 139.718 44.416C141.03 44.416 142.214 44.696 143.27 45.256C144.326 45.816 145.158 46.624 145.766 47.68C146.374 48.72 146.678 49.928 146.678 51.304C146.678 52.68 146.366 53.896 145.742 54.952C145.134 55.992 144.294 56.792 143.222 57.352C142.166 57.912 140.982 58.192 139.67 58.192ZM139.67 54.64C140.454 54.64 141.118 54.352 141.662 53.776C142.222 53.2 142.502 52.376 142.502 51.304C142.502 50.232 142.23 49.408 141.686 48.832C141.158 48.256 140.502 47.968 139.718 47.968C138.918 47.968 138.254 48.256 137.726 48.832C137.198 49.392 136.934 50.216 136.934 51.304C136.934 52.376 137.19 53.2 137.702 53.776C138.23 54.352 138.886 54.64 139.67 54.64ZM168.079 44.608L164.455 58H159.919L157.807 49.312L155.623 58H151.111L147.463 44.608H151.567L153.463 54.184L155.719 44.608H160.063L162.343 54.136L164.215 44.608H168.079ZM175.092 58.192C173.924 58.192 172.884 57.992 171.972 57.592C171.06 57.192 170.34 56.648 169.812 55.96C169.284 55.256 168.988 54.472 168.924 53.608H172.98C173.028 54.072 173.244 54.448 173.628 54.736C174.012 55.024 174.484 55.168 175.044 55.168C175.556 55.168 175.948 55.072 176.22 54.88C176.508 54.672 176.652 54.408 176.652 54.088C176.652 53.704 176.452 53.424 176.052 53.248C175.652 53.056 175.004 52.848 174.108 52.624C173.148 52.4 172.348 52.168 171.708 51.928C171.068 51.672 170.516 51.28 170.052 50.752C169.588 50.208 169.356 49.48 169.356 48.568C169.356 47.8 169.564 47.104 169.98 46.48C170.412 45.84 171.036 45.336 171.852 44.968C172.684 44.6 173.668 44.416 174.804 44.416C176.484 44.416 177.804 44.832 178.764 45.664C179.74 46.496 180.3 47.6 180.444 48.976H176.652C176.588 48.512 176.38 48.144 176.028 47.872C175.692 47.6 175.244 47.464 174.684 47.464C174.204 47.464 173.836 47.56 173.58 47.752C173.324 47.928 173.196 48.176 173.196 48.496C173.196 48.88 173.396 49.168 173.796 49.36C174.212 49.552 174.852 49.744 175.716 49.936C176.708 50.192 177.516 50.448 178.14 50.704C178.764 50.944 179.308 51.344 179.772 51.904C180.252 52.448 180.5 53.184 180.516 54.112C180.516 54.896 180.292 55.6 179.844 56.224C179.412 56.832 178.78 57.312 177.948 57.664C177.132 58.016 176.18 58.192 175.092 58.192ZM195.651 51.088C195.651 51.472 195.627 51.872 195.579 52.288H186.291C186.355 53.12 186.619 53.76 187.083 54.208C187.563 54.64 188.147 54.856 188.835 54.856C189.859 54.856 190.571 54.424 190.971 53.56H195.339C195.115 54.44 194.707 55.232 194.115 55.936C193.539 56.64 192.811 57.192 191.931 57.592C191.051 57.992 190.067 58.192 188.979 58.192C187.667 58.192 186.499 57.912 185.475 57.352C184.451 56.792 183.651 55.992 183.075 54.952C182.499 53.912 182.211 52.696 182.211 51.304C182.211 49.912 182.491 48.696 183.051 47.656C183.627 46.616 184.427 45.816 185.451 45.256C186.475 44.696 187.651 44.416 188.979 44.416C190.275 44.416 191.427 44.688 192.435 45.232C193.443 45.776 194.227 46.552 194.787 47.56C195.363 48.568 195.651 49.744 195.651 51.088ZM191.451 50.008C191.451 49.304 191.211 48.744 190.731 48.328C190.251 47.912 189.651 47.704 188.931 47.704C188.243 47.704 187.659 47.904 187.179 48.304C186.715 48.704 186.427 49.272 186.315 50.008H191.451ZM202.086 51.28C202.086 49.904 202.342 48.696 202.854 47.656C203.382 46.616 204.094 45.816 204.99 45.256C205.886 44.696 206.886 44.416 207.99 44.416C208.934 44.416 209.758 44.608 210.462 44.992C211.182 45.376 211.734 45.88 212.118 46.504V44.608H216.222V58H212.118V56.104C211.718 56.728 211.158 57.232 210.438 57.616C209.734 58 208.91 58.192 207.966 58.192C206.878 58.192 205.886 57.912 204.99 57.352C204.094 56.776 203.382 55.968 202.854 54.928C202.342 53.872 202.086 52.656 202.086 51.28ZM212.118 51.304C212.118 50.28 211.83 49.472 211.254 48.88C210.694 48.288 210.006 47.992 209.19 47.992C208.374 47.992 207.678 48.288 207.102 48.88C206.542 49.456 206.262 50.256 206.262 51.28C206.262 52.304 206.542 53.12 207.102 53.728C207.678 54.32 208.374 54.616 209.19 54.616C210.006 54.616 210.694 54.32 211.254 53.728C211.83 53.136 212.118 52.328 212.118 51.304ZM227.351 44.464C228.919 44.464 230.167 44.976 231.095 46C232.039 47.008 232.511 48.4 232.511 50.176V58H228.431V50.728C228.431 49.832 228.199 49.136 227.735 48.64C227.271 48.144 226.647 47.896 225.863 47.896C225.079 47.896 224.455 48.144 223.991 48.64C223.527 49.136 223.295 49.832 223.295 50.728V58H219.191V44.608H223.295V46.384C223.711 45.792 224.271 45.328 224.975 44.992C225.679 44.64 226.471 44.464 227.351 44.464ZM234.547 51.28C234.547 49.904 234.803 48.696 235.315 47.656C235.843 46.616 236.555 45.816 237.451 45.256C238.347 44.696 239.347 44.416 240.451 44.416C241.331 44.416 242.131 44.6 242.851 44.968C243.587 45.336 244.163 45.832 244.579 46.456V40.24H248.683V58H244.579V56.08C244.195 56.72 243.643 57.232 242.923 57.616C242.219 58 241.395 58.192 240.451 58.192C239.347 58.192 238.347 57.912 237.451 57.352C236.555 56.776 235.843 55.968 235.315 54.928C234.803 53.872 234.547 52.656 234.547 51.28ZM244.579 51.304C244.579 50.28 244.291 49.472 243.715 48.88C243.155 48.288 242.467 47.992 241.651 47.992C240.835 47.992 240.139 48.288 239.563 48.88C239.003 49.456 238.723 50.256 238.723 51.28C238.723 52.304 239.003 53.12 239.563 53.728C240.139 54.32 240.835 54.616 241.651 54.616C242.467 54.616 243.155 54.32 243.715 53.728C244.291 53.136 244.579 52.328 244.579 51.304ZM262.186 58.192C261.018 58.192 259.978 57.992 259.066 57.592C258.154 57.192 257.434 56.648 256.906 55.96C256.378 55.256 256.082 54.472 256.018 53.608H260.074C260.122 54.072 260.338 54.448 260.722 54.736C261.106 55.024 261.578 55.168 262.138 55.168C262.65 55.168 263.042 55.072 263.314 54.88C263.602 54.672 263.746 54.408 263.746 54.088C263.746 53.704 263.546 53.424 263.146 53.248C262.746 53.056 262.098 52.848 261.202 52.624C260.242 52.4 259.442 52.168 258.802 51.928C258.162 51.672 257.61 51.28 257.146 50.752C256.682 50.208 256.45 49.48 256.45 48.568C256.45 47.8 256.658 47.104 257.074 46.48C257.506 45.84 258.13 45.336 258.946 44.968C259.778 44.6 260.762 44.416 261.898 44.416C263.578 44.416 264.898 44.832 265.858 45.664C266.834 46.496 267.394 47.6 267.538 48.976H263.746C263.682 48.512 263.474 48.144 263.122 47.872C262.786 47.6 262.338 47.464 261.778 47.464C261.298 47.464 260.93 47.56 260.674 47.752C260.418 47.928 260.29 48.176 260.29 48.496C260.29 48.88 260.49 49.168 260.89 49.36C261.306 49.552 261.946 49.744 262.81 49.936C263.802 50.192 264.61 50.448 265.234 50.704C265.858 50.944 266.402 51.344 266.866 51.904C267.346 52.448 267.594 53.184 267.61 54.112C267.61 54.896 267.386 55.6 266.938 56.224C266.506 56.832 265.874 57.312 265.042 57.664C264.226 58.016 263.274 58.192 262.186 58.192ZM282.745 51.088C282.745 51.472 282.721 51.872 282.673 52.288H273.385C273.449 53.12 273.713 53.76 274.177 54.208C274.657 54.64 275.241 54.856 275.929 54.856C276.953 54.856 277.665 54.424 278.065 53.56H282.433C282.209 54.44 281.801 55.232 281.209 55.936C280.633 56.64 279.905 57.192 279.025 57.592C278.145 57.992 277.161 58.192 276.073 58.192C274.761 58.192 273.593 57.912 272.569 57.352C271.545 56.792 270.745 55.992 270.169 54.952C269.593 53.912 269.305 52.696 269.305 51.304C269.305 49.912 269.585 48.696 270.145 47.656C270.721 46.616 271.521 45.816 272.545 45.256C273.569 44.696 274.745 44.416 276.073 44.416C277.369 44.416 278.521 44.688 279.529 45.232C280.537 45.776 281.321 46.552 281.881 47.56C282.457 48.568 282.745 49.744 282.745 51.088ZM278.545 50.008C278.545 49.304 278.305 48.744 277.825 48.328C277.345 47.912 276.745 47.704 276.025 47.704C275.337 47.704 274.753 47.904 274.273 48.304C273.809 48.704 273.521 49.272 273.409 50.008H278.545ZM289.014 40.24V58H284.91V40.24H289.014ZM304.612 51.088C304.612 51.472 304.588 51.872 304.54 52.288H295.252C295.316 53.12 295.58 53.76 296.044 54.208C296.524 54.64 297.108 54.856 297.796 54.856C298.82 54.856 299.532 54.424 299.932 53.56H304.3C304.076 54.44 303.668 55.232 303.076 55.936C302.5 56.64 301.772 57.192 300.892 57.592C300.012 57.992 299.028 58.192 297.94 58.192C296.628 58.192 295.46 57.912 294.436 57.352C293.412 56.792 292.612 55.992 292.036 54.952C291.46 53.912 291.172 52.696 291.172 51.304C291.172 49.912 291.452 48.696 292.012 47.656C292.588 46.616 293.388 45.816 294.412 45.256C295.436 44.696 296.612 44.416 297.94 44.416C299.236 44.416 300.388 44.688 301.396 45.232C302.404 45.776 303.188 46.552 303.748 47.56C304.324 48.568 304.612 49.744 304.612 51.088ZM300.412 50.008C300.412 49.304 300.172 48.744 299.692 48.328C299.212 47.912 298.612 47.704 297.892 47.704C297.204 47.704 296.62 47.904 296.14 48.304C295.676 48.704 295.388 49.272 295.276 50.008H300.412ZM305.961 51.304C305.961 49.912 306.241 48.696 306.801 47.656C307.377 46.616 308.169 45.816 309.177 45.256C310.201 44.696 311.369 44.416 312.681 44.416C314.361 44.416 315.761 44.856 316.881 45.736C318.017 46.616 318.761 47.856 319.113 49.456H314.745C314.377 48.432 313.665 47.92 312.609 47.92C311.857 47.92 311.257 48.216 310.809 48.808C310.361 49.384 310.137 50.216 310.137 51.304C310.137 52.392 310.361 53.232 310.809 53.824C311.257 54.4 311.857 54.688 312.609 54.688C313.665 54.688 314.377 54.176 314.745 53.152H319.113C318.761 54.72 318.017 55.952 316.881 56.848C315.745 57.744 314.345 58.192 312.681 58.192C311.369 58.192 310.201 57.912 309.177 57.352C308.169 56.792 307.377 55.992 306.801 54.952C306.241 53.912 305.961 52.696 305.961 51.304ZM328.772 54.52V58H326.684C325.196 58 324.036 57.64 323.204 56.92C322.372 56.184 321.956 54.992 321.956 53.344V48.016H320.324V44.608H321.956V41.344H326.06V44.608H328.748V48.016H326.06V53.392C326.06 53.792 326.156 54.08 326.348 54.256C326.54 54.432 326.86 54.52 327.308 54.52H328.772Z" fill="black"/>
<rect id="Rectangle 94" x="32" y="32" width="54" height="106" rx="16" fill="#F5F5F5"/>
<g id="search-lg">
<path id="Icon" d="M68 94L64.5001 90.5M67 84.5C67 89.1944 63.1944 93 58.5 93C53.8056 93 50 89.1944 50 84.5C50 79.8056 53.8056 76 58.5 76C63.1944 76 67 79.8056 67 84.5Z" stroke="black" stroke-width="2" stroke-linecap="round" stroke-linejoin="round"/>
</g>
</g>
</g>
</g>
<defs>
<clipPath id="clip0_0_1">
<rect width="1440" height="6342" fill="white" transform="translate(-112 -3913)"/>
</clipPath>
</defs>
</svg>
