<svg width="592" height="170" viewBox="0 0 592 170" fill="none" xmlns="http://www.w3.org/2000/svg">
<rect width="592" height="170" fill="#1E1E1E"/>
<g id="Home" clip-path="url(#clip0_0_1)">
<rect width="1440" height="6342" transform="translate(-112 -4099)" fill="white"/>
<g id="Group 125">
<g id="Group 113">
<g id="Rectangle 93">
<rect width="592" height="170" rx="24" fill="white"/>
<rect x="0.5" y="0.5" width="591" height="169" rx="23.5" stroke="black" stroke-opacity="0.1"/>
</g>
<path id="Book your desired car with just a few clicks and receive an instant confirmation via email or SMS." d="M113.668 94.538C114.124 94.61 114.538 94.796 114.91 95.096C115.294 95.396 115.594 95.768 115.81 96.212C116.038 96.656 116.152 97.13 116.152 97.634C116.152 98.27 115.99 98.846 115.666 99.362C115.342 99.866 114.868 100.268 114.244 100.568C113.632 100.856 112.906 101 112.066 101H107.386V88.454H111.886C112.738 88.454 113.464 88.598 114.064 88.886C114.664 89.162 115.114 89.54 115.414 90.02C115.714 90.5 115.864 91.04 115.864 91.64C115.864 92.384 115.66 93.002 115.252 93.494C114.856 93.974 114.328 94.322 113.668 94.538ZM109.024 93.872H111.778C112.546 93.872 113.14 93.692 113.56 93.332C113.98 92.972 114.19 92.474 114.19 91.838C114.19 91.202 113.98 90.704 113.56 90.344C113.14 89.984 112.534 89.804 111.742 89.804H109.024V93.872ZM111.922 99.65C112.738 99.65 113.374 99.458 113.83 99.074C114.286 98.69 114.514 98.156 114.514 97.472C114.514 96.776 114.274 96.23 113.794 95.834C113.314 95.426 112.672 95.222 111.868 95.222H109.024V99.65H111.922ZM122.367 101.162C121.443 101.162 120.603 100.952 119.847 100.532C119.103 100.112 118.515 99.518 118.083 98.75C117.663 97.97 117.453 97.07 117.453 96.05C117.453 95.042 117.669 94.154 118.101 93.386C118.545 92.606 119.145 92.012 119.901 91.604C120.657 91.184 121.503 90.974 122.439 90.974C123.375 90.974 124.221 91.184 124.977 91.604C125.733 92.012 126.327 92.6 126.759 93.368C127.203 94.136 127.425 95.03 127.425 96.05C127.425 97.07 127.197 97.97 126.741 98.75C126.297 99.518 125.691 100.112 124.923 100.532C124.155 100.952 123.303 101.162 122.367 101.162ZM122.367 99.722C122.955 99.722 123.507 99.584 124.023 99.308C124.539 99.032 124.953 98.618 125.265 98.066C125.589 97.514 125.751 96.842 125.751 96.05C125.751 95.258 125.595 94.586 125.283 94.034C124.971 93.482 124.563 93.074 124.059 92.81C123.555 92.534 123.009 92.396 122.421 92.396C121.821 92.396 121.269 92.534 120.765 92.81C120.273 93.074 119.877 93.482 119.577 94.034C119.277 94.586 119.127 95.258 119.127 96.05C119.127 96.854 119.271 97.532 119.559 98.084C119.859 98.636 120.255 99.05 120.747 99.326C121.239 99.59 121.779 99.722 122.367 99.722ZM133.521 101.162C132.597 101.162 131.757 100.952 131.001 100.532C130.257 100.112 129.669 99.518 129.237 98.75C128.817 97.97 128.607 97.07 128.607 96.05C128.607 95.042 128.823 94.154 129.255 93.386C129.699 92.606 130.299 92.012 131.055 91.604C131.811 91.184 132.657 90.974 133.593 90.974C134.529 90.974 135.375 91.184 136.131 91.604C136.887 92.012 137.481 92.6 137.913 93.368C138.357 94.136 138.579 95.03 138.579 96.05C138.579 97.07 138.351 97.97 137.895 98.75C137.451 99.518 136.845 100.112 136.077 100.532C135.309 100.952 134.457 101.162 133.521 101.162ZM133.521 99.722C134.109 99.722 134.661 99.584 135.177 99.308C135.693 99.032 136.107 98.618 136.419 98.066C136.743 97.514 136.905 96.842 136.905 96.05C136.905 95.258 136.749 94.586 136.437 94.034C136.125 93.482 135.717 93.074 135.213 92.81C134.709 92.534 134.163 92.396 133.575 92.396C132.975 92.396 132.423 92.534 131.919 92.81C131.427 93.074 131.031 93.482 130.731 94.034C130.431 94.586 130.281 95.258 130.281 96.05C130.281 96.854 130.425 97.532 130.713 98.084C131.013 98.636 131.409 99.05 131.901 99.326C132.393 99.59 132.933 99.722 133.521 99.722ZM145.88 101L142.01 96.644V101H140.372V87.68H142.01V95.51L145.808 91.136H148.094L143.45 96.05L148.112 101H145.88ZM162.211 91.136L156.271 105.644H154.579L156.523 100.892L152.545 91.136H154.363L157.459 99.128L160.519 91.136H162.211ZM167.799 101.162C166.875 101.162 166.035 100.952 165.279 100.532C164.535 100.112 163.947 99.518 163.515 98.75C163.095 97.97 162.885 97.07 162.885 96.05C162.885 95.042 163.101 94.154 163.533 93.386C163.977 92.606 164.577 92.012 165.333 91.604C166.089 91.184 166.935 90.974 167.871 90.974C168.807 90.974 169.653 91.184 170.409 91.604C171.165 92.012 171.759 92.6 172.191 93.368C172.635 94.136 172.857 95.03 172.857 96.05C172.857 97.07 172.629 97.97 172.173 98.75C171.729 99.518 171.123 100.112 170.355 100.532C169.587 100.952 168.735 101.162 167.799 101.162ZM167.799 99.722C168.387 99.722 168.939 99.584 169.455 99.308C169.971 99.032 170.385 98.618 170.697 98.066C171.021 97.514 171.183 96.842 171.183 96.05C171.183 95.258 171.027 94.586 170.715 94.034C170.403 93.482 169.995 93.074 169.491 92.81C168.987 92.534 168.441 92.396 167.853 92.396C167.253 92.396 166.701 92.534 166.197 92.81C165.705 93.074 165.309 93.482 165.009 94.034C164.709 94.586 164.559 95.258 164.559 96.05C164.559 96.854 164.703 97.532 164.991 98.084C165.291 98.636 165.687 99.05 166.179 99.326C166.671 99.59 167.211 99.722 167.799 99.722ZM183.399 91.136V101H181.761V99.542C181.449 100.046 181.011 100.442 180.447 100.73C179.895 101.006 179.283 101.144 178.611 101.144C177.843 101.144 177.153 100.988 176.541 100.676C175.929 100.352 175.443 99.872 175.083 99.236C174.735 98.6 174.561 97.826 174.561 96.914V91.136H176.181V96.698C176.181 97.67 176.427 98.42 176.919 98.948C177.411 99.464 178.083 99.722 178.935 99.722C179.811 99.722 180.501 99.452 181.005 98.912C181.509 98.372 181.761 97.586 181.761 96.554V91.136H183.399ZM187.443 92.738C187.731 92.174 188.139 91.736 188.667 91.424C189.207 91.112 189.861 90.956 190.629 90.956V92.648H190.197C188.361 92.648 187.443 93.644 187.443 95.636V101H185.805V91.136H187.443V92.738ZM195.987 96.032C195.987 95.024 196.191 94.142 196.599 93.386C197.007 92.618 197.565 92.024 198.273 91.604C198.993 91.184 199.797 90.974 200.685 90.974C201.453 90.974 202.167 91.154 202.827 91.514C203.487 91.862 203.991 92.324 204.339 92.9V87.68H205.995V101H204.339V99.146C204.015 99.734 203.535 100.22 202.899 100.604C202.263 100.976 201.519 101.162 200.667 101.162C199.791 101.162 198.993 100.946 198.273 100.514C197.565 100.082 197.007 99.476 196.599 98.696C196.191 97.916 195.987 97.028 195.987 96.032ZM204.339 96.05C204.339 95.306 204.189 94.658 203.889 94.106C203.589 93.554 203.181 93.134 202.665 92.846C202.161 92.546 201.603 92.396 200.991 92.396C200.379 92.396 199.821 92.54 199.317 92.828C198.813 93.116 198.411 93.536 198.111 94.088C197.811 94.64 197.661 95.288 197.661 96.032C197.661 96.788 197.811 97.448 198.111 98.012C198.411 98.564 198.813 98.99 199.317 99.29C199.821 99.578 200.379 99.722 200.991 99.722C201.603 99.722 202.161 99.578 202.665 99.29C203.181 98.99 203.589 98.564 203.889 98.012C204.189 97.448 204.339 96.794 204.339 96.05ZM217.403 95.69C217.403 96.002 217.385 96.332 217.349 96.68H209.465C209.525 97.652 209.855 98.414 210.455 98.966C211.067 99.506 211.805 99.776 212.669 99.776C213.377 99.776 213.965 99.614 214.433 99.29C214.913 98.954 215.249 98.51 215.441 97.958H217.205C216.941 98.906 216.413 99.68 215.621 100.28C214.829 100.868 213.845 101.162 212.669 101.162C211.733 101.162 210.893 100.952 210.149 100.532C209.417 100.112 208.841 99.518 208.421 98.75C208.001 97.97 207.791 97.07 207.791 96.05C207.791 95.03 207.995 94.136 208.403 93.368C208.811 92.6 209.381 92.012 210.113 91.604C210.857 91.184 211.709 90.974 212.669 90.974C213.605 90.974 214.433 91.178 215.153 91.586C215.873 91.994 216.425 92.558 216.809 93.278C217.205 93.986 217.403 94.79 217.403 95.69ZM215.711 95.348C215.711 94.724 215.573 94.19 215.297 93.746C215.021 93.29 214.643 92.948 214.163 92.72C213.695 92.48 213.173 92.36 212.597 92.36C211.769 92.36 211.061 92.624 210.473 93.152C209.897 93.68 209.567 94.412 209.483 95.348H215.711ZM222.697 101.162C221.941 101.162 221.263 101.036 220.663 100.784C220.063 100.52 219.589 100.16 219.241 99.704C218.893 99.236 218.701 98.702 218.665 98.102H220.357C220.405 98.594 220.633 98.996 221.041 99.308C221.461 99.62 222.007 99.776 222.679 99.776C223.303 99.776 223.795 99.638 224.155 99.362C224.515 99.086 224.695 98.738 224.695 98.318C224.695 97.886 224.503 97.568 224.119 97.364C223.735 97.148 223.141 96.938 222.337 96.734C221.605 96.542 221.005 96.35 220.537 96.158C220.081 95.954 219.685 95.66 219.349 95.276C219.025 94.88 218.863 94.364 218.863 93.728C218.863 93.224 219.013 92.762 219.313 92.342C219.613 91.922 220.039 91.592 220.591 91.352C221.143 91.1 221.773 90.974 222.481 90.974C223.573 90.974 224.455 91.25 225.127 91.802C225.799 92.354 226.159 93.11 226.207 94.07H224.569C224.533 93.554 224.323 93.14 223.939 92.828C223.567 92.516 223.063 92.36 222.427 92.36C221.839 92.36 221.371 92.486 221.023 92.738C220.675 92.99 220.501 93.32 220.501 93.728C220.501 94.052 220.603 94.322 220.807 94.538C221.023 94.742 221.287 94.91 221.599 95.042C221.923 95.162 222.367 95.3 222.931 95.456C223.639 95.648 224.215 95.84 224.659 96.032C225.103 96.212 225.481 96.488 225.793 96.86C226.117 97.232 226.285 97.718 226.297 98.318C226.297 98.858 226.147 99.344 225.847 99.776C225.547 100.208 225.121 100.55 224.569 100.802C224.029 101.042 223.405 101.162 222.697 101.162ZM229.095 89.534C228.783 89.534 228.519 89.426 228.303 89.21C228.087 88.994 227.979 88.73 227.979 88.418C227.979 88.106 228.087 87.842 228.303 87.626C228.519 87.41 228.783 87.302 229.095 87.302C229.395 87.302 229.647 87.41 229.851 87.626C230.067 87.842 230.175 88.106 230.175 88.418C230.175 88.73 230.067 88.994 229.851 89.21C229.647 89.426 229.395 89.534 229.095 89.534ZM229.887 91.136V101H228.249V91.136H229.887ZM233.957 92.738C234.245 92.174 234.653 91.736 235.181 91.424C235.721 91.112 236.375 90.956 237.143 90.956V92.648H236.711C234.875 92.648 233.957 93.644 233.957 95.636V101H232.319V91.136H233.957V92.738ZM247.674 95.69C247.674 96.002 247.656 96.332 247.62 96.68H239.736C239.796 97.652 240.126 98.414 240.726 98.966C241.338 99.506 242.076 99.776 242.94 99.776C243.648 99.776 244.236 99.614 244.704 99.29C245.184 98.954 245.52 98.51 245.712 97.958H247.476C247.212 98.906 246.684 99.68 245.892 100.28C245.1 100.868 244.116 101.162 242.94 101.162C242.004 101.162 241.164 100.952 240.42 100.532C239.688 100.112 239.112 99.518 238.692 98.75C238.272 97.97 238.062 97.07 238.062 96.05C238.062 95.03 238.266 94.136 238.674 93.368C239.082 92.6 239.652 92.012 240.384 91.604C241.128 91.184 241.98 90.974 242.94 90.974C243.876 90.974 244.704 91.178 245.424 91.586C246.144 91.994 246.696 92.558 247.08 93.278C247.476 93.986 247.674 94.79 247.674 95.69ZM245.982 95.348C245.982 94.724 245.844 94.19 245.568 93.746C245.292 93.29 244.914 92.948 244.434 92.72C243.966 92.48 243.444 92.36 242.868 92.36C242.04 92.36 241.332 92.624 240.744 93.152C240.168 93.68 239.838 94.412 239.754 95.348H245.982ZM248.864 96.032C248.864 95.024 249.068 94.142 249.476 93.386C249.884 92.618 250.442 92.024 251.15 91.604C251.87 91.184 252.674 90.974 253.562 90.974C254.33 90.974 255.044 91.154 255.704 91.514C256.364 91.862 256.868 92.324 257.216 92.9V87.68H258.872V101H257.216V99.146C256.892 99.734 256.412 100.22 255.776 100.604C255.14 100.976 254.396 101.162 253.544 101.162C252.668 101.162 251.87 100.946 251.15 100.514C250.442 100.082 249.884 99.476 249.476 98.696C249.068 97.916 248.864 97.028 248.864 96.032ZM257.216 96.05C257.216 95.306 257.066 94.658 256.766 94.106C256.466 93.554 256.058 93.134 255.542 92.846C255.038 92.546 254.48 92.396 253.868 92.396C253.256 92.396 252.698 92.54 252.194 92.828C251.69 93.116 251.288 93.536 250.988 94.088C250.688 94.64 250.538 95.288 250.538 96.032C250.538 96.788 250.688 97.448 250.988 98.012C251.288 98.564 251.69 98.99 252.194 99.29C252.698 99.578 253.256 99.722 253.868 99.722C254.48 99.722 255.038 99.578 255.542 99.29C256.058 98.99 256.466 98.564 256.766 98.012C257.066 97.448 257.216 96.794 257.216 96.05ZM265.107 96.05C265.107 95.03 265.311 94.142 265.719 93.386C266.127 92.618 266.691 92.024 267.411 91.604C268.143 91.184 268.977 90.974 269.913 90.974C271.125 90.974 272.121 91.268 272.901 91.856C273.693 92.444 274.215 93.26 274.467 94.304H272.703C272.535 93.704 272.205 93.23 271.713 92.882C271.233 92.534 270.633 92.36 269.913 92.36C268.977 92.36 268.221 92.684 267.645 93.332C267.069 93.968 266.781 94.874 266.781 96.05C266.781 97.238 267.069 98.156 267.645 98.804C268.221 99.452 268.977 99.776 269.913 99.776C270.633 99.776 271.233 99.608 271.713 99.272C272.193 98.936 272.523 98.456 272.703 97.832H274.467C274.203 98.84 273.675 99.65 272.883 100.262C272.091 100.862 271.101 101.162 269.913 101.162C268.977 101.162 268.143 100.952 267.411 100.532C266.691 100.112 266.127 99.518 265.719 98.75C265.311 97.982 265.107 97.082 265.107 96.05ZM275.68 96.032C275.68 95.024 275.884 94.142 276.292 93.386C276.7 92.618 277.258 92.024 277.966 91.604C278.686 91.184 279.484 90.974 280.36 90.974C281.224 90.974 281.974 91.16 282.61 91.532C283.246 91.904 283.72 92.372 284.032 92.936V91.136H285.688V101H284.032V99.164C283.708 99.74 283.222 100.22 282.574 100.604C281.938 100.976 281.194 101.162 280.342 101.162C279.466 101.162 278.674 100.946 277.966 100.514C277.258 100.082 276.7 99.476 276.292 98.696C275.884 97.916 275.68 97.028 275.68 96.032ZM284.032 96.05C284.032 95.306 283.882 94.658 283.582 94.106C283.282 93.554 282.874 93.134 282.358 92.846C281.854 92.546 281.296 92.396 280.684 92.396C280.072 92.396 279.514 92.54 279.01 92.828C278.506 93.116 278.104 93.536 277.804 94.088C277.504 94.64 277.354 95.288 277.354 96.032C277.354 96.788 277.504 97.448 277.804 98.012C278.104 98.564 278.506 98.99 279.01 99.29C279.514 99.578 280.072 99.722 280.684 99.722C281.296 99.722 281.854 99.578 282.358 99.29C282.874 98.99 283.282 98.564 283.582 98.012C283.882 97.448 284.032 96.794 284.032 96.05ZM289.734 92.738C290.022 92.174 290.43 91.736 290.958 91.424C291.498 91.112 292.152 90.956 292.92 90.956V92.648H292.488C290.652 92.648 289.734 93.644 289.734 95.636V101H288.096V91.136H289.734V92.738ZM312.03 91.136L308.952 101H307.26L304.884 93.17L302.508 101H300.816L297.72 91.136H299.394L301.662 99.416L304.11 91.136H305.784L308.178 99.434L310.41 91.136H312.03ZM314.141 89.534C313.829 89.534 313.565 89.426 313.349 89.21C313.133 88.994 313.025 88.73 313.025 88.418C313.025 88.106 313.133 87.842 313.349 87.626C313.565 87.41 313.829 87.302 314.141 87.302C314.441 87.302 314.693 87.41 314.897 87.626C315.113 87.842 315.221 88.106 315.221 88.418C315.221 88.73 315.113 88.994 314.897 89.21C314.693 89.426 314.441 89.534 314.141 89.534ZM314.933 91.136V101H313.295V91.136H314.933ZM319.363 92.486V98.3C319.363 98.78 319.465 99.122 319.669 99.326C319.873 99.518 320.227 99.614 320.731 99.614H321.937V101H320.461C319.549 101 318.865 100.79 318.409 100.37C317.953 99.95 317.725 99.26 317.725 98.3V92.486H316.447V91.136H317.725V88.652H319.363V91.136H321.937V92.486H319.363ZM328.458 90.956C329.202 90.956 329.874 91.118 330.474 91.442C331.074 91.754 331.542 92.228 331.878 92.864C332.226 93.5 332.4 94.274 332.4 95.186V101H330.78V95.42C330.78 94.436 330.534 93.686 330.042 93.17C329.55 92.642 328.878 92.378 328.026 92.378C327.162 92.378 326.472 92.648 325.956 93.188C325.452 93.728 325.2 94.514 325.2 95.546V101H323.562V87.68H325.2V92.54C325.524 92.036 325.968 91.646 326.532 91.37C327.108 91.094 327.75 90.956 328.458 90.956ZM340.036 89.534C339.724 89.534 339.46 89.426 339.244 89.21C339.04 88.994 338.938 88.73 338.938 88.418C338.938 88.106 339.04 87.842 339.244 87.626C339.46 87.41 339.724 87.302 340.036 87.302C340.348 87.302 340.606 87.41 340.81 87.626C341.026 87.842 341.134 88.106 341.134 88.418C341.134 88.73 341.026 88.994 340.81 89.21C340.606 89.426 340.348 89.534 340.036 89.534ZM340.846 103.142C340.846 104.018 340.624 104.66 340.18 105.068C339.736 105.476 339.088 105.68 338.236 105.68H337.282V104.294H337.966C338.422 104.294 338.74 104.204 338.92 104.024C339.112 103.844 339.208 103.538 339.208 103.106V91.136H340.846V103.142ZM352.007 91.136V101H350.369V99.542C350.057 100.046 349.619 100.442 349.055 100.73C348.503 101.006 347.891 101.144 347.219 101.144C346.451 101.144 345.761 100.988 345.149 100.676C344.537 100.352 344.051 99.872 343.691 99.236C343.343 98.6 343.169 97.826 343.169 96.914V91.136H344.789V96.698C344.789 97.67 345.035 98.42 345.527 98.948C346.019 99.464 346.691 99.722 347.543 99.722C348.419 99.722 349.109 99.452 349.613 98.912C350.117 98.372 350.369 97.586 350.369 96.554V91.136H352.007ZM357.905 101.162C357.149 101.162 356.471 101.036 355.871 100.784C355.271 100.52 354.797 100.16 354.449 99.704C354.101 99.236 353.909 98.702 353.873 98.102H355.565C355.613 98.594 355.841 98.996 356.249 99.308C356.669 99.62 357.215 99.776 357.887 99.776C358.511 99.776 359.003 99.638 359.363 99.362C359.723 99.086 359.903 98.738 359.903 98.318C359.903 97.886 359.711 97.568 359.327 97.364C358.943 97.148 358.349 96.938 357.545 96.734C356.813 96.542 356.213 96.35 355.745 96.158C355.289 95.954 354.893 95.66 354.557 95.276C354.233 94.88 354.071 94.364 354.071 93.728C354.071 93.224 354.221 92.762 354.521 92.342C354.821 91.922 355.247 91.592 355.799 91.352C356.351 91.1 356.981 90.974 357.689 90.974C358.781 90.974 359.663 91.25 360.335 91.802C361.007 92.354 361.367 93.11 361.415 94.07H359.777C359.741 93.554 359.531 93.14 359.147 92.828C358.775 92.516 358.271 92.36 357.635 92.36C357.047 92.36 356.579 92.486 356.231 92.738C355.883 92.99 355.709 93.32 355.709 93.728C355.709 94.052 355.811 94.322 356.015 94.538C356.231 94.742 356.495 94.91 356.807 95.042C357.131 95.162 357.575 95.3 358.139 95.456C358.847 95.648 359.423 95.84 359.867 96.032C360.311 96.212 360.689 96.488 361.001 96.86C361.325 97.232 361.493 97.718 361.505 98.318C361.505 98.858 361.355 99.344 361.055 99.776C360.755 100.208 360.329 100.55 359.777 100.802C359.237 101.042 358.613 101.162 357.905 101.162ZM365.455 92.486V98.3C365.455 98.78 365.557 99.122 365.761 99.326C365.965 99.518 366.319 99.614 366.823 99.614H368.029V101H366.553C365.641 101 364.957 100.79 364.501 100.37C364.045 99.95 363.817 99.26 363.817 98.3V92.486H362.539V91.136H363.817V88.652H365.455V91.136H368.029V92.486H365.455ZM373.481 96.032C373.481 95.024 373.685 94.142 374.093 93.386C374.501 92.618 375.059 92.024 375.767 91.604C376.487 91.184 377.285 90.974 378.161 90.974C379.025 90.974 379.775 91.16 380.411 91.532C381.047 91.904 381.521 92.372 381.833 92.936V91.136H383.489V101H381.833V99.164C381.509 99.74 381.023 100.22 380.375 100.604C379.739 100.976 378.995 101.162 378.143 101.162C377.267 101.162 376.475 100.946 375.767 100.514C375.059 100.082 374.501 99.476 374.093 98.696C373.685 97.916 373.481 97.028 373.481 96.032ZM381.833 96.05C381.833 95.306 381.683 94.658 381.383 94.106C381.083 93.554 380.675 93.134 380.159 92.846C379.655 92.546 379.097 92.396 378.485 92.396C377.873 92.396 377.315 92.54 376.811 92.828C376.307 93.116 375.905 93.536 375.605 94.088C375.305 94.64 375.155 95.288 375.155 96.032C375.155 96.788 375.305 97.448 375.605 98.012C375.905 98.564 376.307 98.99 376.811 99.29C377.315 99.578 377.873 99.722 378.485 99.722C379.097 99.722 379.655 99.578 380.159 99.29C380.675 98.99 381.083 98.564 381.383 98.012C381.683 97.448 381.833 96.794 381.833 96.05ZM394.349 92.486H392.279V101H390.641V92.486H389.363V91.136H390.641V90.434C390.641 89.33 390.923 88.526 391.487 88.022C392.063 87.506 392.981 87.248 394.241 87.248V88.616C393.521 88.616 393.011 88.76 392.711 89.048C392.423 89.324 392.279 89.786 392.279 90.434V91.136H394.349V92.486ZM404.899 95.69C404.899 96.002 404.881 96.332 404.845 96.68H396.961C397.021 97.652 397.351 98.414 397.951 98.966C398.563 99.506 399.301 99.776 400.165 99.776C400.873 99.776 401.461 99.614 401.929 99.29C402.409 98.954 402.745 98.51 402.937 97.958H404.701C404.437 98.906 403.909 99.68 403.117 100.28C402.325 100.868 401.341 101.162 400.165 101.162C399.229 101.162 398.389 100.952 397.645 100.532C396.913 100.112 396.337 99.518 395.917 98.75C395.497 97.97 395.287 97.07 395.287 96.05C395.287 95.03 395.491 94.136 395.899 93.368C396.307 92.6 396.877 92.012 397.609 91.604C398.353 91.184 399.205 90.974 400.165 90.974C401.101 90.974 401.929 91.178 402.649 91.586C403.369 91.994 403.921 92.558 404.305 93.278C404.701 93.986 404.899 94.79 404.899 95.69ZM403.207 95.348C403.207 94.724 403.069 94.19 402.793 93.746C402.517 93.29 402.139 92.948 401.659 92.72C401.191 92.48 400.669 92.36 400.093 92.36C399.265 92.36 398.557 92.624 397.969 93.152C397.393 93.68 397.063 94.412 396.979 95.348H403.207ZM419.841 91.136L416.763 101H415.071L412.695 93.17L410.319 101H408.627L405.531 91.136H407.205L409.473 99.416L411.921 91.136H413.595L415.989 99.434L418.221 91.136H419.841ZM424.934 96.05C424.934 95.03 425.138 94.142 425.546 93.386C425.954 92.618 426.518 92.024 427.238 91.604C427.97 91.184 428.804 90.974 429.74 90.974C430.952 90.974 431.948 91.268 432.728 91.856C433.52 92.444 434.042 93.26 434.294 94.304H432.53C432.362 93.704 432.032 93.23 431.54 92.882C431.06 92.534 430.46 92.36 429.74 92.36C428.804 92.36 428.048 92.684 427.472 93.332C426.896 93.968 426.608 94.874 426.608 96.05C426.608 97.238 426.896 98.156 427.472 98.804C428.048 99.452 428.804 99.776 429.74 99.776C430.46 99.776 431.06 99.608 431.54 99.272C432.02 98.936 432.35 98.456 432.53 97.832H434.294C434.03 98.84 433.502 99.65 432.71 100.262C431.918 100.862 430.928 101.162 429.74 101.162C428.804 101.162 427.97 100.952 427.238 100.532C426.518 100.112 425.954 99.518 425.546 98.75C425.138 97.982 424.934 97.082 424.934 96.05ZM437.757 87.68V101H436.119V87.68H437.757ZM441.035 89.534C440.723 89.534 440.459 89.426 440.243 89.21C440.027 88.994 439.919 88.73 439.919 88.418C439.919 88.106 440.027 87.842 440.243 87.626C440.459 87.41 440.723 87.302 441.035 87.302C441.335 87.302 441.587 87.41 441.791 87.626C442.007 87.842 442.115 88.106 442.115 88.418C442.115 88.73 442.007 88.994 441.791 89.21C441.587 89.426 441.335 89.534 441.035 89.534ZM441.827 91.136V101H440.189V91.136H441.827ZM443.647 96.05C443.647 95.03 443.851 94.142 444.259 93.386C444.667 92.618 445.231 92.024 445.951 91.604C446.683 91.184 447.517 90.974 448.453 90.974C449.665 90.974 450.661 91.268 451.441 91.856C452.233 92.444 452.755 93.26 453.007 94.304H451.243C451.075 93.704 450.745 93.23 450.253 92.882C449.773 92.534 449.173 92.36 448.453 92.36C447.517 92.36 446.761 92.684 446.185 93.332C445.609 93.968 445.321 94.874 445.321 96.05C445.321 97.238 445.609 98.156 446.185 98.804C446.761 99.452 447.517 99.776 448.453 99.776C449.173 99.776 449.773 99.608 450.253 99.272C450.733 98.936 451.063 98.456 451.243 97.832H453.007C452.743 98.84 452.215 99.65 451.423 100.262C450.631 100.862 449.641 101.162 448.453 101.162C447.517 101.162 446.683 100.952 445.951 100.532C445.231 100.112 444.667 99.518 444.259 98.75C443.851 97.982 443.647 97.082 443.647 96.05ZM460.34 101L456.47 96.644V101H454.832V87.68H456.47V95.51L460.268 91.136H462.554L457.91 96.05L462.572 101H460.34ZM467.228 101.162C466.472 101.162 465.794 101.036 465.194 100.784C464.594 100.52 464.12 100.16 463.772 99.704C463.424 99.236 463.232 98.702 463.196 98.102H464.888C464.936 98.594 465.164 98.996 465.572 99.308C465.992 99.62 466.538 99.776 467.21 99.776C467.834 99.776 468.326 99.638 468.686 99.362C469.046 99.086 469.226 98.738 469.226 98.318C469.226 97.886 469.034 97.568 468.65 97.364C468.266 97.148 467.672 96.938 466.868 96.734C466.136 96.542 465.536 96.35 465.068 96.158C464.612 95.954 464.216 95.66 463.88 95.276C463.556 94.88 463.394 94.364 463.394 93.728C463.394 93.224 463.544 92.762 463.844 92.342C464.144 91.922 464.57 91.592 465.122 91.352C465.674 91.1 466.304 90.974 467.012 90.974C468.104 90.974 468.986 91.25 469.658 91.802C470.33 92.354 470.69 93.11 470.738 94.07H469.1C469.064 93.554 468.854 93.14 468.47 92.828C468.098 92.516 467.594 92.36 466.958 92.36C466.37 92.36 465.902 92.486 465.554 92.738C465.206 92.99 465.032 93.32 465.032 93.728C465.032 94.052 465.134 94.322 465.338 94.538C465.554 94.742 465.818 94.91 466.13 95.042C466.454 95.162 466.898 95.3 467.462 95.456C468.17 95.648 468.746 95.84 469.19 96.032C469.634 96.212 470.012 96.488 470.324 96.86C470.648 97.232 470.816 97.718 470.828 98.318C470.828 98.858 470.678 99.344 470.378 99.776C470.078 100.208 469.652 100.55 469.1 100.802C468.56 101.042 467.936 101.162 467.228 101.162ZM476.607 96.032C476.607 95.024 476.811 94.142 477.219 93.386C477.627 92.618 478.185 92.024 478.893 91.604C479.613 91.184 480.411 90.974 481.287 90.974C482.151 90.974 482.901 91.16 483.537 91.532C484.173 91.904 484.647 92.372 484.959 92.936V91.136H486.615V101H484.959V99.164C484.635 99.74 484.149 100.22 483.501 100.604C482.865 100.976 482.121 101.162 481.269 101.162C480.393 101.162 479.601 100.946 478.893 100.514C478.185 100.082 477.627 99.476 477.219 98.696C476.811 97.916 476.607 97.028 476.607 96.032ZM484.959 96.05C484.959 95.306 484.809 94.658 484.509 94.106C484.209 93.554 483.801 93.134 483.285 92.846C482.781 92.546 482.223 92.396 481.611 92.396C480.999 92.396 480.441 92.54 479.937 92.828C479.433 93.116 479.031 93.536 478.731 94.088C478.431 94.64 478.281 95.288 478.281 96.032C478.281 96.788 478.431 97.448 478.731 98.012C479.031 98.564 479.433 98.99 479.937 99.29C480.441 99.578 480.999 99.722 481.611 99.722C482.223 99.722 482.781 99.578 483.285 99.29C483.801 98.99 484.209 98.564 484.509 98.012C484.809 97.448 484.959 96.794 484.959 96.05ZM493.829 90.956C495.029 90.956 496.001 91.322 496.745 92.054C497.489 92.774 497.861 93.818 497.861 95.186V101H496.241V95.42C496.241 94.436 495.995 93.686 495.503 93.17C495.011 92.642 494.339 92.378 493.487 92.378C492.623 92.378 491.933 92.648 491.417 93.188C490.913 93.728 490.661 94.514 490.661 95.546V101H489.023V91.136H490.661V92.54C490.985 92.036 491.423 91.646 491.975 91.37C492.539 91.094 493.157 90.956 493.829 90.956ZM499.565 96.032C499.565 95.024 499.769 94.142 500.177 93.386C500.585 92.618 501.143 92.024 501.851 91.604C502.571 91.184 503.375 90.974 504.263 90.974C505.031 90.974 505.745 91.154 506.405 91.514C507.065 91.862 507.569 92.324 507.917 92.9V87.68H509.573V101H507.917V99.146C507.593 99.734 507.113 100.22 506.477 100.604C505.841 100.976 505.097 101.162 504.245 101.162C503.369 101.162 502.571 100.946 501.851 100.514C501.143 100.082 500.585 99.476 500.177 98.696C499.769 97.916 499.565 97.028 499.565 96.032ZM507.917 96.05C507.917 95.306 507.767 94.658 507.467 94.106C507.167 93.554 506.759 93.134 506.243 92.846C505.739 92.546 505.181 92.396 504.569 92.396C503.957 92.396 503.399 92.54 502.895 92.828C502.391 93.116 501.989 93.536 501.689 94.088C501.389 94.64 501.239 95.288 501.239 96.032C501.239 96.788 501.389 97.448 501.689 98.012C501.989 98.564 502.391 98.99 502.895 99.29C503.399 99.578 503.957 99.722 504.569 99.722C505.181 99.722 505.739 99.578 506.243 99.29C506.759 98.99 507.167 98.564 507.467 98.012C507.767 97.448 507.917 96.794 507.917 96.05ZM109.024 121.738C109.312 121.174 109.72 120.736 110.248 120.424C110.788 120.112 111.442 119.956 112.21 119.956V121.648H111.778C109.942 121.648 109.024 122.644 109.024 124.636V130H107.386V120.136H109.024V121.738ZM122.741 124.69C122.741 125.002 122.723 125.332 122.687 125.68H114.803C114.863 126.652 115.193 127.414 115.793 127.966C116.405 128.506 117.143 128.776 118.007 128.776C118.715 128.776 119.303 128.614 119.771 128.29C120.251 127.954 120.587 127.51 120.779 126.958H122.543C122.279 127.906 121.751 128.68 120.959 129.28C120.167 129.868 119.183 130.162 118.007 130.162C117.071 130.162 116.231 129.952 115.487 129.532C114.755 129.112 114.179 128.518 113.759 127.75C113.339 126.97 113.129 126.07 113.129 125.05C113.129 124.03 113.333 123.136 113.741 122.368C114.149 121.6 114.719 121.012 115.451 120.604C116.195 120.184 117.047 119.974 118.007 119.974C118.943 119.974 119.771 120.178 120.491 120.586C121.211 120.994 121.763 121.558 122.147 122.278C122.543 122.986 122.741 123.79 122.741 124.69ZM121.049 124.348C121.049 123.724 120.911 123.19 120.635 122.746C120.359 122.29 119.981 121.948 119.501 121.72C119.033 121.48 118.511 121.36 117.935 121.36C117.107 121.36 116.399 121.624 115.811 122.152C115.235 122.68 114.905 123.412 114.821 124.348H121.049ZM123.931 125.05C123.931 124.03 124.135 123.142 124.543 122.386C124.951 121.618 125.515 121.024 126.235 120.604C126.967 120.184 127.801 119.974 128.737 119.974C129.949 119.974 130.945 120.268 131.725 120.856C132.517 121.444 133.039 122.26 133.291 123.304H131.527C131.359 122.704 131.029 122.23 130.537 121.882C130.057 121.534 129.457 121.36 128.737 121.36C127.801 121.36 127.045 121.684 126.469 122.332C125.893 122.968 125.605 123.874 125.605 125.05C125.605 126.238 125.893 127.156 126.469 127.804C127.045 128.452 127.801 128.776 128.737 128.776C129.457 128.776 130.057 128.608 130.537 128.272C131.017 127.936 131.347 127.456 131.527 126.832H133.291C133.027 127.84 132.499 128.65 131.707 129.262C130.915 129.862 129.925 130.162 128.737 130.162C127.801 130.162 126.967 129.952 126.235 129.532C125.515 129.112 124.951 128.518 124.543 127.75C124.135 126.982 123.931 126.082 123.931 125.05ZM144.117 124.69C144.117 125.002 144.099 125.332 144.063 125.68H136.179C136.239 126.652 136.569 127.414 137.169 127.966C137.781 128.506 138.519 128.776 139.383 128.776C140.091 128.776 140.679 128.614 141.147 128.29C141.627 127.954 141.963 127.51 142.155 126.958H143.919C143.655 127.906 143.127 128.68 142.335 129.28C141.543 129.868 140.559 130.162 139.383 130.162C138.447 130.162 137.607 129.952 136.863 129.532C136.131 129.112 135.555 128.518 135.135 127.75C134.715 126.97 134.505 126.07 134.505 125.05C134.505 124.03 134.709 123.136 135.117 122.368C135.525 121.6 136.095 121.012 136.827 120.604C137.571 120.184 138.423 119.974 139.383 119.974C140.319 119.974 141.147 120.178 141.867 120.586C142.587 120.994 143.139 121.558 143.523 122.278C143.919 122.986 144.117 123.79 144.117 124.69ZM142.425 124.348C142.425 123.724 142.287 123.19 142.011 122.746C141.735 122.29 141.357 121.948 140.877 121.72C140.409 121.48 139.887 121.36 139.311 121.36C138.483 121.36 137.775 121.624 137.187 122.152C136.611 122.68 136.281 123.412 136.197 124.348H142.425ZM146.765 118.534C146.453 118.534 146.189 118.426 145.973 118.21C145.757 117.994 145.649 117.73 145.649 117.418C145.649 117.106 145.757 116.842 145.973 116.626C146.189 116.41 146.453 116.302 146.765 116.302C147.065 116.302 147.317 116.41 147.521 116.626C147.737 116.842 147.845 117.106 147.845 117.418C147.845 117.73 147.737 117.994 147.521 118.21C147.317 118.426 147.065 118.534 146.765 118.534ZM147.557 120.136V130H145.919V120.136H147.557ZM153.66 128.488L156.72 120.136H158.466L154.596 130H152.688L148.818 120.136H150.582L153.66 128.488ZM168.718 124.69C168.718 125.002 168.7 125.332 168.664 125.68H160.78C160.84 126.652 161.17 127.414 161.77 127.966C162.382 128.506 163.12 128.776 163.984 128.776C164.692 128.776 165.28 128.614 165.748 128.29C166.228 127.954 166.564 127.51 166.756 126.958H168.52C168.256 127.906 167.728 128.68 166.936 129.28C166.144 129.868 165.16 130.162 163.984 130.162C163.048 130.162 162.208 129.952 161.464 129.532C160.732 129.112 160.156 128.518 159.736 127.75C159.316 126.97 159.106 126.07 159.106 125.05C159.106 124.03 159.31 123.136 159.718 122.368C160.126 121.6 160.696 121.012 161.428 120.604C162.172 120.184 163.024 119.974 163.984 119.974C164.92 119.974 165.748 120.178 166.468 120.586C167.188 120.994 167.74 121.558 168.124 122.278C168.52 122.986 168.718 123.79 168.718 124.69ZM167.026 124.348C167.026 123.724 166.888 123.19 166.612 122.746C166.336 122.29 165.958 121.948 165.478 121.72C165.01 121.48 164.488 121.36 163.912 121.36C163.084 121.36 162.376 121.624 161.788 122.152C161.212 122.68 160.882 123.412 160.798 124.348H167.026ZM174.347 125.032C174.347 124.024 174.551 123.142 174.959 122.386C175.367 121.618 175.925 121.024 176.633 120.604C177.353 120.184 178.151 119.974 179.027 119.974C179.891 119.974 180.641 120.16 181.277 120.532C181.913 120.904 182.387 121.372 182.699 121.936V120.136H184.355V130H182.699V128.164C182.375 128.74 181.889 129.22 181.241 129.604C180.605 129.976 179.861 130.162 179.009 130.162C178.133 130.162 177.341 129.946 176.633 129.514C175.925 129.082 175.367 128.476 174.959 127.696C174.551 126.916 174.347 126.028 174.347 125.032ZM182.699 125.05C182.699 124.306 182.549 123.658 182.249 123.106C181.949 122.554 181.541 122.134 181.025 121.846C180.521 121.546 179.963 121.396 179.351 121.396C178.739 121.396 178.181 121.54 177.677 121.828C177.173 122.116 176.771 122.536 176.471 123.088C176.171 123.64 176.021 124.288 176.021 125.032C176.021 125.788 176.171 126.448 176.471 127.012C176.771 127.564 177.173 127.99 177.677 128.29C178.181 128.578 178.739 128.722 179.351 128.722C179.963 128.722 180.521 128.578 181.025 128.29C181.541 127.99 181.949 127.564 182.249 127.012C182.549 126.448 182.699 125.794 182.699 125.05ZM191.569 119.956C192.769 119.956 193.741 120.322 194.485 121.054C195.229 121.774 195.601 122.818 195.601 124.186V130H193.981V124.42C193.981 123.436 193.735 122.686 193.243 122.17C192.751 121.642 192.079 121.378 191.227 121.378C190.363 121.378 189.673 121.648 189.157 122.188C188.653 122.728 188.401 123.514 188.401 124.546V130H186.763V120.136H188.401V121.54C188.725 121.036 189.163 120.646 189.715 120.37C190.279 120.094 190.897 119.956 191.569 119.956ZM203.202 118.534C202.89 118.534 202.626 118.426 202.41 118.21C202.194 117.994 202.086 117.73 202.086 117.418C202.086 117.106 202.194 116.842 202.41 116.626C202.626 116.41 202.89 116.302 203.202 116.302C203.502 116.302 203.754 116.41 203.958 116.626C204.174 116.842 204.282 117.106 204.282 117.418C204.282 117.73 204.174 117.994 203.958 118.21C203.754 118.426 203.502 118.534 203.202 118.534ZM203.994 120.136V130H202.356V120.136H203.994ZM211.231 119.956C212.431 119.956 213.403 120.322 214.147 121.054C214.891 121.774 215.263 122.818 215.263 124.186V130H213.643V124.42C213.643 123.436 213.397 122.686 212.905 122.17C212.413 121.642 211.741 121.378 210.889 121.378C210.025 121.378 209.335 121.648 208.819 122.188C208.315 122.728 208.063 123.514 208.063 124.546V130H206.425V120.136H208.063V121.54C208.387 121.036 208.825 120.646 209.377 120.37C209.941 120.094 210.559 119.956 211.231 119.956ZM221.071 130.162C220.315 130.162 219.637 130.036 219.037 129.784C218.437 129.52 217.963 129.16 217.615 128.704C217.267 128.236 217.075 127.702 217.039 127.102H218.731C218.779 127.594 219.007 127.996 219.415 128.308C219.835 128.62 220.381 128.776 221.053 128.776C221.677 128.776 222.169 128.638 222.529 128.362C222.889 128.086 223.069 127.738 223.069 127.318C223.069 126.886 222.877 126.568 222.493 126.364C222.109 126.148 221.515 125.938 220.711 125.734C219.979 125.542 219.379 125.35 218.911 125.158C218.455 124.954 218.059 124.66 217.723 124.276C217.399 123.88 217.237 123.364 217.237 122.728C217.237 122.224 217.387 121.762 217.687 121.342C217.987 120.922 218.413 120.592 218.965 120.352C219.517 120.1 220.147 119.974 220.855 119.974C221.947 119.974 222.829 120.25 223.501 120.802C224.173 121.354 224.533 122.11 224.581 123.07H222.943C222.907 122.554 222.697 122.14 222.313 121.828C221.941 121.516 221.437 121.36 220.801 121.36C220.213 121.36 219.745 121.486 219.397 121.738C219.049 121.99 218.875 122.32 218.875 122.728C218.875 123.052 218.977 123.322 219.181 123.538C219.397 123.742 219.661 123.91 219.973 124.042C220.297 124.162 220.741 124.3 221.305 124.456C222.013 124.648 222.589 124.84 223.033 125.032C223.477 125.212 223.855 125.488 224.167 125.86C224.491 126.232 224.659 126.718 224.671 127.318C224.671 127.858 224.521 128.344 224.221 128.776C223.921 129.208 223.495 129.55 222.943 129.802C222.403 130.042 221.779 130.162 221.071 130.162ZM228.621 121.486V127.3C228.621 127.78 228.723 128.122 228.927 128.326C229.131 128.518 229.485 128.614 229.989 128.614H231.195V130H229.719C228.807 130 228.123 129.79 227.667 129.37C227.211 128.95 226.983 128.26 226.983 127.3V121.486H225.705V120.136H226.983V117.652H228.621V120.136H231.195V121.486H228.621ZM232.208 125.032C232.208 124.024 232.412 123.142 232.82 122.386C233.228 121.618 233.786 121.024 234.494 120.604C235.214 120.184 236.012 119.974 236.888 119.974C237.752 119.974 238.502 120.16 239.138 120.532C239.774 120.904 240.248 121.372 240.56 121.936V120.136H242.216V130H240.56V128.164C240.236 128.74 239.75 129.22 239.102 129.604C238.466 129.976 237.722 130.162 236.87 130.162C235.994 130.162 235.202 129.946 234.494 129.514C233.786 129.082 233.228 128.476 232.82 127.696C232.412 126.916 232.208 126.028 232.208 125.032ZM240.56 125.05C240.56 124.306 240.41 123.658 240.11 123.106C239.81 122.554 239.402 122.134 238.886 121.846C238.382 121.546 237.824 121.396 237.212 121.396C236.6 121.396 236.042 121.54 235.538 121.828C235.034 122.116 234.632 122.536 234.332 123.088C234.032 123.64 233.882 124.288 233.882 125.032C233.882 125.788 234.032 126.448 234.332 127.012C234.632 127.564 235.034 127.99 235.538 128.29C236.042 128.578 236.6 128.722 237.212 128.722C237.824 128.722 238.382 128.578 238.886 128.29C239.402 127.99 239.81 127.564 240.11 127.012C240.41 126.448 240.56 125.794 240.56 125.05ZM249.43 119.956C250.63 119.956 251.602 120.322 252.346 121.054C253.09 121.774 253.462 122.818 253.462 124.186V130H251.842V124.42C251.842 123.436 251.596 122.686 251.104 122.17C250.612 121.642 249.94 121.378 249.088 121.378C248.224 121.378 247.534 121.648 247.018 122.188C246.514 122.728 246.262 123.514 246.262 124.546V130H244.624V120.136H246.262V121.54C246.586 121.036 247.024 120.646 247.576 120.37C248.14 120.094 248.758 119.956 249.43 119.956ZM257.776 121.486V127.3C257.776 127.78 257.878 128.122 258.082 128.326C258.286 128.518 258.64 128.614 259.144 128.614H260.35V130H258.874C257.962 130 257.278 129.79 256.822 129.37C256.366 128.95 256.138 128.26 256.138 127.3V121.486H254.86V120.136H256.138V117.652H257.776V120.136H260.35V121.486H257.776ZM265.801 125.05C265.801 124.03 266.005 123.142 266.413 122.386C266.821 121.618 267.385 121.024 268.105 120.604C268.837 120.184 269.671 119.974 270.607 119.974C271.819 119.974 272.815 120.268 273.595 120.856C274.387 121.444 274.909 122.26 275.161 123.304H273.397C273.229 122.704 272.899 122.23 272.407 121.882C271.927 121.534 271.327 121.36 270.607 121.36C269.671 121.36 268.915 121.684 268.339 122.332C267.763 122.968 267.475 123.874 267.475 125.05C267.475 126.238 267.763 127.156 268.339 127.804C268.915 128.452 269.671 128.776 270.607 128.776C271.327 128.776 271.927 128.608 272.407 128.272C272.887 127.936 273.217 127.456 273.397 126.832H275.161C274.897 127.84 274.369 128.65 273.577 129.262C272.785 129.862 271.795 130.162 270.607 130.162C269.671 130.162 268.837 129.952 268.105 129.532C267.385 129.112 266.821 128.518 266.413 127.75C266.005 126.982 265.801 126.082 265.801 125.05ZM281.289 130.162C280.365 130.162 279.525 129.952 278.769 129.532C278.025 129.112 277.437 128.518 277.005 127.75C276.585 126.97 276.375 126.07 276.375 125.05C276.375 124.042 276.591 123.154 277.023 122.386C277.467 121.606 278.067 121.012 278.823 120.604C279.579 120.184 280.425 119.974 281.361 119.974C282.297 119.974 283.143 120.184 283.899 120.604C284.655 121.012 285.249 121.6 285.681 122.368C286.125 123.136 286.347 124.03 286.347 125.05C286.347 126.07 286.119 126.97 285.663 127.75C285.219 128.518 284.613 129.112 283.845 129.532C283.077 129.952 282.225 130.162 281.289 130.162ZM281.289 128.722C281.877 128.722 282.429 128.584 282.945 128.308C283.461 128.032 283.875 127.618 284.187 127.066C284.511 126.514 284.673 125.842 284.673 125.05C284.673 124.258 284.517 123.586 284.205 123.034C283.893 122.482 283.485 122.074 282.981 121.81C282.477 121.534 281.931 121.396 281.343 121.396C280.743 121.396 280.191 121.534 279.687 121.81C279.195 122.074 278.799 122.482 278.499 123.034C278.199 123.586 278.049 124.258 278.049 125.05C278.049 125.854 278.193 126.532 278.481 127.084C278.781 127.636 279.177 128.05 279.669 128.326C280.161 128.59 280.701 128.722 281.289 128.722ZM292.946 119.956C294.146 119.956 295.118 120.322 295.862 121.054C296.606 121.774 296.978 122.818 296.978 124.186V130H295.358V124.42C295.358 123.436 295.112 122.686 294.62 122.17C294.128 121.642 293.456 121.378 292.604 121.378C291.74 121.378 291.05 121.648 290.534 122.188C290.03 122.728 289.778 123.514 289.778 124.546V130H288.14V120.136H289.778V121.54C290.102 121.036 290.54 120.646 291.092 120.37C291.656 120.094 292.274 119.956 292.946 119.956ZM303.308 121.486H301.238V130H299.6V121.486H298.322V120.136H299.6V119.434C299.6 118.33 299.882 117.526 300.446 117.022C301.022 116.506 301.94 116.248 303.2 116.248V117.616C302.48 117.616 301.97 117.76 301.67 118.048C301.382 118.324 301.238 118.786 301.238 119.434V120.136H303.308V121.486ZM305.704 118.534C305.392 118.534 305.128 118.426 304.912 118.21C304.696 117.994 304.588 117.73 304.588 117.418C304.588 117.106 304.696 116.842 304.912 116.626C305.128 116.41 305.392 116.302 305.704 116.302C306.004 116.302 306.256 116.41 306.46 116.626C306.676 116.842 306.784 117.106 306.784 117.418C306.784 117.73 306.676 117.994 306.46 118.21C306.256 118.426 306.004 118.534 305.704 118.534ZM306.496 120.136V130H304.858V120.136H306.496ZM310.566 121.738C310.854 121.174 311.262 120.736 311.79 120.424C312.33 120.112 312.984 119.956 313.752 119.956V121.648H313.32C311.484 121.648 310.566 122.644 310.566 124.636V130H308.928V120.136H310.566V121.738ZM327.144 119.956C327.912 119.956 328.596 120.118 329.196 120.442C329.796 120.754 330.27 121.228 330.618 121.864C330.966 122.5 331.14 123.274 331.14 124.186V130H329.52V124.42C329.52 123.436 329.274 122.686 328.782 122.17C328.302 121.642 327.648 121.378 326.82 121.378C325.968 121.378 325.29 121.654 324.786 122.206C324.282 122.746 324.03 123.532 324.03 124.564V130H322.41V124.42C322.41 123.436 322.164 122.686 321.672 122.17C321.192 121.642 320.538 121.378 319.71 121.378C318.858 121.378 318.18 121.654 317.676 122.206C317.172 122.746 316.92 123.532 316.92 124.564V130H315.282V120.136H316.92V121.558C317.244 121.042 317.676 120.646 318.216 120.37C318.768 120.094 319.374 119.956 320.034 119.956C320.862 119.956 321.594 120.142 322.23 120.514C322.866 120.886 323.34 121.432 323.652 122.152C323.928 121.456 324.384 120.916 325.02 120.532C325.656 120.148 326.364 119.956 327.144 119.956ZM332.855 125.032C332.855 124.024 333.059 123.142 333.467 122.386C333.875 121.618 334.433 121.024 335.141 120.604C335.861 120.184 336.659 119.974 337.535 119.974C338.399 119.974 339.149 120.16 339.785 120.532C340.421 120.904 340.895 121.372 341.207 121.936V120.136H342.863V130H341.207V128.164C340.883 128.74 340.397 129.22 339.749 129.604C339.113 129.976 338.369 130.162 337.517 130.162C336.641 130.162 335.849 129.946 335.141 129.514C334.433 129.082 333.875 128.476 333.467 127.696C333.059 126.916 332.855 126.028 332.855 125.032ZM341.207 125.05C341.207 124.306 341.057 123.658 340.757 123.106C340.457 122.554 340.049 122.134 339.533 121.846C339.029 121.546 338.471 121.396 337.859 121.396C337.247 121.396 336.689 121.54 336.185 121.828C335.681 122.116 335.279 122.536 334.979 123.088C334.679 123.64 334.529 124.288 334.529 125.032C334.529 125.788 334.679 126.448 334.979 127.012C335.279 127.564 335.681 127.99 336.185 128.29C336.689 128.578 337.247 128.722 337.859 128.722C338.471 128.722 339.029 128.578 339.533 128.29C340.049 127.99 340.457 127.564 340.757 127.012C341.057 126.448 341.207 125.794 341.207 125.05ZM347.269 121.486V127.3C347.269 127.78 347.371 128.122 347.575 128.326C347.779 128.518 348.133 128.614 348.637 128.614H349.843V130H348.367C347.455 130 346.771 129.79 346.315 129.37C345.859 128.95 345.631 128.26 345.631 127.3V121.486H344.353V120.136H345.631V117.652H347.269V120.136H349.843V121.486H347.269ZM352.314 118.534C352.002 118.534 351.738 118.426 351.522 118.21C351.306 117.994 351.198 117.73 351.198 117.418C351.198 117.106 351.306 116.842 351.522 116.626C351.738 116.41 352.002 116.302 352.314 116.302C352.614 116.302 352.866 116.41 353.07 116.626C353.286 116.842 353.394 117.106 353.394 117.418C353.394 117.73 353.286 117.994 353.07 118.21C352.866 118.426 352.614 118.534 352.314 118.534ZM353.106 120.136V130H351.468V120.136H353.106ZM359.84 130.162C358.916 130.162 358.076 129.952 357.32 129.532C356.576 129.112 355.988 128.518 355.556 127.75C355.136 126.97 354.926 126.07 354.926 125.05C354.926 124.042 355.142 123.154 355.574 122.386C356.018 121.606 356.618 121.012 357.374 120.604C358.13 120.184 358.976 119.974 359.912 119.974C360.848 119.974 361.694 120.184 362.45 120.604C363.206 121.012 363.8 121.6 364.232 122.368C364.676 123.136 364.898 124.03 364.898 125.05C364.898 126.07 364.67 126.97 364.214 127.75C363.77 128.518 363.164 129.112 362.396 129.532C361.628 129.952 360.776 130.162 359.84 130.162ZM359.84 128.722C360.428 128.722 360.98 128.584 361.496 128.308C362.012 128.032 362.426 127.618 362.738 127.066C363.062 126.514 363.224 125.842 363.224 125.05C363.224 124.258 363.068 123.586 362.756 123.034C362.444 122.482 362.036 122.074 361.532 121.81C361.028 121.534 360.482 121.396 359.894 121.396C359.294 121.396 358.742 121.534 358.238 121.81C357.746 122.074 357.35 122.482 357.05 123.034C356.75 123.586 356.6 124.258 356.6 125.05C356.6 125.854 356.744 126.532 357.032 127.084C357.332 127.636 357.728 128.05 358.22 128.326C358.712 128.59 359.252 128.722 359.84 128.722ZM371.497 119.956C372.697 119.956 373.669 120.322 374.413 121.054C375.157 121.774 375.529 122.818 375.529 124.186V130H373.909V124.42C373.909 123.436 373.663 122.686 373.171 122.17C372.679 121.642 372.007 121.378 371.155 121.378C370.291 121.378 369.601 121.648 369.085 122.188C368.581 122.728 368.329 123.514 368.329 124.546V130H366.691V120.136H368.329V121.54C368.653 121.036 369.091 120.646 369.643 120.37C370.207 120.094 370.825 119.956 371.497 119.956ZM385.956 128.488L389.016 120.136H390.762L386.892 130H384.984L381.114 120.136H382.878L385.956 128.488ZM392.86 118.534C392.548 118.534 392.284 118.426 392.068 118.21C391.852 117.994 391.744 117.73 391.744 117.418C391.744 117.106 391.852 116.842 392.068 116.626C392.284 116.41 392.548 116.302 392.86 116.302C393.16 116.302 393.412 116.41 393.616 116.626C393.832 116.842 393.94 117.106 393.94 117.418C393.94 117.73 393.832 117.994 393.616 118.21C393.412 118.426 393.16 118.534 392.86 118.534ZM393.652 120.136V130H392.014V120.136H393.652ZM395.472 125.032C395.472 124.024 395.676 123.142 396.084 122.386C396.492 121.618 397.05 121.024 397.758 120.604C398.478 120.184 399.276 119.974 400.152 119.974C401.016 119.974 401.766 120.16 402.402 120.532C403.038 120.904 403.512 121.372 403.824 121.936V120.136H405.48V130H403.824V128.164C403.5 128.74 403.014 129.22 402.366 129.604C401.73 129.976 400.986 130.162 400.134 130.162C399.258 130.162 398.466 129.946 397.758 129.514C397.05 129.082 396.492 128.476 396.084 127.696C395.676 126.916 395.472 126.028 395.472 125.032ZM403.824 125.05C403.824 124.306 403.674 123.658 403.374 123.106C403.074 122.554 402.666 122.134 402.15 121.846C401.646 121.546 401.088 121.396 400.476 121.396C399.864 121.396 399.306 121.54 398.802 121.828C398.298 122.116 397.896 122.536 397.596 123.088C397.296 123.64 397.146 124.288 397.146 125.032C397.146 125.788 397.296 126.448 397.596 127.012C397.896 127.564 398.298 127.99 398.802 128.29C399.306 128.578 399.864 128.722 400.476 128.722C401.088 128.722 401.646 128.578 402.15 128.29C402.666 127.99 403.074 127.564 403.374 127.012C403.674 126.448 403.824 125.794 403.824 125.05ZM421.326 124.69C421.326 125.002 421.308 125.332 421.272 125.68H413.388C413.448 126.652 413.778 127.414 414.378 127.966C414.99 128.506 415.728 128.776 416.592 128.776C417.3 128.776 417.888 128.614 418.356 128.29C418.836 127.954 419.172 127.51 419.364 126.958H421.128C420.864 127.906 420.336 128.68 419.544 129.28C418.752 129.868 417.768 130.162 416.592 130.162C415.656 130.162 414.816 129.952 414.072 129.532C413.34 129.112 412.764 128.518 412.344 127.75C411.924 126.97 411.714 126.07 411.714 125.05C411.714 124.03 411.918 123.136 412.326 122.368C412.734 121.6 413.304 121.012 414.036 120.604C414.78 120.184 415.632 119.974 416.592 119.974C417.528 119.974 418.356 120.178 419.076 120.586C419.796 120.994 420.348 121.558 420.732 122.278C421.128 122.986 421.326 123.79 421.326 124.69ZM419.634 124.348C419.634 123.724 419.496 123.19 419.22 122.746C418.944 122.29 418.566 121.948 418.086 121.72C417.618 121.48 417.096 121.36 416.52 121.36C415.692 121.36 414.984 121.624 414.396 122.152C413.82 122.68 413.49 123.412 413.406 124.348H419.634ZM434.99 119.956C435.758 119.956 436.442 120.118 437.042 120.442C437.642 120.754 438.116 121.228 438.464 121.864C438.812 122.5 438.986 123.274 438.986 124.186V130H437.366V124.42C437.366 123.436 437.12 122.686 436.628 122.17C436.148 121.642 435.494 121.378 434.666 121.378C433.814 121.378 433.136 121.654 432.632 122.206C432.128 122.746 431.876 123.532 431.876 124.564V130H430.256V124.42C430.256 123.436 430.01 122.686 429.518 122.17C429.038 121.642 428.384 121.378 427.556 121.378C426.704 121.378 426.026 121.654 425.522 122.206C425.018 122.746 424.766 123.532 424.766 124.564V130H423.128V120.136H424.766V121.558C425.09 121.042 425.522 120.646 426.062 120.37C426.614 120.094 427.22 119.956 427.88 119.956C428.708 119.956 429.44 120.142 430.076 120.514C430.712 120.886 431.186 121.432 431.498 122.152C431.774 121.456 432.23 120.916 432.866 120.532C433.502 120.148 434.21 119.956 434.99 119.956ZM440.701 125.032C440.701 124.024 440.905 123.142 441.313 122.386C441.721 121.618 442.279 121.024 442.987 120.604C443.707 120.184 444.505 119.974 445.381 119.974C446.245 119.974 446.995 120.16 447.631 120.532C448.267 120.904 448.741 121.372 449.053 121.936V120.136H450.709V130H449.053V128.164C448.729 128.74 448.243 129.22 447.595 129.604C446.959 129.976 446.215 130.162 445.363 130.162C444.487 130.162 443.695 129.946 442.987 129.514C442.279 129.082 441.721 128.476 441.313 127.696C440.905 126.916 440.701 126.028 440.701 125.032ZM449.053 125.05C449.053 124.306 448.903 123.658 448.603 123.106C448.303 122.554 447.895 122.134 447.379 121.846C446.875 121.546 446.317 121.396 445.705 121.396C445.093 121.396 444.535 121.54 444.031 121.828C443.527 122.116 443.125 122.536 442.825 123.088C442.525 123.64 442.375 124.288 442.375 125.032C442.375 125.788 442.525 126.448 442.825 127.012C443.125 127.564 443.527 127.99 444.031 128.29C444.535 128.578 445.093 128.722 445.705 128.722C446.317 128.722 446.875 128.578 447.379 128.29C447.895 127.99 448.303 127.564 448.603 127.012C448.903 126.448 449.053 125.794 449.053 125.05ZM453.963 118.534C453.651 118.534 453.387 118.426 453.171 118.21C452.955 117.994 452.847 117.73 452.847 117.418C452.847 117.106 452.955 116.842 453.171 116.626C453.387 116.41 453.651 116.302 453.963 116.302C454.263 116.302 454.515 116.41 454.719 116.626C454.935 116.842 455.043 117.106 455.043 117.418C455.043 117.73 454.935 117.994 454.719 118.21C454.515 118.426 454.263 118.534 453.963 118.534ZM454.755 120.136V130H453.117V120.136H454.755ZM458.825 116.68V130H457.187V116.68H458.825ZM469.998 130.162C469.074 130.162 468.234 129.952 467.478 129.532C466.734 129.112 466.146 128.518 465.714 127.75C465.294 126.97 465.084 126.07 465.084 125.05C465.084 124.042 465.3 123.154 465.732 122.386C466.176 121.606 466.776 121.012 467.532 120.604C468.288 120.184 469.134 119.974 470.07 119.974C471.006 119.974 471.852 120.184 472.608 120.604C473.364 121.012 473.958 121.6 474.39 122.368C474.834 123.136 475.056 124.03 475.056 125.05C475.056 126.07 474.828 126.97 474.372 127.75C473.928 128.518 473.322 129.112 472.554 129.532C471.786 129.952 470.934 130.162 469.998 130.162ZM469.998 128.722C470.586 128.722 471.138 128.584 471.654 128.308C472.17 128.032 472.584 127.618 472.896 127.066C473.22 126.514 473.382 125.842 473.382 125.05C473.382 124.258 473.226 123.586 472.914 123.034C472.602 122.482 472.194 122.074 471.69 121.81C471.186 121.534 470.64 121.396 470.052 121.396C469.452 121.396 468.9 121.534 468.396 121.81C467.904 122.074 467.508 122.482 467.208 123.034C466.908 123.586 466.758 124.258 466.758 125.05C466.758 125.854 466.902 126.532 467.19 127.084C467.49 127.636 467.886 128.05 468.378 128.326C468.87 128.59 469.41 128.722 469.998 128.722ZM478.487 121.738C478.775 121.174 479.183 120.736 479.711 120.424C480.251 120.112 480.905 119.956 481.673 119.956V121.648H481.241C479.405 121.648 478.487 122.644 478.487 124.636V130H476.849V120.136H478.487V121.738ZM491.621 130.126C490.793 130.126 490.049 129.982 489.389 129.694C488.741 129.394 488.231 128.986 487.859 128.47C487.487 127.942 487.295 127.336 487.283 126.652H489.029C489.089 127.24 489.329 127.738 489.749 128.146C490.181 128.542 490.805 128.74 491.621 128.74C492.401 128.74 493.013 128.548 493.457 128.164C493.913 127.768 494.141 127.264 494.141 126.652C494.141 126.172 494.009 125.782 493.745 125.482C493.481 125.182 493.151 124.954 492.755 124.798C492.359 124.642 491.825 124.474 491.153 124.294C490.325 124.078 489.659 123.862 489.155 123.646C488.663 123.43 488.237 123.094 487.877 122.638C487.529 122.17 487.355 121.546 487.355 120.766C487.355 120.082 487.529 119.476 487.877 118.948C488.225 118.42 488.711 118.012 489.335 117.724C489.971 117.436 490.697 117.292 491.513 117.292C492.689 117.292 493.649 117.586 494.393 118.174C495.149 118.762 495.575 119.542 495.671 120.514H493.871C493.811 120.034 493.559 119.614 493.115 119.254C492.671 118.882 492.083 118.696 491.351 118.696C490.667 118.696 490.109 118.876 489.677 119.236C489.245 119.584 489.029 120.076 489.029 120.712C489.029 121.168 489.155 121.54 489.407 121.828C489.671 122.116 489.989 122.338 490.361 122.494C490.745 122.638 491.279 122.806 491.963 122.998C492.791 123.226 493.457 123.454 493.961 123.682C494.465 123.898 494.897 124.24 495.257 124.708C495.617 125.164 495.797 125.788 495.797 126.58C495.797 127.192 495.635 127.768 495.311 128.308C494.987 128.848 494.507 129.286 493.871 129.622C493.235 129.958 492.485 130.126 491.621 130.126ZM510.573 117.544V130H508.935V120.712L504.795 130H503.643L499.485 120.694V130H497.847V117.544H499.611L504.219 127.84L508.827 117.544H510.573ZM516.969 130.126C516.141 130.126 515.397 129.982 514.737 129.694C514.089 129.394 513.579 128.986 513.207 128.47C512.835 127.942 512.643 127.336 512.631 126.652H514.377C514.437 127.24 514.677 127.738 515.097 128.146C515.529 128.542 516.153 128.74 516.969 128.74C517.749 128.74 518.361 128.548 518.805 128.164C519.261 127.768 519.489 127.264 519.489 126.652C519.489 126.172 519.357 125.782 519.093 125.482C518.829 125.182 518.499 124.954 518.103 124.798C517.707 124.642 517.173 124.474 516.501 124.294C515.673 124.078 515.007 123.862 514.503 123.646C514.011 123.43 513.585 123.094 513.225 122.638C512.877 122.17 512.703 121.546 512.703 120.766C512.703 120.082 512.877 119.476 513.225 118.948C513.573 118.42 514.059 118.012 514.683 117.724C515.319 117.436 516.045 117.292 516.861 117.292C518.037 117.292 518.997 117.586 519.741 118.174C520.497 118.762 520.923 119.542 521.019 120.514H519.219C519.159 120.034 518.907 119.614 518.463 119.254C518.019 118.882 517.431 118.696 516.699 118.696C516.015 118.696 515.457 118.876 515.025 119.236C514.593 119.584 514.377 120.076 514.377 120.712C514.377 121.168 514.503 121.54 514.755 121.828C515.019 122.116 515.337 122.338 515.709 122.494C516.093 122.638 516.627 122.806 517.311 122.998C518.139 123.226 518.805 123.454 519.309 123.682C519.813 123.898 520.245 124.24 520.605 124.708C520.965 125.164 521.145 125.788 521.145 126.58C521.145 127.192 520.983 127.768 520.659 128.308C520.335 128.848 519.855 129.286 519.219 129.622C518.583 129.958 517.833 130.126 516.969 130.126ZM523.718 130.108C523.406 130.108 523.142 130 522.926 129.784C522.71 129.568 522.602 129.304 522.602 128.992C522.602 128.68 522.71 128.416 522.926 128.2C523.142 127.984 523.406 127.876 523.718 127.876C524.018 127.876 524.27 127.984 524.474 128.2C524.69 128.416 524.798 128.68 524.798 128.992C524.798 129.304 524.69 129.568 524.474 129.784C524.27 130 524.018 130.108 523.718 130.108Z" fill="black"/>
<path id="Book and confirm" d="M117.688 49.36C118.664 49.568 119.448 50.056 120.04 50.824C120.632 51.576 120.928 52.44 120.928 53.416C120.928 54.824 120.432 55.944 119.44 56.776C118.464 57.592 117.096 58 115.336 58H107.488V41.152H115.072C116.784 41.152 118.12 41.544 119.08 42.328C120.056 43.112 120.544 44.176 120.544 45.52C120.544 46.512 120.28 47.336 119.752 47.992C119.24 48.648 118.552 49.104 117.688 49.36ZM111.592 47.968H114.28C114.952 47.968 115.464 47.824 115.816 47.536C116.184 47.232 116.368 46.792 116.368 46.216C116.368 45.64 116.184 45.2 115.816 44.896C115.464 44.592 114.952 44.44 114.28 44.44H111.592V47.968ZM114.616 54.688C115.304 54.688 115.832 54.536 116.2 54.232C116.584 53.912 116.776 53.456 116.776 52.864C116.776 52.272 116.576 51.808 116.176 51.472C115.792 51.136 115.256 50.968 114.568 50.968H111.592V54.688H114.616ZM129.404 58.192C128.092 58.192 126.908 57.912 125.852 57.352C124.812 56.792 123.988 55.992 123.38 54.952C122.788 53.912 122.492 52.696 122.492 51.304C122.492 49.928 122.796 48.72 123.404 47.68C124.012 46.624 124.844 45.816 125.9 45.256C126.956 44.696 128.14 44.416 129.452 44.416C130.764 44.416 131.948 44.696 133.004 45.256C134.06 45.816 134.892 46.624 135.5 47.68C136.108 48.72 136.412 49.928 136.412 51.304C136.412 52.68 136.1 53.896 135.476 54.952C134.868 55.992 134.028 56.792 132.956 57.352C131.9 57.912 130.716 58.192 129.404 58.192ZM129.404 54.64C130.188 54.64 130.852 54.352 131.396 53.776C131.956 53.2 132.236 52.376 132.236 51.304C132.236 50.232 131.964 49.408 131.42 48.832C130.892 48.256 130.236 47.968 129.452 47.968C128.652 47.968 127.988 48.256 127.46 48.832C126.932 49.392 126.668 50.216 126.668 51.304C126.668 52.376 126.924 53.2 127.436 53.776C127.964 54.352 128.62 54.64 129.404 54.64ZM144.686 58.192C143.374 58.192 142.19 57.912 141.134 57.352C140.094 56.792 139.27 55.992 138.662 54.952C138.07 53.912 137.774 52.696 137.774 51.304C137.774 49.928 138.078 48.72 138.686 47.68C139.294 46.624 140.126 45.816 141.182 45.256C142.238 44.696 143.422 44.416 144.734 44.416C146.046 44.416 147.23 44.696 148.286 45.256C149.342 45.816 150.174 46.624 150.782 47.68C151.39 48.72 151.694 49.928 151.694 51.304C151.694 52.68 151.382 53.896 150.758 54.952C150.15 55.992 149.31 56.792 148.238 57.352C147.182 57.912 145.998 58.192 144.686 58.192ZM144.686 54.64C145.47 54.64 146.134 54.352 146.678 53.776C147.238 53.2 147.518 52.376 147.518 51.304C147.518 50.232 147.246 49.408 146.702 48.832C146.174 48.256 145.518 47.968 144.734 47.968C143.934 47.968 143.27 48.256 142.742 48.832C142.214 49.392 141.95 50.216 141.95 51.304C141.95 52.376 142.206 53.2 142.718 53.776C143.246 54.352 143.902 54.64 144.686 54.64ZM162.055 58L157.975 52.384V58H153.871V40.24H157.975V50.056L162.031 44.608H167.095L161.527 51.328L167.143 58H162.055ZM172.977 51.28C172.977 49.904 173.233 48.696 173.745 47.656C174.273 46.616 174.985 45.816 175.881 45.256C176.777 44.696 177.777 44.416 178.881 44.416C179.825 44.416 180.649 44.608 181.353 44.992C182.073 45.376 182.625 45.88 183.009 46.504V44.608H187.113V58H183.009V56.104C182.609 56.728 182.049 57.232 181.329 57.616C180.625 58 179.801 58.192 178.857 58.192C177.769 58.192 176.777 57.912 175.881 57.352C174.985 56.776 174.273 55.968 173.745 54.928C173.233 53.872 172.977 52.656 172.977 51.28ZM183.009 51.304C183.009 50.28 182.721 49.472 182.145 48.88C181.585 48.288 180.897 47.992 180.081 47.992C179.265 47.992 178.569 48.288 177.993 48.88C177.433 49.456 177.153 50.256 177.153 51.28C177.153 52.304 177.433 53.12 177.993 53.728C178.569 54.32 179.265 54.616 180.081 54.616C180.897 54.616 181.585 54.32 182.145 53.728C182.721 53.136 183.009 52.328 183.009 51.304ZM198.242 44.464C199.81 44.464 201.058 44.976 201.986 46C202.93 47.008 203.402 48.4 203.402 50.176V58H199.322V50.728C199.322 49.832 199.09 49.136 198.626 48.64C198.162 48.144 197.538 47.896 196.754 47.896C195.97 47.896 195.346 48.144 194.882 48.64C194.418 49.136 194.186 49.832 194.186 50.728V58H190.082V44.608H194.186V46.384C194.602 45.792 195.162 45.328 195.866 44.992C196.57 44.64 197.362 44.464 198.242 44.464ZM205.438 51.28C205.438 49.904 205.694 48.696 206.206 47.656C206.734 46.616 207.446 45.816 208.342 45.256C209.238 44.696 210.238 44.416 211.342 44.416C212.222 44.416 213.022 44.6 213.742 44.968C214.478 45.336 215.054 45.832 215.47 46.456V40.24H219.574V58H215.47V56.08C215.086 56.72 214.534 57.232 213.814 57.616C213.11 58 212.286 58.192 211.342 58.192C210.238 58.192 209.238 57.912 208.342 57.352C207.446 56.776 206.734 55.968 206.206 54.928C205.694 53.872 205.438 52.656 205.438 51.28ZM215.47 51.304C215.47 50.28 215.182 49.472 214.606 48.88C214.046 48.288 213.358 47.992 212.542 47.992C211.726 47.992 211.03 48.288 210.454 48.88C209.894 49.456 209.614 50.256 209.614 51.28C209.614 52.304 209.894 53.12 210.454 53.728C211.03 54.32 211.726 54.616 212.542 54.616C213.358 54.616 214.046 54.32 214.606 53.728C215.182 53.136 215.47 52.328 215.47 51.304ZM226.813 51.304C226.813 49.912 227.093 48.696 227.653 47.656C228.229 46.616 229.021 45.816 230.029 45.256C231.053 44.696 232.221 44.416 233.533 44.416C235.213 44.416 236.613 44.856 237.733 45.736C238.869 46.616 239.613 47.856 239.965 49.456H235.597C235.229 48.432 234.517 47.92 233.461 47.92C232.709 47.92 232.109 48.216 231.661 48.808C231.213 49.384 230.989 50.216 230.989 51.304C230.989 52.392 231.213 53.232 231.661 53.824C232.109 54.4 232.709 54.688 233.461 54.688C234.517 54.688 235.229 54.176 235.597 53.152H239.965C239.613 54.72 238.869 55.952 237.733 56.848C236.597 57.744 235.197 58.192 233.533 58.192C232.221 58.192 231.053 57.912 230.029 57.352C229.021 56.792 228.229 55.992 227.653 54.952C227.093 53.912 226.813 52.696 226.813 51.304ZM248.256 58.192C246.944 58.192 245.76 57.912 244.704 57.352C243.664 56.792 242.84 55.992 242.232 54.952C241.64 53.912 241.344 52.696 241.344 51.304C241.344 49.928 241.648 48.72 242.256 47.68C242.864 46.624 243.696 45.816 244.752 45.256C245.808 44.696 246.992 44.416 248.304 44.416C249.616 44.416 250.8 44.696 251.856 45.256C252.912 45.816 253.744 46.624 254.352 47.68C254.96 48.72 255.264 49.928 255.264 51.304C255.264 52.68 254.952 53.896 254.328 54.952C253.72 55.992 252.88 56.792 251.808 57.352C250.752 57.912 249.568 58.192 248.256 58.192ZM248.256 54.64C249.04 54.64 249.704 54.352 250.248 53.776C250.808 53.2 251.088 52.376 251.088 51.304C251.088 50.232 250.816 49.408 250.272 48.832C249.744 48.256 249.088 47.968 248.304 47.968C247.504 47.968 246.84 48.256 246.312 48.832C245.784 49.392 245.52 50.216 245.52 51.304C245.52 52.376 245.776 53.2 246.288 53.776C246.816 54.352 247.472 54.64 248.256 54.64ZM265.601 44.464C267.169 44.464 268.417 44.976 269.345 46C270.289 47.008 270.761 48.4 270.761 50.176V58H266.681V50.728C266.681 49.832 266.449 49.136 265.985 48.64C265.521 48.144 264.897 47.896 264.113 47.896C263.329 47.896 262.705 48.144 262.241 48.64C261.777 49.136 261.545 49.832 261.545 50.728V58H257.441V44.608H261.545V46.384C261.961 45.792 262.521 45.328 263.225 44.992C263.929 44.64 264.721 44.464 265.601 44.464ZM280.333 48.016H278.125V58H274.021V48.016H272.533V44.608H274.021V44.224C274.021 42.576 274.493 41.328 275.437 40.48C276.381 39.616 277.765 39.184 279.589 39.184C279.893 39.184 280.117 39.192 280.261 39.208V42.688C279.477 42.64 278.925 42.752 278.605 43.024C278.285 43.296 278.125 43.784 278.125 44.488V44.608H280.333V48.016ZM284.325 43.216C283.605 43.216 283.013 43.008 282.549 42.592C282.101 42.16 281.877 41.632 281.877 41.008C281.877 40.368 282.101 39.84 282.549 39.424C283.013 38.992 283.605 38.776 284.325 38.776C285.029 38.776 285.605 38.992 286.053 39.424C286.517 39.84 286.749 40.368 286.749 41.008C286.749 41.632 286.517 42.16 286.053 42.592C285.605 43.008 285.029 43.216 284.325 43.216ZM286.365 44.608V58H282.261V44.608H286.365ZM293.444 46.84C293.924 46.104 294.524 45.528 295.244 45.112C295.964 44.68 296.764 44.464 297.644 44.464V48.808H296.516C295.492 48.808 294.724 49.032 294.212 49.48C293.7 49.912 293.444 50.68 293.444 51.784V58H289.34V44.608H293.444V46.84ZM316.693 44.464C318.357 44.464 319.677 44.968 320.653 45.976C321.645 46.984 322.141 48.384 322.141 50.176V58H318.061V50.728C318.061 49.864 317.829 49.2 317.365 48.736C316.917 48.256 316.293 48.016 315.493 48.016C314.693 48.016 314.061 48.256 313.597 48.736C313.149 49.2 312.925 49.864 312.925 50.728V58H308.845V50.728C308.845 49.864 308.613 49.2 308.149 48.736C307.701 48.256 307.077 48.016 306.277 48.016C305.477 48.016 304.845 48.256 304.381 48.736C303.933 49.2 303.709 49.864 303.709 50.728V58H299.605V44.608H303.709V46.288C304.125 45.728 304.669 45.288 305.341 44.968C306.013 44.632 306.773 44.464 307.621 44.464C308.629 44.464 309.525 44.68 310.309 45.112C311.109 45.544 311.733 46.16 312.181 46.96C312.645 46.224 313.277 45.624 314.077 45.16C314.877 44.696 315.749 44.464 316.693 44.464Z" fill="black"/>
<rect id="Rectangle 94" x="32" y="32" width="54" height="106" rx="16" fill="#F5F5F5"/>
<g id="calendar-check-02">
<path id="Icon" d="M68 83H50M68 85.5V81.8C68 80.1198 68 79.2798 67.673 78.638C67.3854 78.0735 66.9265 77.6146 66.362 77.327C65.7202 77 64.8802 77 63.2 77H54.8C53.1198 77 52.2798 77 51.638 77.327C51.0735 77.6146 50.6146 78.0735 50.327 78.638C50 79.2798 50 80.1198 50 81.8V90.2C50 91.8802 50 92.7202 50.327 93.362C50.6146 93.9265 51.0735 94.3854 51.638 94.673C52.2798 95 53.1198 95 54.8 95H59M63 75V79M55 75V79M61.5 92L63.5 94L68 89.5" stroke="black" stroke-width="2" stroke-linecap="round" stroke-linejoin="round"/>
</g>
</g>
</g>
</g>
<defs>
<clipPath id="clip0_0_1">
<rect width="1440" height="6342" fill="white" transform="translate(-112 -4099)"/>
</clipPath>
</defs>
</svg>
